<mxfile host="app.diagrams.net" agent="Mozilla/5.0 (X11; Linux x86_64) AppleWebKit/537.36 (KHTML, like Gecko) Chrome/132.0.0.0 Safari/537.36" version="26.0.6">
  <diagram name="Page-1" id="Gojkcj711KSQblNZqXBl">
    <mxGraphModel dx="1050" dy="573" grid="1" gridSize="10" guides="1" tooltips="1" connect="1" arrows="1" fold="1" page="1" pageScale="1" pageWidth="850" pageHeight="1100" math="0" shadow="0">
      <root>
        <mxCell id="0" />
        <mxCell id="1" parent="0" />
        <mxCell id="2dzBc5fqnoKYE4eSqqUL-1" value="" style="sketch=0;outlineConnect=0;fontColor=#232F3E;gradientColor=none;fillColor=#232F3D;strokeColor=none;dashed=0;verticalLabelPosition=bottom;verticalAlign=top;align=center;html=1;fontSize=12;fontStyle=0;aspect=fixed;pointerEvents=1;shape=mxgraph.aws4.forums;" vertex="1" parent="1">
          <mxGeometry x="110" y="220" width="78" height="76" as="geometry" />
        </mxCell>
        <mxCell id="2dzBc5fqnoKYE4eSqqUL-2" value="" style="sketch=0;outlineConnect=0;fontColor=#232F3E;gradientColor=none;fillColor=#232F3D;strokeColor=none;dashed=0;verticalLabelPosition=bottom;verticalAlign=top;align=center;html=1;fontSize=12;fontStyle=0;aspect=fixed;pointerEvents=1;shape=mxgraph.aws4.json_script;" vertex="1" parent="1">
          <mxGeometry x="560" y="218" width="57" height="78" as="geometry" />
        </mxCell>
        <mxCell id="2dzBc5fqnoKYE4eSqqUL-5" value="" style="shape=image;verticalLabelPosition=bottom;labelBackgroundColor=default;verticalAlign=top;aspect=fixed;imageAspect=0;image=data:image/png,iVBORw0KGgoAAAANSUhEUgAAASwAAAEsCAYAAAB5fY51AAAACXBIWXMAAAsTAAALEwEAmpwYAAAgAElEQVR4nO3deXgT1RoG8HcmyyRtukyTllKgRkABQTaxgBakbAKKiCIoCoq7F9xQFkXggiIgClcUFTdQFAEXBGWRxQpUUazsRZCtlK20SadbmplklvtHiiJN0r00+v18+tyrmUy+TCZvZs6cOQcghBBCCCGEEEIIIYQQQgghhBBCCCGEEEIIIYQQQgghhBBCCCGEEEIIIYQQQgghhBBCCCGEEEIIIYQQQgghhBBCCCGEEEIIIYQQQgghhBBCCCGEEEIIIYQQQgghhBBCCCGEEEIIIYQQQgghhBBCCCGEEEIIIYQQQgghhBBCCCGEEEIIIYQQQgghhBBCCCGEEEIIIYQQQgghhBBCCCGEEEIIIYQQQgghhBBCCCGEEEIIIYQQQgipz5hLXQAhFTH7xRUPbNzyc89IY7Qn2HKFHsE4ceKoyb17tz1WV7WRuqO/1AUQUhHfb9zdb9PW1UOAhuUseRp3De33CQAKrH8gCiwSEho0iD4LJMDKxQVdzilpiLAYi+qoLFLH2EtdACGEVBQFFiEkZFBgEUJCBrVhkaDuuvXld9Izfr86mgt8dc4tScYwjvPs2P9GSl3WRv59KLBIULt/O5Z0+OS+DoA1yFIiALNQVzWRfy8KLBJUTGxkDk7GwMrxAZdxSSIsnMntkOqwMPKvRG1YhJCQQYFFCAkZFFiEkJBBgUUICRkUWISQkEGBRQgJGRRYhJCQQYFFCAkZFFiEkJBBgUUICRkUWISQkEGBRQgJGRRYhJCQQYFFCAkZFFiEkJBB42H9g61csT3JbNK5gi3jFpXwRvboo0lJrZy1VceubYdjM886Lg9Wi6pnWa/Xox806LpdtVUHCX0UWP9QSxZt7jN46IPLgYTAI+8BALJxa9/bPwEworZqmThp0VvflTunoAKgWEhN3dUxJaVDZm3VQkIbBdY/lNFokIAIPpIND7pcoRqBsAhTrc7jF24xFQMRCFaLrCooAcMDOrk2ayGhjQLrH4phFBXQw2Ao5yOW9NCzbMCQOHcmrzFwDk5JCbISN0TJbA70qF7PesurhZEZsIoeYcGrJf9yFFgkqBsHdFwV/0fUH1GGyIAjtru9Hs7MGaU1m7fUZWnkX4gCiwS14MMnJl3qGgg5j7o1EEJCBgUWISRkUGARQkIGBRYhJGRQYBFCQgZdJSRBaVnPjoU7syl0QTp0amDBQGWaL3+qDksj/0IUWCS43IWPI7/IDkOQZRQAOggAKLBIraJTQhKc8bJMmIBy/wL2cyek5lBgEUJCBgUWISRkUGARQkIGBRYhJGRQYBFCQgYFFiEkZFA/LBKcUhQFBcF/2hQATB3VQ/7VKLBIcIYGZ8CdawC9PnBPd0VlfT3h/Y+0rGlgARWKogZehaJChYqSahdM/skosEhQTOsdN2tTp7LMtGmB06Yc+UJxDOBEvmwMspRvEgpFQbCFyL8cBRYpV3XCCgCeGX/b5IG3X7s0PCzcHWgZTVNZr6zqe/due6w6r0X+2SiwSK3rd0tSBoCMS10HCX10lZAQEjIosAghIYMCixASMqgNiwT1zoI1g7KyshPNnNkTaBmvLOsNer08efrwhXVZG/n3ocAiQc2cumz2CceOFoAtyFJuAOECAL+BlZqaqu9saBanaAZvsNdiOVEXnnR5djXKJf9wFFgkqMaJsZknHI1aWLmYgMu4JBEWzuR2BJgbut3L5xY5N357jw58kFdSoEES3GlH25uTm2VVr2ryT0VtWKTe0BA00QihIyxS+xgTKzEwgNEH2d1kFgxUaF6uWp1UyT8bHWERQkIGBRYhJGRQYBFCQgYFFiEkZFBgEUJCBgUWISRkULcGUuvUc654BQIgBxtHWYUKEawkmuqsMBJyKLBIrePuaLmUTTCfYi1h/sdQBgBVYxWvx3C0iUS93ElAFFik1lnGdV0KYGmFFv68dmshoY3asAghIYMCixASMiiwCCEhgwKLEBIyKLAIISGDrhKSWjf6wfkzVn+3tT/P2QIM8QfIsmJwKSL7+ZfP90lKauWsy/pI6KDAIrXuyOHs5idPHuxwEg2DLKUAcMHlEiMAUGARvyiwSFAej5cDPJCkwMOxi/BCL+nMgR6PigorAHhYuaiA65BlBUWKAWHQyf4eV1VVDyiQZaWcihVomo6aOv6hKLBIcIrGAhpUBBsIVIUKrVbLKChwRQECChSunCUFSJIUMDxJaKPAIkG98tbtvQyGMRUKgOTk1bVWx9hnB0+9aUjSsnAuTAy2nKukxHT0RNrGWiuEXFIUWCSolJQUGUDgewDrqo5+HY8AOHKp6yCXFp3rE0JCBgUWISRkUGARQkIGBRYhJGRQYBFCQgYFFiEkZFBgEUJCBgUWISRkUGARQkIGBRYhJGRQYBFCQgYFFiEkZFBgEUJCBgUWISRkUGARQkIGjYdFal1OTn48cBZOiQmylAzAhRJJNtVVXST0UGCRWterb8c1unDFFcXxAUcLVWVV71YlNqah7mxd1kZCCwUWqXWTpw9fCGBhRZb9rt3MWq6GhDJqwyKEhAwKLEJIyKDAIoSEDGrD+ocSRTkccMAplTePnxOCUGStk6IIqSYKrH+ouISoU1dd2fWn2EhrQbDlHEV5EW3bN/3tm011VRkhhBBCCCGEEEIIIYQQQgghhBBCCCGEEEIIIYQQQgghhBBCCCH+BRtkm5CQN+6J9yZ+u3Fb/2guRvL3eL6Uy905eMCKqS/fvaCuayOVR6M1kH+0jH0nOvz+e3p3oGGAJU7hYIvWv9dpUaTKKLDIP1p0tMUJ2GDleL+POyURUdEWoY7LIlVEI44SQkIGBRYhJGRQYBFCQgYFFiEkZFBgEUJCBgUWISRkUGARQkIGBRYhJGRQYBFCQkbI9nRPTU3Vy3LUFXk5xbG55/LjdUbWGxcbfTYmLjw7JaVD5qWtbZc992x+Y0XxbV+j0SDGxEWeSklpe+pS1lUVqet3Ns9xFicAgKoqbFgkV5AYE3uqQ7crcuuqhrS0jMTsk87GXlkxAoBBr/PEN7GeSk5unVVXNVTUrm2HY7Pychu7CkSeYRjVoNd5rPERZy71PnmxX1L3Nj6Tm59wLrsg0VUimQBAbzTIjRryWfV12wKXILDWrk2/OiPj8NVheovn4sdK5GJj6ysv+33AoOt2+XtuevrRqNWrtw1P25DR/47+C65xiEICoAFQ4buPmwGgFxrZ7s65pkPzXwfcmvTFo6NvWlW778hnzqzl93y3eteQg7+fbJ2SMt4KyLzvAFYDoIEBJzRteO+ptldfvufGWzp99diYm1cGWtfHH2680eHM5zm9Sb74sRK52Ni9U+utnYOE3+tzv7pTBx0YhvX7/K5dO/yQnNzyjL/npqam6rennbt3w5rfBh3Yn9Uupd/4CEC54L0AHMKEq6546Peu17VKu2tE74W9e7c9Vv4Wqpy33/x28NqvfxmyZ//xdt2Sn0nQIPF/3auvATAIibYROVe1brKnR/923wwc2GZF69aty+xTdWHliq1JK7/6Zdiv6Yeuu67b2BZuuErvA2JKa9UJDSPvKmhxVeN9yT1bfnfrbT0+6dSpmd8ZuVPX72yevu9IUpjeXOa9SLLb2Cgh/tSwu7tvrUqdH3+48cbVX/9y+66dh5OuS5mQqEAsrfP898dXMwNOaBIzwtnyqkb7rr2+xZY+Ke3WpPTreKQqr1nT6ny0hptSXli+JvWzoUAjP4/moG3zHj/vPfJO1wv/a3r60ajZM5fOXPXlT3d6kM8DRnCIQJiBK7MGTVVRrIiQUQxAERJs9pzHnx4467lJdy2ujffz9ONvP//BextGF4rnzICeNyAc4XozWIaBVvoFZ8BAUVUUKW6ocAFQhBhLo6JR9/d++7X5j8y6eJ16DMiTcYYHIi9+dwDOYtwTE56bM/+hMs8DgG3bDsd263bXIUDPA0Y/S5zEhKcmTZj9vwdfufiRxx6a/+KSjzY9WOzJjQc4GBGOMD0Hhjn/xWPAAPB6ZRShBIALgEG4bVDPFVe3V/8zbdo0tTLbzp8Xp3zyyIL5a8Zn55/gAR2vQzgsOjN0LFtmexYrIhS4AHhh0dtyh45M+WDEiA6TU1JS/gzq4YNnvbV05drHrFyc39dzSmfx6H3DZr2z+InnKlvrxx9v6Pnay19M23PwQGtA44EwWBAGg+H8cYBvm2maBpcswosSABKM4IVbBnVeMX7SkP8mJbXOvnCdN/ea/Nm3mz+7E0jw84oOXJHQZd/hMx+2rUydb7/59eBXZn459fjpo4kAyzMIRwQbBr2O9VVYmgKa5gsERVXhUkTIcAPwADAL7Vu0yLh92PVLk1MS3rtw+9a1Om/Dio2LPAc0hJWLK/MHNIbJZBAvXH7mjM/u69pp9PHPv1zzmA56PtbUGFYuFhbOBJZlyvzp9DpEceGwmeJhMzXizzhyWzw36bW57do+vHnXtsOxNfU+1q/e0dreZPjOeW988GyJKCbEmhrxVlMcIrlw6HQsGJYBy7JgWd//1+t14DkLbKYGsJka8QXFRYmvzX9vfGL8XftXL0/r8rdtFBlVYEBCme0TY4wD0BCR0eEBb9Y1m1mPCfF8BBoE3Maqqv3tc//is5+ui7cNOfj2ex+N9njkeN82tiGCM0OnY0u3re9/GZaBkTPAykUh1tQIEeD5r1Z988gb/9t7eMeO361V3Z6/pO5t3LrlA9smT//fzOx8Z1ObqRFvM8UjmrNAr9f53Z7RXDisXBxiTY3hlbXYDz9cNnFQv3kn3lmwZtD59aqKWitnEYP6T/5o5MgXvthz8I/kGEMDPtaUACsXBY4zXLA/+raZTscikguDlbMh1tQEeuj5L1ateyQp6akDL0xY9PiF6+U4TkTAzy4eCQkxlWpWuKnvC0seG/PSB8dPn25n5RJ4m6khYrgIGAzntykDhvH9nf989aXfIStnQyzXCFFsJL/70KHkydPnv9W/15zs58Z++GyNbsxKqFeN7gxYFBS4o87/+7DBL7713KRX52oAH2dKRBjHQdW0Cq1L0zRomgabKRoxBju/Z+/+nkndR/++dtWvHapb55tzV93Z75ax2zJPnu5g4y7no00WX10VKE3TfLXxpgjEmpryWdlnW98y7Jm1L09Z+sj5ZVzFYoSu1j4aBgUFxX8OXTDnxRUPDLnr6W+zHc4WsaZmfKQprMLbWNU0GDk9Yk1NkVeQ27R3twl7U1NTKx0QK5amJXdOeWpvxsGDyVbj5bzNFPXn51fROiycCXEmOwold8Kjo6csevKxt6YAgLVB5DnfKU/N2LEjI75x/J37V61bNzCKbczbTLFgWKYS20yFmTMi1pQIIwz8S7PfmDag93Ofnn+8IL+Yr6mWmg6tHt2yZsPam6J1l/E2k++3pKLb9M96oUFv0MFmioHNlAhRzbF+s/KXO2qkwCqoV4EFMDAadF4AGH77y28tX/nVnVG6y/hoUwQUrWo7naZpYFggztQYXk22Dhg0bnN1Quv1OV8PHzN2xlsGRPBxpgbQUPEv1sV1qZqKWFMcTLDxz0+fO/ODhetvOv84W2tn6wzEEq8ZAN6cs+rOcZNfncPByseaYqFqKqrwVnzvg0tAoXQu4YWnV62tzHNXLE1LHjr8+dUAw8eZGgFM1bYnACiailgTDwvTiH/97Y+emvTsorFe0WvUoWzTQVXs3baX79N94m+nsk+2juWa8noDW+VaVU1FpCkc0Xo7v3bTd/37pjz/GQDwvMVREy01dwyYsWjX7zuuthqb8Xo9U6ZOBoAsK3BLHhRKJciTiuCSRLglCV5v2TO+v57PYdiI7ourXWAV1aurhGbWCJZl1aG3vPTu0i+/GxKtv5zX63W+0AEDj8eLQs0NoASAUvosHQAzIhAGjjP82c5xMUVTEWeyIUd08rcMmrR577a9zdp2a1upcZC+XbE96eahz7xphI2PMlmChijDMHCLElw4X+/5ugzQwYxIQzh0LAtVUxFhCgMjxvOjH1mwZPjgWcu2/bBfKCgorvLpVXn4GIuQmrrLnpLyxFscbHykyQK19L2cbx+SvF4oUKEHC6PB8Lc2JH9UqIgxNsGPu9M6fbBw/U0PPNJvTXl1pKVlJCYnj17NwsTbTNHBt+efn38JABHA+S+VASzMiNSFQa/XQdVUmDgOejmBn/HqZ6/ZTJGIMsagQoe/5bj5jlnbCsS8hFiuMdQ/9z//tcqygkKlBCrcALylj1y0r2oa9HodrGwzfkPq1htvG/DSIqdQxBsZc7Xq/HJ5Wpfbhz0zKEKXyDPM3z81lmEgyyoEOReADuGIFOKieCEyOkzIPSc0dItec6FazEMqBsCBgwUWzlz6nlQARqFL51Y/VKvAaqhXgRVuNOH4sewue44c7hJjsIHVsX9++PlKDgBjZqvEy7Ou6XTFjhhbhFNTNbawoCRq184jnfYePdq0SBLtUWwDGI36P7+AF/L9AluRK57h7xzxxkYAnSpT3/ARs1YCZj7qgi/4xViGRYkowgUHDIjO7NTqygMdOl2RzpkNbkbV2NOn8xrtSj/S6Xju0TjAaLdyNmgALKYwuEWJX7ry+8dspkgYDfoa+IqVFa6Lwpbv901Z9236FBZhOB9Wf9UtANBgBo9wIweXR4TLKwBgEa2zwmDwv20BgGUZABH8/2Z+PQ1AuYF1962zNgAabw0SVizDQpK8KNRyAJgy21ze7Fib9vbdcbFRuYqqsdln8hru2Xms05Hs4/FQYI8xxILVAXq9HtGwwOtRYDDqq3TkeKE7BsxY9PnalQk2Y9OAYcUyDBRFg9ObAwCZTRvYs9u1v3x34ya2kxrLqPmOIuuuXcc6Zhw/1rRIEu0RsMFkMgKMCqsxnl+5dtt9FpgQyUVAq8Zp7P9mr/wvYOBNBsPfTlUZhoFXlZEv5wn9eyV/N/yeXh92TIrf0rp1a8/p0muW27efNJ/JOtHuQMaJDj9uy+jx84+Hujul0/GAGTpwaBTZsKDPTR0v2Qit9SqwVE2DwaBDjBYNhvG1aQliAWQUZ942qPfqBx/pv3DAgM4HfvfTQ2T9+p3NF7+/9pFlX2wcohPN9hhTFFSt7I6laiqsxoY4kPlb02nPf/L41JfveaMitd1x08vvf77mK3Ms1zRIWOmQK+YCMGQ++uCd740YdcP711/fLifdz8e79OPU5PnzVz75c/qvncKZOHsYx4HjDDBqeqjqX1dualq4wYRDh09BgQqbKQoaNKiKBqd8GgZECcNu77/spn7Xrmraqsk+nS5cUJTC2OOHs1ss//SH+77dtKW/SYngI0zhfreBpmmIZHnsyzzUdOPGna369Am8Yz/+0FsvvvHe+3E2Y/Og4Z8rCgDkzLvvGrhs5PDeH904sNPB/cfLLrtixdakt15f/fgPP/6YzHlj7JEm38UP6CrfbnMx3xHL04Oi9Ik8WNXvwRrLsCgSSyBCyOzetfNPY8bc+vrQu7vvOPZd2WXXr9/Z/IP31j72+ZebbysW9XabKQZgFPBGCwBUK6y2bz9pvqHrY0km8GXa1VRFQ77XKYx74u5X5sx/ZNa6zS+XeX7Xrk3cAH4u/Xt76tSpbKRx+MiPl2x6YM/BTa0TEvtlnt5f5fKqrV4F1nkM4/vyO0QnGOgzP3z3hYfuf7jfpq9W/Tfgc/r5+omM+/jjjaseHDlvSa6Ya48zxULxE1oMCxgRx78yc8VUAOUG1rZNe5t26z36NgvbmFcD7Ey+sDqDJg2a/PzxsnF3paR0yHzn/cDrHD4yJQ1A2uSJix59cdb7E2Qx2h5pCkeg9dcURVMRxv3VplMolkBCvnD7LX2/mPDC0OeSklo5l3/5t6dklf5tfGfB6kGPjv7fIr2X5U0Gk98gMBp0gCTy61f/OhiA38CaOnUq+/K01aM5xPNg/V+sYMEiV3QgJizqwDuLnx41dGj3HZ9+Fvh9DR3afQeAEXNnfTF07MQFswVRtseYoqrc9nmh555Z9A5g4Y16nd/GdR3DIk8shAx35pxZT08YN3HIiq3b5wZcX+m++szKlT8ueeDuVz/NLTl3VaypARgm8GlmRR0/eLirB0V8NFu2RaHAW4QrGzXLmuOnK00gpV1VFgNYPGXK4sesEdEFv46r0G98rahnje4+LMOgQCyABmRu2PRKr/sf7repos8dObJP2nfrX+pjZI3H8sUCsEzZt6hpGiKNEXBpp9nJz340trx1zn3l62mAzJuNBv/1gkWumIPGcQk71n8/6YbK9Gp+cdaod+bOenqChPxM0SuV9nmqfSzDolByQUKR8MqMJ8d+uXrqw0lJrZzBnvPo6FtWTRp778vFilPw8zsAAKXtXAbs+e1YUqD1OE7GvuhFHh9hDPcbeizDwiHlIdoUcXDzj3OvLw2jChk7cciKpR9PGSFDzCz2uKu9PZcs2tznj1MHEnm91W9YMQyDYo8bMtyZH7836YFxE4esqOi6Bw++fveGNbNuiDJFHnSKeX731co6dcaRCIjQGcquS4EHjZs0qHIP9unT73v7yXG3Lq1WgdVULwPLKyvwoDDzg4XjH6lKL+qUfh2PfPTR8yM8KMyU5AB93FgNDHh+2adb7gu2rqlTp7LrN+y4yQRb4B3WWwIGbObXy6ffVJXe1mMnDlkx+oG7PihScjJr4ICgQjyyF6LmEN6c+8x/xk8auriiz5sx995Xm9ia5RR6iwIuwyIcRw9nXxno8eVLt92nQww01v+pmih7oEHK/OSLF+7o0OHy/IrWdt7wkSlp0yc/+mKJmpupVnN7fvzextGAntfp/D+uKECJ6sicOvHBmSMf6vt9ZdffKaWF48uvpt2uwpPp9krVvkAoSTIHqH6D2sxY8Muu/ddkZGT461EcEupdYLEMg3zZgX7deqQ98EjfDVVdz10juv90S88+3xfK50r7Z/+dpgERuggcPnu08fr1O1oHWk+MpcOdbjh5i9Hk93FNBdxqbubEJ++e1ymlhaOq9S74YMxLl8U2yynw+L1jo0YxGosC+ZwwfPDgZWPGDlpW2ecPvCVppReugI+bYcC5XCF++/aTZS53fbYktYdDPGmO1If7PRVkwKBIPof7hw1edvPN11a5tWTKi3d92Omqaw4IHmeVj7IyMjKMW3860N0M3u8FEIZhIHidaHdl+z+mzRrxblVr7T2gw4H7hw1aVqycA6NWL7FscZE5gBGKUjapw40mlEglCUMGzduyd9te/9MI1XP1LrA8XgUAm/ns1MFTq7uu8dPvmgwYM0Wv1+/jRoMegMRv25RxY6B1/LBp942AIeDRQLHHBWtYk5KZr98/v7r1PvnM7a/JKMpktNo9LSzyuhATFu9aunLif6ry/M5drtwKaAEvDOgYFhI8vOwSykwGuGXT3v4AeJ3e/67nkiSYEJ3ZpGXBpKrUdqHxE4fM1CBm+vvyVsS2HzL7S8jjTXr/TQGaqgEQM58Zd8fsapQJABjxaIfJJvCZLo/f+V4rrGXrRruAMMHrLXvOrkGDjYvF70eOdOl6w+TDTz721pTU1F32ar1gHat3gVWgFKFts1bHeve+tto31CYntzyT1Kbt/mK10O/jvvYTM9J/Pdw50DoOHjh1NWAK2I1HQgEGDOhcqc6SgYydOHhFtClBLPa6a2J1AUlaIYbekVLltogmTRoeAzjIXv9BcP6OP69XKvNN3/nbkSQgLOCVOzfy0bNHpx9q4r7EoSNT0prENMsr9AY+Ggxm969HuwAyWJ3/ZC7wuNAo+vL8kQ/1rPSp4MVSUlLknj06/eBG9aZITEnpkHmZLT7HhWK/R5YqFMSZ4uBVZevrby+Z1ivluZ3tWj627YF75s1ZtOi7Pjt2ZMRXq4BaVu8CCyhBjz5tN9bU2nr0arMZcAfph2NA1rGcK/w9kpZ2MOL0aWeiOUBPaVXVAOjRo0/rGqu3y7Ut0kWtal+wCindiW/o3WZdVVdhsyDHwkbAo/g/cgVKx85gdGV+5k9nOe06BDhi0TQAXnTv2WZzVWu7WHL31lsVlFTpuceOZjdHkF7yMkpw3XWt0qpa28VS+ly9EVCr3Q3jnvt6vqshTwjUHqpoKiI4M6xcI1gYE7/n4B/JH3zy5bOjRs3Y0C1p/IEu7Z/Y8MwTb09MS8tIrFYhtaBeBZbvc1LRtv3lu2tqnW3aX7YXMEEN0PpqhAH5ecXWqVOnltkWnqKihEK10GrS+2+jVBQFeoSjZZtGNVbvVe3se/7qxV3zZK8MHcyIbxydWdV16GJ0LrPRCKWSXTB2pGbEC4XFUaYAvWl8R2wWXH114xrr6dPq6sv2+UYcqLzss47GwQILkNH+mma/Va2yslp3uGw3EO63/akyZrw6am7DyBYFTk9OuVceDUY9rBwPKxcPqzEOBuj5n3fv7/Pa/I9nJic/sbtXt2c/X7ly2zXVKqgG1avAUmQFgBkN4qJyamqd1rjoUwyMQQJLhwKXK/GmHkPLjD9yzlHcEFAQ6DP3qDKiufCDHk9eXk3VGxcXlV0Tt5EEoigKDOBgMJQdb6miZFk2qJrq92JGMAUlEl8Ckdex/i+5KZoCE8yZtoS4Ghtfq0miNRPQlx4NV07uuaJ4Q9CuiiriG0f5HVesKnjekq2DrrRtrHo+Xf5cP0ATHKJQ8e4SDMBxBli5GMSamiASEfzmbb8MGTx4/MaU7uM/rw8N9fUqsGRVgRFmWPjwGgus8m57ZcHCCxkueMpcBixxe8zBrjN7IMMaG+moyfGBGsZbs2tydIGLMWCgQYXX66n7z97oqyAQDb4fkM6dr/Df6FiVlzTqZEBfpdMsSfKaAo2aIZf+uMbF8lW+Mnyx9etX5FvDIuDRqr879ezf9tDnS2bcBkDIFc9AU1Gpq6WqpsLA6RFrikcUE8+nbt06pFOP8YeWf7q1e7WLq4Z6FVhA6ViSsq7G6pJ1erWqnVt0mha0DgYMFFmp0bsFZO0SBEmdKj84/J2eVxXDsFVO/2Ah5/vyq3C7vTX2+ffo0YNVNa3Gxum4Y4Y6Y18AABR/SURBVES3H35Ofa1th6vabM3zZgoOMQ+qrFXqyFjVNOiNOsSZEuFR5Nhhd0/8eumiH/rUUImVVq++HAadDl64kF0g+B8esgpU0WsM9iVRoMLEcM7wcFOZnpCWyDDh/KiR/nDQIze3wFaTHfFyzxTG17OPpc4wACR47X373marqXW63e4wwFulvlhhYVyJHOBoV6djAbiRJ7hqrNaIiIToPHcxjEzN/QZ2Tml7ateBd26YO2fCf660N/lNULIFh3QG+VIxZK9S4e3iG+0kBiws/PBR05Zvq8HBMCujXn0zdHodABFnMp01dnUiMzO3uQY3dAG6KnsgIzIirMjfbSlW3pID6KEGaAQ1sHoUKiXNc3KUGgvYE6dyEi/ByNV1IirKnBPJhjll1f99PTqWhQQ3zp4tqrnP/7ijKSCXjiRROfHx/BkZga+EAnqcPpVbY7WePOlorEIGqlBrecaOu2PZH5mLOy1Z8t/bhtzab2GjGNuRAjVfcIgn4ZQcyJdcvmGcggSYoqmwmqIBSPzEx9/5NOCCtage3vxswM7fDl8L4KuaWNueXUeuAbwBd1gvvLDGRWaf9tNqEteEy4oxRme7PGK8RV+2pzurY6GpJdi/+0QnADUyI87uX49d638s9tCXlNTKmcjfI5wWnFZ/XUX0ej3gcWFf+vGOANJr4jX378zsAPi/S6E88Qkxp3AoWEdOA3b9cvRaAO9U6QUusu/XY52AYuh0UeUvXEUjRvT5AcAPAPDNN7+027/3RIftP2T02rn76DWnck/GAzJvRgwsnNnvjfiqpsLCxOHH3b918g0KUPMTkARTr46wAN99aFs37+tZU+vbsmF/bxYRQZbwoEWrxhn+HmndurWnSWJspgTR38N/huB3q3cMrHah8N0Ksnf/kTZhTHhNrK5eanZF/CEF/kPA9+NuQuqGPQHvPKisrWn7kg2wVOm5Ta9s+AcC1AoARiYcP/+SEfAm78r6fsO+GwFjrQ0tdLGBAzvveW7S0MWrN04bcSr3k6tWrpzd577ht84FC2eulA0GjN8jLpNBD8DNr/02fUjdVPqXehdY0YZwHMs5HPfFkq3XVXdd33y1vePBswcSInT+d1hf46OIa7tcGbDzX7trLv8VEAMeKpvBY1Nqes+aaChe9mH6gy7V2TTcWDND+tZHHTtf8RNQEnB7WthobNu5s2N6+qFqtw3Nm/31EGfJybBIY9VG8Ox6fcstACeosv820EhjGBwlpyzzX/262l/c9PRDti3p6Z3CmUvXc2Dw4C6/LV467pkNW2Zc0a3LNd84pBy/nU99d47pkHUyp847lta7wGJ1LFiY7NOnfTKtuuuaOumTFwGj3WDw335V4vEAiBD6dO8QcHTMPv2u+QbQBFXxv9OGGzmIKLAf3W+ZU91633j768c4hodai/2wLrUefduvAQyC1+O/HctkMECDZP/v+KXVvj9v3pwvJugRaWeq2CY0fGTP7yN1Ntml+D/CBjQYEGl/9ZXPx1W9Sp//jvtktgbJHmgIo7rUrVtbYdvP825p1igxq9ATaFSO2psmJZh6F1iapoE3WrH3yN7mz47+oNyxqgKZOnHJwzt//+2qGEOs38vTDMOgRMtHlzZt9gSbxXjEqF4bbaZG7oD3o7EaInRx+OTLr29b9UVapYZcvlD/lEkf5JdkWyKNVTt9CRUDB3be0zz+yjNFaqHfoywNGqL0DfDt9xt7frBwQ9+qvs5Dd//vxSzHUVu0Mbpat7r0ubHjGg8EsH5rBaKM0cjKORZ3//C5M6r6GosXbuj7beqmnpH6BkHHza9rN998/SovAo0eoiJgj+paVO8CC/BtB4suzv7qgg8fnzf7y0ofbr+zYE2/abPefc6ii7MH6FQNRdYAlAgPjukbeGjIUsOGd18sIy/gMDUmgxF6hNtvv+Ol5Zs27W1a2Xr/8/AbE9elbu7JGxLstT3iaH0w4v6eb6sQAt7rZtTrYWKi7Q88MnPh8k9Su/hfKrAZ05eNfO/TFfdE6hvYUfVuWACAh57o+ypgEAKPq6YiSh9v/3DpiuFTJy55uLLrX7Pyx/b3PTJzIcdE2zl99a+B7diREd+x7WOba6KDp+iSwgJHhIz4hnyN9fKvqHoZWJqmwWwwwYRo+9MT5s0Z8+gb4yv63LGPL3zq0dGz3uYQYQ8LMIwvyzAQ5Dwk2lrmPPjogG/KW6etSe5kPaKEQinAHfCaihgTD1mTm/btPW7zvFcrHrKDB/739bfe/fSRKF28XV9z/WXrtakv370gyniZVOApCLg9IzkLWBjsw+6Z/tms6cvvqei6Hxo1d8qkKfOnmZkYO6c3VnvyiX79kjJuSOr8U6Hs/748TQOMegPC2Vj7tFlvPffAvXMr3JQxZ8bnd940ePJKFgZ7FBcZcGz7yjhy8NxVO/em9hx29/Nf35jy/PIvL5qktzJWrf3xViNT9oqlr02PEzp0bPZzdWqtinr7DfFNfxWOCMZqf/OdpY81bzjqxxlTl4701xibnn7INmPqspHNGt7349w3Fj8ZDt4eGWAaLoYBPF4ZQJEwa+6oCo0HNW3aNHXcU3fO8iBbCNCFCIqmIM4UAx109qeffW1O1/ZPrfxg4dq+/iYWTduYkTj+6ffHxEUO3bPymw23xBga2Y2lM5zIslLtu/VDwbTp90yQ4RCUAG2DiqbCZooGhzD7xCn/e7Fjq9Fr3ntz3QB/nXR//HFP3Iypn953eYN7t7+36PNRkWyc3cKFQYMGr1eBqgYeu6si/jv7rjEAK7g8/i++qJqKMKMZUboG9g8++nzkZbH3/DJ98if3p6eW3VdTU1P17725bkBSmzHfjJs0b6YRZrvNFA0VKhTF91fZezQv9MuPB28AeETpY/nvUrcNvX3Y5LVJbR5PffnFZQ9UdGbuPXv2hF+f9NS32XnnrJGGslesXYqICNaqDh9V/WF1Kqve9cNiGQZu0QOWZWE0MuA4A0xaY/uRs6ftk6YtuO7labbMNs0ePtYwPuYMw7LIPpMXf0On8c1dcNiBcNi4xgCDwL9WKosC5bhwW/9bvxk+suIbfOb/7n+lddOHbs84diAplmvkt4+KoqmIMoVDVc327bv32Lc/8tutseaGBzq2GJ0V3zAm21XiDss+K8T36PNsooxCuwFR8M1xpwJgUCKJEOGBzRhZpZt1Q8lTE2/7+PpOz9z5Y3palziTnfc3WYhSOmejRTPbd/7+u/2hMXsHWLkGB5PajDkSG8fnyLKizz4rxPe+fvKVbjjtDCyI5Zr8OeuMS3RDgYqYsAh4PUqV++OmpHTIfPqRd9+Yt/Dtx01qM55lUebITdVUGPQGxOob27Nyc+1TXnw7aeaLKzLbX/HYHw0a8tl6vU7OzSmIG9JvQXOndK4lYECMMQEsy0CFBllRkC8XI1pvqVYrVvovR7oCYdDrdIjVx8MrK/yO/Rk9duz/rcf0yTFzurR9atc1Sc1/bnVV4p7YBtHZsTHR54wROndublHsmZO5l6d9v693cscptxUpBbGxXIMyM/iwYOGBA0MGDV6xdOXKalRaNfUusGRVRXR0OM7mC1AlI8ycESo0WLlIMEwUSkTJvv/ocfv+o0dKn6FDGMywmRJ805sj8JTxLFjkek4JLS+7+thX6ybfW9naPloxsW9y58cP50q5sbGmOL/TiJ3vLWwz2aCqGgrdrqt2HhKuwiEZvgNaPSJgAldarwrfnIBOMR8NLHzWf566c9a7C9aOFfKLm3P14IpRbfox/bUBtqjbjuYUZPOxpviA2xMAbCYrNFVDseRuuWP/wZa+iXQZ+CYD/evzP789C8UiADph/IRh01Z8smXU6dOOdiau6h1y5y18eOoNXZ7tsOXnH5Ktxst5MGV3stK9DzFcBBgmEiWiZN99+IgdhxX4dkodOHCwcg3AMH/NxuxVFBR4zwkTnrjvlQMHsq5eu2nH8GguWN/BwPbvP9HeWNpRVtU06HQsrLqY8xP78j/v3d/z573pPX1DGPnmGtRDBwkSABcAA8yIgm//viisGAb5YiFYRAj/eebWCUtXTqxSjdVR704JBU8e7h6Z8tz8ef+5o1jLEQpE159tB5qmwcwZYeWiYOViSv+iYOaM5d+oqjHIlTKFpk2aZR48sbhKV/M6dWpWsG7NnOtMjMmZK54FG2Tz+YILsHDm0nqtpeMORcBYOusvcH7uPSdUuIVFXzwzYPJLd78tCMVWf1/ef6Kv17zcLdxgyc4VT4MBG/B0SNM04M/tGV26PX2fv+mCz1/HsHCIBZCQK7y/6OlhL82+9/WCfBfvrYExxrb8/Ootba5o/7vTkyloavDbWMruq1ZYuWhYOPOfj7MMC7coocB7XHj4vmELZ89/aJZep5MDdawtz7tvrhtcIB/RW3TmMttR0zSYOGPptouHlWuMKF00zKWBFclaEGNsBBsXhzCO8xNWLEo8ErzIEV6f8+SY5OSWgWchqUX1LrAAL2RF0Y9+euAXr8wY+5QHxUKu6BtxpSrn9izDwCW64fQcFTq26bDn2MklHatTXUq/1kfWrXu1S0yU7ViudFyozA2kF2IYBrJXRa6YhTBT2JkvPpt9c79+SRkAwHF6t1KPLm/XpuTklmdSN7zSwd7wsn0O6ZggeTx+uxCUh2EYqIqGHPE0NMjC++9Mv3fEqF4bAUAtZ9SNyth/+P3re3W/YXOe97hQLJZUaWouBgwYjUGumAsXsoXHH3pgwbuLn3gOANyiJ/B43OVo3CQqM9Zmz8lTTggOqaDc74xer/M1uXBGGAx6MIz/V/adARTApZ4SJj375EuPjxt4yab6qoeBxUJwungAGD/pjo/XrprVq+UVzX9yeo8LDskBRfY/hVGZtTAM3JIHueJpuFEkPHz/PQt37l+YUhMVpvRrfSSv4KtmN/fts6ZAPSM4xGx4PRULLoZhIEleOMRsFKinhJ7J3Vbu3DSn5ZC7rvvp/DKqClaCCLck/f3PIwGQ4JXlgOc2breLFSHBDans8yXff5cgwWCo+iXJoiKOdUsSxECvoUmQIUHTlACdSv4uKaV1dubZT9veefugpUVarpArnoVHkisUXAzDwOtR4BBzIMgnhE4dO3yXlja//YVXfy0Wc5EHJX5rBSR4PN5KnStu3vrqHROeHf2SCFHIFbNQIvnmkyyvXIZhoKkaHFI+HJ5MoUnDhvuWLJo57I33xkw+vwxnMMiAK2CtkugN2G1/wKDrduU6VrWc8vzoyQk2/pDTmyU4pByUSNKfr19hTGlfRUlCrngCDFThtVkvPDXj1XvL7QZUm+phYAE6/V+dZwYMum7XwcMfXv/arPFPtLmy+U/5ikNwiKfglPKQLxXDJYnweGRIkhfFkht5UhGckgO5YhZEiMLAAb0Wp66fl/Tuh2Ofq+k6v93w8ojPPptzc3KXDt8UasKfdQlSMUr+VpdYWpcTDvEkiuESul3XadXSpbNv+T5tzm0tLzq8DgvjSgDf1aKL/wE0QVf+CH+Cv+f+tY7qzXQQESGpACMg6GtoQvnDJ/7dsi8nj1m5cnafHslJK4tQJOSKJ+GUnBCkIpRIEjweGR6PjBJJgiAVwynlwSGeQqEmCNe2v3rjB+9Ovzt955v9kpNb/22y0DCzsQTQAm2LKrXFz371gbm/pM5rO+iWG99TIAsO8SQcYi6cUqFvn5S88HpliJIHBZILTkmAQzyDPG+2kBjfIGPalCcmnTy7tO35o8DzIqPNAsD4/fwAQGPL76g3/eX7FpxxLG+5YMELo2647tpVYBmnUzoNh5gNp5SPIqkEkuT988LO+dNpVVUhSh4IUhGcogMOMQsyFOHOIYMWbN8x/4pnJt72cRU2VY2q83FM7hv2yvzFy1c/buX8T87hlHLw0D2DX33vk6f93u6watVPHVJT9/fZ+dMf3bOycu3F+W6+SHQlsGARER6WFWWzOJvZGxy+oe/V63r1af9NebMZ15Tv1/3a4rsf9vT7OfVgn5MnHYn5zuLYYo87ngWDSLP5VJQtPPeyJvFZ3Xq3Wdc9pe2alJS2AUd3SE8/GiWK3nBN0/1tbBOO8+g8Hhgv/kJeLC3tYILRq6iS3limIYyTPTqPQccmJ7esVqe/bdsOxzKMYri4xpp6jbS0jMT1a38d+NMPv/c5cSLHnpdT2MDlFeMBDRZjWHa0zZLbpLEtq0v3Vt/36NV2Tf/+1x4KvK6DEQavJ8qjN5dpHGIYj3njxhWnqjNLT1rawYif0g4M3rJxV/+jR89e4cjOb1gsigkyFJhgFKy2yJz4hJjTV3e6fEefXh3XDbu7+9by3rumGctMnWSU3ZzXYCyobPvRnj17wtO2ZPXfvi2j+6GMU+1On3Im5hUWR4lw8b7Gdxa+30ADwmER4htFZ7W4ssmhHr3brut54zUrO3VqVvuTZVZQyAXWxbZvP2kWRcFqMBhVnlccVZl5uTbs2bMnvKhIbzV4FdUSp8upL3WFKl+Ii6W9GHXCpWr0rYjt20+aWVGwlkDRR+strmC3fl0qaWkHEwShIFZ2q5zBwCher6bjLAZ3w4io7PpY73n1rltDZXXt2sSNGhqLqia1a9fOBQSZHplUSumvfL35pQ+mvu6TFyo9+q3zW2uqq162YRFCiD8UWISQkEGBRQgJGRRYhJCQQYFFCAkZFFiEkJBBgUUICRkUWISQkEGBRQgJGRRYhJCQQYFFCAkZdX4vYU52fgPgDJxSoPuuzyI3p8D/ndGEkH+1Og+sHn3br/MY3HKkkfc7ekGhJ9/YrWeb777eUNeVEUIIIYQQQgghhBBCCCGEEEIIIYQQQgghhBBCCCGEEEIIIYQQQgghhBBCCCGEEEIIIYQQQgghhBBCCCGEEEIIIYQQQgghhBBCCCGEEEIIIYQQQgghhBBCCCGEEEIIIYQQQgghhBBCCCGEEEIIIYQQQgghhBBCCCGEEEIIIYQQQgghhBBCCCGEEEIIIYQQQgghhBBCCCGEEEIIIYQQQgghhBBCCCGEEEIIIYQQQgghhBBCCCGEEEJIdfwfBvk6K30S1VgAAAAASUVORK5CYII=;" vertex="1" parent="1">
          <mxGeometry x="330" y="540" width="300" height="300" as="geometry" />
        </mxCell>
        <mxCell id="2dzBc5fqnoKYE4eSqqUL-7" value="" style="shape=image;verticalLabelPosition=bottom;labelBackgroundColor=default;verticalAlign=top;aspect=fixed;imageAspect=0;image=data:image/png,iVBORw0KGgoAAAANSUhEUgAABxQAAAK8CAYAAADGYookAAAACXBIWXMAACxLAAAsSwGlPZapAAAAAXNSR0IArs4c6QAAAARnQU1BAACxjwv8YQUAAOZCSURBVHgB7P17mFx3fef7fn5V3WpZbUstfJFvoBIDsYUvapHElmCwSpAhmXmMVDIj58KzrRbnbM88JwySmZPkkJ2gVuY5mZnwPLG8j/c5CX9ELc8wmT1O3CWHwJ4bKmfnBAMJajk4MSSDyoBtMAaVJCR1d11++/errrJbstSXVVXrVu/X85RWd6u6u3rVWqtW/T7r+/1JAAAAAAAAAAAAAAAAAAAAAAAAAAAAAAAAAAAAAAAAAAAAAAAAAAAAAAAAAAAAAAAAAAAAABAhs5w7f/enc6PKatR/bKXyQvcdWOD/b3q2XBYAAAAAAAAAAACA2FtSoPjy1rfva8iOuw9H1EOXCymNUcX9R+Wir8l9bsxFX2s0Gi/O/zxrdKphdfpKP9vUVclm537u9EpVNpTKFQEAACBejh8f0bnBgozNNT/PmJNS9Rlt3VwWAAAAAAAAQrFooPjSe95+wNpmmNg35oeP5uKPXw8ym2GlbVTm36fhwk/TCj/nB5ZUZAIAAATw7F/vU0Pj7vzrMhe1mXFtveOgAAAAAAAA0HMLBor9GCb2WMVKF4WQ7ZDy0oByfjjZbh9LMAkAAPrGl54/LNmxRe41pa13bhYAAAAAAAB66oqB4sl8bmRgxhx3d8gJihP7Rhg5tzSm3A4k261eX79PXZXqsMq0dAUAAImxtDBxTsMe1HvvGhcAAAAAAAB65oqB4re35goZmUkhTZoVkpcLIudXRfqKSOaVBAAAkfjy8wdcSDi+jO+oaGV1gzZv5rwFAAAAAACgRwau9B8uWBpdfIZFJMyIe0r9HEQ5/4m1du4pNnNPdKb5sVR3i8EZ6btbNzSrIS8KIBuNF+dXQVIBCQAAumb5YaI3onPZgltOCAAAAAAAAD0xIGABrZa3/jYXQLrwsdH6j2YMObBw+Og/J3gEAACLChYmzjEmJwAAAAAAAPTMQhWKFSoUsRyXCx9bX79s8OhulYbMi1k1TtakF9vtVm96tlwWAADoH52EiQAAAAAAAOi5KwaK1as04QKgRwV0WTt4tM2PrVyoeFG71TeFjtae8G1W61YnfKXjrV8tTwkAAKQDYSIAAAAAAEDsLViD+J2tuUNGZp+A+PGtU6cIHAEASLBuhYkNe1DvvWtcAAAAAAAA6IkF51CsDWl8cFbbZDUqIF5G3C3frHI0ptBoLtXcon2Fo4vKp9x2W7EyJ9otVTM1lQkbAQCICSoTAQAAAAAAEmPRWRJP5nMjg7PmGKEi0qLdTrUdNlLZCABAyLodJtYbe/UP754QAAAAAAAAemLRQNEjVETfMJoyVuWGzItWjZL7uFJbqakNpXJFAACgc72oTCRQBAAAAAAA6KklBYoeoSL6XHPOxvlVjQSNAAAsU6/anBIoAgAAAAAA9NSSA8W2b2/JTWSM2SMA3utBY7ui8a3PlksCAAAX+/LX96ihCfUCgSIAAAAAAEBPLTtQ9AgVgUW0W6dae8J9VqKaEQDQ13oZJnoEigAAAAAAAD0VKFD0CBWBZbuomjFTU/nWr5anBABAmvU6TPQIFAEAAAAAAHoqcKDoESoCHSNkBACkVxhhokegCAAAAAAA0FMdBYoeoSLQdXMho7XPWKOp+pBKtEsFACROWGGiZ0xBW+44KgAAAAAAAPREx4Gi950tuXFjzAEB6AkrlTMuZDSypbrVibc+Wy4JAIC4+vPjo8oOHldYana73ndXSQAAAAAAAOiJrgSKHqEiELpSu1UqVYwAgNjwYWJm4JiMGVFYCBQBAAAAAAB6qmuBokeoCETI+ApGM5UxjZLqeuamZ8tlAQAQpijCRI9AEQAAAAAAoKe6Gih6hIpAPLTbpGYytlif1Ylbv1qeEgAAvRJVmOgRKAIAAAAAAPRU1wNFj1ARiJ9mwGhMiQpGAEDXRRkmegSKAAAAAAAAPdWTQNEjVATirR0w1m3jKHMwAgAC+9LxnOzA8cjCRI9AEQAAAAAAoKd6Fih6hIpAghhNWWuekW0U3/psuSQAABbjw0QNHnMf5RSlrDbrnjtp7Q0AAAAAANAjPQ0UPUJFIJEq7uBQ8vMv0h4VAHBZcQkTm6obtHVzWQAAAAAAAOiJngeKHqEikHBULwIA5otVmOgRKAIAAAAAAPRSKIGiR6gIpEbF7cvFjGmUpgd1lLkXAaDPxC5M9AgUAQAAAAAAeim0QNH77tbcfvcrHxWANCllM3aC1qgA0AdiGSZ6BIoAAAAAAAC9FGqg6H17S24sY8xhAUgfo6mMtRPG6ijhIgCkTGzDRI9AEQAAAAAAoJdCDxQ9QkWgDxAuAkB6xDpMdLbeGck5LQAAAAAAQL+IbPCFUBHoI4SLAJBccQ8TPQJFAAAAAACAnop08IVQEehDLlzMGnuIORcBIAGSECZ6BIoAAAAAAAA9Ffngy3d/OjeqAeMHqkYEoN+Ushk7MT2ooxtK5YoAAPFx/PiIpgePK+5hokegCAAAAAAA0FOxGHwhVARgjJloNBpH3vpsuSQAQLTmwkR/bjaqJCBQBAAAAAAA6KnYDL4QKgLwrFTOGFPKNBoHaYkKABFIWpgoVVyguFYAAAAAAADomVhdzU2oCOASzZaoN/3/y0cEAOi95IWJXtkFihsEAAAAAACAnoldeyhCRQCXomoRAEKQzDDRI1AEAAAAAADosYxi5tavlqey1m72AYIAQM0rH3LW2rG6MSe/u3XDsVfem9sjAEB3JTNMBAAAAAAAQAhiV6HY9sqWXK5mzDEfJAgALkHVIgB00ZeeP+yOrGNKJioUAQAAAAAAeix2FYptPiAYsHY7lYoALmd+1eJL73n74e9syeUFAFi+ZIeJXlkAAAAAAADoqdgGih6hIoCl8MGiMebYd7ZuOEk7VABYhuSHiQAAAAAAAAhBbFuezkf7UwDL4S9CGMjYcdX1DO1QAeAK0hMmlrT1zu0CAAAAAABAz8S6QrGNSkUAy+EvPqg3zIS/EMG3Q/UXJQgA8IZnv/4olYkAAAAAAABYqkQEih6hIoDlunSeRYJFAHC+/PwBWe0XAAAAAAAAsESJCRQ9QkUAQREsAoDmwsSGHVe6lAUAAAAAAICeSlSg6BEqAugEwSKAvpXOMBEAAAAAAAAhSFyg6BEqAugUwSKAvkKYCAAAAAAAgA4kMlD02qGijKYEAAERLAJIvbSHiVanBQAAAAAAgJ5KbKDo+VCxuoJQEUDnCBYBpFI/VCZaWxEAAAAAAAB6KtGBorehVK4QKgLolnnB4gGCRQCJRptTAAAAAAAAdEniA0WPUBFAt7lgcbxmzLFX3pvbIwBIGsJEAAAAAAAAdFEqAkWPUBFAtxkpV2+Yie9s3XCSYBFAYvRbmGgMLU8BAAAAAAB6LDWBoudDxVv/4uTmhrVHBABd0g4WmV8RQOz1Y2Vio0GgCAAAAAAA0GOpChTb3vZseYxQEUC3zZ9f8WQ+NyIAiJMvf30PbU4BAAAAAADQC6kMFD1CRQC94udXHJgxx2mDCiA2mmGiJgQAAAAAAAD0QGoDRY9QEUCv0AYVQGz0e5hoTVkAAAAAAADoqVQHih6hIoBearVBPe7boAoAwkZlIgAAAAAAAEKQ+kDR86GiG/Q/KADojRHfBvU7WzecpFoRQGgIEwEAAAAAABCSvggUvbc+Wx4nVATQS802qMacpFoRQM/9+fFRwkQAAAAAAACExajPfGdLbtwYw2A/gJ6yUnnA2u03PVsuCwC6yYeJmYFjMmZEcKobtHVzWQAAAAAAAOiZvqlQbKNSEUAYqFYE0BOEiQAAAAAAAIhA31UotlGpCCAsVCsC6ArCxCugQhEAAAAAAKDX+q5CsY1KRQBhaVUrHn/lvbk9AoAgCBOvjDARAAAAAACg5/q2QrGNSkUAYXLHm4nZFY1HNpTKFQHAUnzpeE4aPOY+yglvtvXOvj+fBQAAAAAA6LW+rVBso1IRQJjc8WZsYMYcf2VLLicAWAxhIgAAAAAAAGKg7wNFj1ARQJhaLVBPfndrbr8A4EoIE5eCam8AAAAAAIAQECi2ECoCCJ959Ltb3/6oAOBShIlLRaAIAAAAAAAQAuacucS3t+TGMsYcFgCExErlAWu33/RsuSwAIExcjrK23rlBAAAAAAAA6CkqFC/xtmfLEw1r9woAQuJboNaMOfbdn86NCkB/I0xcrrIAAAAAAADQcwSKl0GoCCBsPlTUgDn+0nvefkAA+hNhIgAAAAAAAGKKQPEKCBUBRMFaO06oCPQhwkQAAAAAAADEGIHiAggVAUShGSpu3TB5Mp8bEYD0I0wMztrTAgAAAAAAQM8RKC7Ch4qq2c3uw4oAICRWKgzMmOOvbMnlBCC9CBM7Y8wpAQAAAAAAoOcIFJfg1q+Wp1youF2EigBC5OdVrBlzjFARSKnjx0cIEwEAAAAAAJAEBIpLRKgIIArtUPG7P50bFYD08GHiNGFixxr2RQEAAAAAAKDnCBSXgVARQBR8qKgBQkUgNd4IE9mnAQAAAAAAkAgEistEqAggIiMuVDz+ynv/wR4BSC7CRAAAAAAAACQQgWIAPlTMWrvZSmUBQIjqjcYEoSKQUISJ3WdtWQAAAAAAAOg5AsWAbnq2XB6wdjuhIoCwESoCCUWYCAAAAAAAgIQiUOwAoSKAqBAqAgnzpecPizCx+6wpCwAAAAAAAD1HoNghQkUAUfGh4g//yd0HBCDemmGiHRMAAAAAAACQUASKXUCoCCAqM2fPj58bez+hIhBXhIkAAAAAAABIAQLFLiFUBBCFRq2u0//j2+MzD/8TQkUgbggTe2+gVhYAAAAAAAB6jkCxiwgVAUTBh4o/+ua3CBWBOHn2648SJgIAAAAAACAtCBS7jFARQBTqMzPNULH68QKhIhC1Lz9/QFb7hd5bqYoAAAAAAADQcwSKPUCoCCAKPlQ8861vj9tffZBQEYiKDxMbdlwIx+bNBIoAAAAAAAAhIFDsEUJFAFG48MNTOvviy4SKQBQIEwEAAAAAAJBSBIo95EPF2pDdLKMpAUBIznz7JZ3//muEikCYCBOjUBYAAAAAAABCQaDYYxtK5Up1hd1OqAggTKe/9W3VL8wSKgJhIEwEAAAAAABAyhEohoBQEUDYGrW6fvDXL8hW64SKQC8RJkapLAAAAAAAAISCQDEkhIoAwlafmdGZb78sWeNCxZ9/VAC6izARAAAAAAAAfYJAMUSEigDC9uOXv6fzr/7AhYrab3/l5w8LQHcQJkbP2tMCAAAAAABAKAgUQ+ZDxVv/4uTmhrVHBAAhaM6nOD3jPxwjVAS6gDAxHow5JQAAAAAAAISCQDEib3u2PEaoCCAMfj7FU393sv0poSLQCcLE+LCiQhEAAAAAACAkBIoRIlQEEJaZ02d07uXvtT8lVASC+PLX9xAmxoi1FQEAAAAAACAUBIoRI1QEEJYz336p3frUc6Hig8ft/sKIACyuGSZqQogPYwgUAQAAAAAAQkKgGAM+VLSyjwkAeuiS1qeOGdXgimOEisAiCBPjqdEgUAQAAAAAAAgJgWJMvPVL5f3W2oMCgB7yrU9nTp+d9xVCRWBBhInxNZA9JQAAAAAAAISCQDFG3vpseZxQEUCvnfrmt2RrtXlfIVQELoswMd6qjdMCAAAAAABAKAgUY4ZQEUCv1WdmdPbl71/yVUJF4CJ/fnxUdXtIAAAAAAAAAAgU44hQEUCvnXv5e6pPz1zyVR8qDh23v/YLOQH9zIeJmYFjMoaAPc4GamUBAAAAAAAgFASKMUWoCKCXGrW6znznpcv9V04Ne4xQEX2LMDE5VqoiAAAAAAAAhIJAMcYIFQH00vnvv6aZ02cv91+EiuhPhInJsnkzgSIAAAAAAEBICBRjjlARQC+d/fZLV/ovQkX0F8LEpCFMBAAAAAAACBGBYgIQKgLolZnTZ65UpegRKqI/fOl4TtnBScLERCFQBAAAAAAACBGBYkIQKgLolQWqFD1CRaSbDxM1eEx+W0dyWAJFAAAAAACAMBEoJgihIoBeWKRK0SNURDoRJiaXIVAEAAAAAAAIE4FiwvhQsWHtXgFAFy1SpegRKiJdCBOTzdrTAgAAAAAAQGgIFBPobc+WJwgVAXTTEqoUPUJFpANhYvIZc0oAAAAAAAAIDYFiQhEqAui286/+YCl3I1REshEmpkPDvigAAAAAAACEhkAxwQgVAXTT+e+/JlurLeWuPlQ8bn9l96iAJCFMBAAAAAAAAAIhUEw4QkUA3XT25e8v9a4j7iXkGKEiEoMwMV2sLQsAAAAAAAChIVBMAR8qqmY3uw8rAoAOnHv5e8u5O6EikoEwMX0GssyhCAAAAAAAECICxZS49avlKRcqbhehIoAONGp1zZw+u5xvIVREvBEmplO1cVoAAAAAAAAIDYFiihAqAuiGs99+SctEqIh4On58hDAxpYYM5zoAAAAAAAAhIlBMGUJFAJ2aOX1GtlbTMvlQ8bj91Qf3CIgDHyZOEyamVr3KeQ4AAAAAAECICBRTqB0qWqksAAjg7MvfVyDWTBAqInJvhIlUzabV1s1lAQAAAAAAIDQEiinlQ8UBS6gIIJjz339NgREqIkqEiQAAAAAAAEDXESim2E3PlsuEigCCqM/MaOb0WQVGqIgoECb2i7IAAAAAAAAQKgLFlCNUBBCUn0uxI4SKCNv04KQIE/tBWQAAAAAAAAgVgWIfIFQEEERHbU/b5kLFAwJ67UvPH3b/5gUAAAAAAACg6wgU+wShIoDl6rjtaZs144SK6KlmmGjHhH5RFgAAAAAAAEJFoNhHCBUBLFfHbU/bCBXRK4SJ/cfqtAAAAAAAABAqAsU+Q6gIYDlmu1Gh2EaoiG4jTOxP1lYEAAAAAACAUBEo9iFCRQBL5SsUba2mriFURLc8+/VHCRP7lLVlAQAAAAAAIFQEin2KUBHAUp179TV1FaEiOvXl5w/Iar/QnwaypwQAAAAAAIBQESj2MUJFAEtRPXdeXUeoiKB8mNiw40L/qjaYQxEAAAAAACBkBIp9zoeKtSG7WUZTAoDLmP5hj4qBCBWxXISJ8AZqZQEAAAAAACBURoBzMp8bGZw1x2Q1KgC4xA2b79Dg8LB6wthx8zv/6aCAhRAmom1lda02b64IAIAuGx8f19TU1IjU2JORWfC9cUP2RSkzUSwWywIAAAD6AIEiXkeoCOBK1rz9bbr65hvVM4SKWAhhIubbeifnr32uUCjkpHp+afe2LnweKLsBf7pxAFhQK0zcYGS/6D7NLfHbTlqZ9xMqAgAAoB8wIIOLECoCuJyrrl2rt2x8p3pswnz6f98rYD7CRFys7ALFDUJfckHiqBvof9R9mNfyld2g/3YG/QFcye7du02tOuvDxLyW5+Rk8ejbBQAAAKQccyjiIhtK5Up1hd3OnIoA5ps5fUYhGLO/8vOHBbQRJuLNykJf8lWJLkw8pmBhoue///hcdSMAXMxXJ1ar1REFO8bkCoX78wIAAABSjkARb+JDxVv/4uTmhrVHBABOo1ZXbXpGISBUxBzCRADzuDDQvzaMqDMjrZ8DAJfTwTHG5AQAAACkHIEiruhtz5bHCBUBtM2cPquQECr2O8JEXFlZ6DutqsK8uiNPlSIAAAAAAMtHoIgFESoCaKudO6cQESr2K8JELKRhXxT6jlFjXF3VGBMAAAAAAFgWAkUsilARgFc9d0Ehc6Hig8ft/kKnLe6QFF/++h7CRCzImIrQh8w2dZGR2ScAAAAAALAsBIpYEh8qWtnHBKBvVcOtUGwxoxpccYxQsQ80w0RNCFhIxpwU+kqhcH/BLXLqrhH3c/MCAAAAAABLRqCIJXvrl8r7rbUHBaAvNWp11aZnFD5CxdQjTMRSVRunhb6SUXaPesAoe0AAAAAAAGDJCBSxLG99tjxOqAj0r9q584oGoWJqESZiOYZoedpPCoVCzrqFemPU/XxeUwAAAAAAWCICRSwboSLQv2YjCxS9Vqj4a7+QE9LhL54rECZiWQarZaGP1PPqHRcm1scEAAAAAACWhEARgRAqAv2pPhNFy9P5XKjYsISKafDnx0fd83lYwHJs3kyFYh8xyvS0Lan7+TsFAAAAAACWhEARgREqAv2n+uMLioEcoWLC+TAxM3BMxtBuEMtRFvpGoVDIyx/veytfKNyfFwAAAAAAWBSBIjpCqAj0l/rMtGKCUDGpCBMRXFnoG0aNMYUi06s5GgEAAAAASBUCRXSMUBHoH41aXbXpqNuevo5QMWkIE9EJa08LfaFQKLhjhAmlHamR2TP3+wAAAAAAwEIIFNEVhIpA/7D1mmKEUDEpCBPRMVMW+kTdVw2GdawYMaa+TQAAAAAAYEEEiugaQkWgP8zGYx7F+QgV4+5Lx3PKDk4SJqIj1laEvmCU2aMw2cx+AQAAAACABREooqsIFYH0q8/EpuXpfISKceXDRA0ek3+OgE5YWxZSr1Ao5Nwir2DKCiZP21MAAAAAABZGoIiu86Fiw9q9ApBKMQ0UPULFuCFMRDdZWp72A6PGuAKyMrsUWIMqRQAAAAAAFkCgiJ5427PlCUJFIJ1sra4YI1SMC8JEdNuQoeVpXzCB5jO0UqlYLE65D0sKwMjsEwAAAAAAuCICRfQMoSKQTrXpWcUcoWLUCBPRC4PVspBqhcL9BQU+bpgJ/69V44iCGXG/Py8AAAAAAHBZBIroKUJFIH0atZoSwIeKx+2v7B4VwkWYiN6oaPNmKhRTzihTUDDlYrHYChKzRfntJZDAvx8AAAAAgNQbENBjPlT89pacMsY86j4dEYBEi/Ecipdyx5vMMRcqbjeffnJK6D3CRPSKVVlItUKhkHNP9B4FYOa1OXXBYqVQ2HEkSAtT9z173OMY9z9DfWx8fFxTU1P+nL11q807fx/w66bi1lFZfaa1XnJzn9VyF//v3HrR3Lrp2+3n4nV0+W1Hfb6OrmSR7asstq3F1o/68bgEAAAQNiMgJN/96dyoBowfaCZUBBLu5i3vlhlIzDUpbvClQajYa4SJ6K2Stt65XUitQuFDY0aZwwrAymxuzZ/Y+lmFvJE9pgCsGo8Ui39ySH1kLsxt7MzIjFrJV/a7z5d0vu7XuXuNtSesbEnKltIQeLwRXNTzGWW2tdaJXx+5ZfyYS9fNVJrCjjdC53rBBfGj7rZ+3razFH47KbvBiHLDrSO3/ZVcKDQV5fbT+ps2uGPHt7R81h07PuqOHROL3XFeYO/WW6OwzHXn18/U3Hal41LmmbSFaB2uHy+VxyUAAIC4IFBEqAgVgXRY91ObNLBySAlCqNhLhInovQkXKNJCPcV2FXaeVLBjSHmyeHTDZX6ePybltXwl9/NiFV63AtIDWnj9VNx9Sg1lDi5l8Nz9zNGMCxFdGDum7h67S24Qf8IFHUeTNIg/NjamSqWS9wGGe4vsK2V78V7FB0HPuODJrZrPlZQw7XXktpttPdhu2vz2U2xtP2WFqNeB4hvbWHNfbofU3XDcrbPHkhwuvhEiNva4ANHtg11dP177uJS6ABYAACBsBIoIHaEikHzX3bVRQ2uuUcIQKvYCYSLC0LAH9d67xoVU8uGWG2Q/rgB8sPHG/IkX/czx1sB9kJ95UcVjlAqF+wtG2cllfMuUe/zbrxTmzQsn8+otX33mAk5zMM4D+Lt371a1Ou2rY32ImFd4TsrYg5OTTx9RzEW4jlwIVH/Mha9FhaBXgeK89bfYRQEdc/vcRNz3ufna1cAuyN/fwyD/InPrqH4kiaE+BAAAYiAjIGS3frU8pZr1V37TegRAmPycisftrz4YaI4uXMbx4yOEiQiFtWUhteYGkwN75gpfP6TAfJVaPLgw8dFlfsuoLrM+fVtTX7XZagWbV+/lrDTmf98DhR2Bgt1e8tVibp1sr1VnT7Za7eYVrg2yZsI9J9/atWtHLM9LfBDmWxFHuI7yPkz368gF63klzGW2sZx6rLXPfSuO+9x8Pkh062bkuamvPeoe70nNzXkbysXGc+soe8xtV1+ca/cMAACA5SBQRCTaoaI7oS8LQOLUpmeUWG4Aj1CxC3yYOE2YiJBYUxZSzGxTAL7S5EqVOK0KvZIC/dzm4HbkWoPdOS3f6PxPPlwo7GtVgOYVPhcsmvG5UCj6wftWkLHhdOWUD1e/qOhfw5rB4gOFnYfjEm6015ELwo6FFYQtYoMPgOK0jhbSDsvOVH70aETbmInTPnepj3zkI/rrqSl/TDrpHmcnF5N0ansSwlcAAIC4IVBEZHyoOGAJFQFEgFCxM2+EiaMCwjBk6GqQUr4CSgEH3K3JLNgK0Q1WH1QwI0msiHqDWdP+yA2WP9qQ9dWaUU814FtJfjHK9TovyPiaoglXr6hVWRZ5xVQS1lFcKzq9eW1Tj0cclnn+cXzNt01WDLSC1rUXzv34cEyOSV6sw1cAAIA4IlBEpG56tlwmVASSx9ZrSjxCxWAIExGFwWpZSKXWvGxBlCcnJ48udIdisVhSwBb7RtlEV634Cinf4jQGocZ8vtLsix/etSvU196YBhmX0wqACpG8vv7iL/6iScI6mqvo3PG7iiEXJm5uhbE5xcNat889FXUV3ryg9Ws+GFb8xCp8BQAAiDMCRUSOUBFInkatrlSYCxXjNNgab4SJiEZFmzdToZhCrYqQvAIwS2xn6gK1xxRM3odySiC3bkZCnCtxuUzDNg6HFSq2goy1vrItpkHGpdaGXanYDlynL5xPyjry+/UjLjD/WoyqykxGZlOrxWncjhu+Cu9A2EF+27wwMQ4thhfSDF+jWk8AAABJQaCIWCBUBBAZax51oSLzpyzFhQE/lxJhIsJlOTdIr0bgCzoaS29nWlJgjaRecDKqeB+rfaj4aBiVeC+88DXTCjKS9NrVDhVDCabmraO8kmVzmOtpMa1q4LhehNAM8sNuOZygMLEt1AseAAAAkohAEbFBqAggMtaMEyou4kvPH5YxtIJCBOyLQioZmZ0KwJ0rlorFYnkp9221PS0pAPf4tgm94kOzp3oZBu3evdvMTsu3xkzihTA+hHlKPebbnM5Omz9Qci8W2hCnUDHmjK/AC6uqM4FhYltoFzwAAAAkEYEiYoVQEUiG+syMUodQ8cp8mCg7JiASpiykjhuszSvwILOZWM69rcxRBZMPu6Knz2zIyPZkLjwXJqpanR6L2RySy+W2vw/17PGPFQqauXDhQFLanC5gc0aNTwlL4YP8P1AInnvuOZPAMLGtfcFDTgAAALgIgSJih1ARQGQIFd+MMBHRKwupY9QYU3DLDQgn5OfiDCRDZXYP2Wau1d3Q1ldGVavVDUaZboZMFSMVrexBq8ZeF1Tucrftb9z81+xBfx9175hl/N/Qi+o7H7i6HWKze8ypOOfxwbHbjthXl6anQbXnq4PVqPmLBXLqEl+Z7rbXxy6z//mP9/v/U0ctrt9kQ1jhKwAAQJIYATH1ypZcrmbMMZPMqxqBVFu17jqtfefblVrGjpvf+U9LnZ8rvQgTEQe+1e6WO4JWmCGGfNWHG6g9qQDceeHEU8Wje7VMDxR2TroB6SCBQ8UNVm8oFosBA8ngOllPy+Uv5Mu4wfhGs8WwLc99NeuXLsyqu5vJZWQ22bnWmDl110m3jt/drXXsK+/OuFyxG2GZbQYU5mCrde6StFo95vxDcc+fn4stpw74oLJYfHpcXfTAAw8Y26h/S919Lt2+Yo+4Rzzltp0pzYX4ldHR0YpbHz4UHWn9vk1SY3OrpXBO3XPKbUdvD7odzWvR+S2F4I19zrh1VT/t1llzfSmcfe5Ua58rq8vGxsZUqVS2t6oTO9La/3xIf2Qpz+u8fS9v5vb/nDpjXYD5iWLxTw4JAAAATQMCYspXKrpQcTuhIoDQzVUqqq9DxWe//qgbRhkTELVq47SQMvV80EYpDdWPKAA3aP+YG2AOEij6wX3/fRNKHx+W+qqeiaUGC3OtRKsu4Gjs72IgtMH/PLccV4fmhUL71Bkfcn50OUHi/MeguSrFcRcK+0/GTQfhplvPH3c/51BXA9dGoxthS9Nioav7ul+0w7KyWlVkreCpHfzk1bm1rdann1B8ld125Y9hS34+e7TPuXVl/br6qLrszJkzpguVfadkMo8UJyeXdbyft+9NfOQjH5k4d+7c/tb2FbTKt10lXOxF+AoAAJBEtDxFrNH+FEBk+rn96ZefP+BGCJM87xTS5OralJAqboA2aNhTLhY/V1IArbAjUCDjHu8epYsPEg+2Ki/HlzNQ/uSTT/p1OTU6+u6xuXaDNlDAe6lWaNZxa8/nn39ec4F14ADBVwQealVvldQhH6bdcMMN4+7nPaDAbXebofaYusQ9iA2288DV86Hr9mLx6PYg62piYqK5Xw4MrvBtK33VcVkdmmt9Gst573xANjZZPNre55a8Lbx5nzNdudhtrt1wd9eVD6vVeVh93O9/k8sMEy/12c9+VqOjo819WZ1tW2tpfQoAAPAGAkXEng8Va0N2sxtpYEARQLj6MVT0YWLDjguIh4o2bw691SR6xw1g+/Z9owqg0/CqVY0XRL4X89hFxFdIbV5uqHEpXwnkg8iRkbf4kOP96jwMWtuqUuyUryh6SAG12os+0s0Wt5/5zGc0ODg46dZT0Mo5/zftUJcYNTqp2GrqZujqAzMX/Ey0tqNO3+8Ztx11IyztGhfcHfOtWDsNyNr7nNuWxrsQknl+XY2pS/zja4XVgS/AcN/b3A66VQ3oH5Pbtk52YdvKd3uuVwAAgKQiUEQibCiVK9UVdjuhIoDQ9VOoSJiIuLF0KEgb01FolJlQZzqYB6srYVfU2mFiWV3iq8zcgP2xboSKvkpR3RE0sO76XIVtPjS76qqrJjoIxfOdVpP5cGUuGG+2zQysF6FrF4Mfvx3ticsFAD54LRaPvr+b66oVwB7v1j7XrXVVnpryg0udzBl63B3ju7pdefO2LV8lXFYwLtTPfkoAAAAgUERyECoCiEw/hIqEiYgjo64OLCIOgoUZfp62ToOw1kB1SQG4gfdYVT0FUJ5rT1ns+j7lB+wHBwdPdtjW0xvppArIP45qterDkWUHJEY63Kswse22226zPjBRYPUgc4C+rtUO1v+MnAKaC8h6s55awc+pLgRlI52uq25orasOnu8r6+Y+J9UCBfCXOpPJmA6qE5t/Sy+OT94lgXXQ35GmSnUAAIDACBSRKISKACLjQ8Vf+fnDSiPCRMSV1QkhNQqFD40pcJhhJtQFbkD5qIIZSXLLu1aYWFaP+Kqp4eFhXzX1WwquoyqgVsjiw4LlBganGp097iWZ9/hKWj6TUeZudcZ0OB/oSTd80JX5+67Er6ORkREfKn5Uwfl1dZ+idbJXYWJbt/a5jLKBWwS37d69W41GdUzBju/uT8gc7OXxyfPblltfJztYXyYlleoAAAAdIVBE4rRDRXdGXxSASGSHhtSnxlIXKhImIt7KQmp0EGaU3WBzR/OPzTOhgBUqbuA9kVWKcy0qeztY7332s5/1gZlvK1tScKOdVAHVajU/6l9azveYZvFq79ePt2LFCusCjacVgJXyCqhVvZlT8J/hHnf9E72qIJvPt9F121FJHWxHbl1FWaFoW5VwPdeNfa5L6yrw3KW++rzT+SWXqtP11cW2zAAAAIlFoIhE8qHiLV86uathbShvPgBgnvSEioSJiLu6pSNBSrTmf8srANNZQHURH4gEncfOJrPlXbkLc08u2fDwsO2wYqqjFoybNm2yDZlPaOkXIxxv3T8Us7OzflFSMDkF1Gp3mldAcy2HPxfmxZx+O+rkeRnpdM7JoNzx5bfCCqi9buxzbl0F3uc6DKvdplXveXXwfB2ur0RXqgMAAHQDgSIS7W3PlscIFQFEIPmhImEikmDIMIdieowpoIbqXT7XywQNRvzcbGNKEDdwPh5muNGF6jKXH2d2KiAfbri/9+T1N6zb4P72Xb4688q3xl5fSRZG1V3bHXfc4RdlBRQ0JKvVar4N6A4FY43JhPp+y7fzdNuRv6CkpOCiCP9tmAG+142Kzk7C5g7D6ikXVJcUog7XV0fHJwAAgDQYEJBwPlT89pacMsZ0MicIACyXDxWl6swj5lAxWaEHYSKS4p47qVBMCSPbQbvT7g44uwCptKuw029by67KMXODyYeUDGV3CzpnZGC+rWe1Wn3aPed5BWBktqlDn/nMZ/yiqJhNkeADz18oFCozCixQSGaM8SV/QavQymG1pJzPV5JVKtXfCroduRg19EDRpU0TkyEG+G0d7nMdzc/ZDqutls3PnfiYItDJ+urG8QkAACDJqFBEKlCpCISrj+dQvNSYBlccs/sT1ALv2b/eR5iIhKA6MSUKhUJeAds1+go79YD7uUGDtnxSWt6ZZpvK8C94eec73+kXEwpuNIGtZUOy/JDMh5iNRiOngPtgN1sOL8e8SrKkvBZYazKhB/hea58LHJ5bBQ6bNTAwEHh+T2vtM4pAh8cojk8AAKCvESgiNXyoaGUjucoRQD8zo4kJFb/89T2yJimVNQDViSlh1BhTcL0acO7gWJgpKAG63yp2aXyA5YIgHwKVFFxO6IpyuewXOQUTWUj2+u8PNpdi6K00vagCMr/PZTKZsg3eTjfQOezu3bv9/ImjAb+/XIygmtPr/BgVfJ5XAACApCNQRKq89Uvl/e6N3EEB6KmBlVQoXiwBoaIPExsdVYwAYSsLiTc351uwtvRW9mivBpxblXslBWCUiDb7lSgClTbfUtAFQU8rsDoD9l3iAh+/CLw+3XurFxURP5eic9htS0t+f2ekST83psI3FUVFcJt7nvzgTtALcXIKYO3aC+7fek4BuOP7CUUs+GMwHJ8AAEDfIlBE6rz12fI4oSKA8MU4VCRMRBI1ohvERjfV8wrImOxh9dByQopLjMS97akbKI+kUqptcHDQL4KGGy4TMpuUEr4ayrdIdLfRQuFDY9NqHFCIZmdn3fpsrFcwLpguRlot7n6/RkdHx93+utbdti9w2+zv81Tx6ANRBHtun4v0Ncu3Hm108BjmLv5YnlOnrvL7atA5BaMOFK2CBYodzTkJAACQdAMCUsiHit/ZknMDUSbUN+xAv8gMcD3K5bVCxV/7hV3m3/7HsuKAMBFJlc0cFxLPKLNPwZQnJyd73WrRByU+eFj2hSBGWX+OWVJ8RRoC5XI5TTkKKCOzRgniQ0P35/rtKDdXXWly7m9Y7+emOzF1PGde38bCP3+q1WpqPZZlszFpPe3Xr+b21ZLiKyYBmVGYTLDw3z/WsiLkqytffdUECp47mXMSAAAg6QgUkVqEikDvmCwvH1fmQsWG9aHi9shDxb94rkCYiMSqNk4LiTZX8WIDDbyaEIIDX8VUKOw44gbEg4SeeV91FmWLw4UYk400kPcB0AMPPFBpNOplE6CdYiOGcyi2QsOcmuFgfdRtN/625kqhYZAArxd85VqtOhuwe4LlOLw0PiCL5bFg6Wo5LbPVeDY747YtE2jbMmbglCJ0880/5QJFf9FDoD01/vOmAwAA9Agjwkg1QkWgN7IDWWFBuchDxT8/7isketouEOipq2uxqIxBcEaN8aDVMo3g7UiXKVN0A8oBqygb+90/44qhKOe9a1uxoqaZ6WAVQCbCQHFetaF7HW1syrjgMO6h4ULq9bp/nLmAdWtlYakiDRSHh4dVqVTLYW6V9bqfU302pwCsrSY5rM4JAACgTxEoIvUIFYHuMwO8fCxBdKGiDxMzA8fcgY8rqJFUFW3enPBqD3Qwt9ZUsVgsKwTu95R2FXaW3Id5LZOR2amYBoqKONzwjBl20ca5E76STzE3NjbmwphK3oXgBRccbjOvtzQ0iQgNe4gKRVxRtlpVLVi1njHKHnPHXkXF7ecdNYf1FfhhvU4BAADECZNgoS/4UNFaG9KV7kC6ZYeGhCVrh4o5hYUwEelAdWLCFQofGlPAKg4rc0ghcr8v6FyNo4XC/XnFUBwGuv3cfQoebObUYz5EdKFAfldhx6HTlVOnXHR4THPtb5kfDViEr+SdplIPAACg7xAoom8QKgLdkaE6cbnCCxUJE5EeZSHRMsp0UnryjMI1ocDBV6YgXFa1WvXFfbGqNPYhiJ/78oHCjgOXhIipfd1c0WgEbSHr5wUsC8BlNOecBAAA6DsEiugrhIpA5wzzJwbR+1CRMBFp0oh+/jcE51vBuSQiUNDmgo+JsKvr3O/zoVegqlgjs8cHVMKb+Dnd3NvNwC0zu7le20Hic1NfO+BCxJNWZlwpDhGBXnv++ef9gn0IAACgzxAoou8QKgKdGVi5Qgikd6Hil47nlB2cJExEamQzx4UEq+cVUEP1I4qAC5iCnhu64259THiT2dlZ92+9kwrFrrym7d69W1NTf7WXIBHonrkLBtiXAAAA+g2BIvqSDxUb1u4VgGVjDsWOdD9U9GGiBo+JeWyQJhkqFJPMKHNAwZSLxc+VFIFisVhSwPacprP2rr0QqzajUWlVJW6oVWePuefoD0T4AQAAAAAdYSIs9K23PVue+PaWnDLGHBaAJcvQ8rRT7VBxu/m3/7GsThAmIq3uuTNQ+0lEzwU4ecnmFICRSr5dqiJi1JiwMvu1fHn/uMNu1bqAvg8Ux8bGNDU1td3IPiWCRAAAAADoCgJF9DVCRWD5BqhQ7IbOQ0XCRKSVFWFigrlQbqwZDQZgXQ7kAqAxRcQGfNxz/N+tccVDTn3sIx/5iM5WKvvdtvSo4qHitu1yRppqyJ52W9qJVsUkkFjnzp3zC6qhAQAA+gyBIvoeoSKwPGaAl44u8aHicfsru7ebTz+5vACFMBFpZhigTKpCoTDiwpK4tf8MhZHZp/gEirFQrVbdv2a9AgpS8TlWKOjMuXPjVjZo293A5oWGL7rP3Ot61h/Lpi79O36hUDAzsgSKSLQ77rjDVwH36+t1ZO25AQAAosaoMKBWqLg1V8moGSrSFglYQHZohdA17niTObasUJEwEWlndUJIqHrBHdP69TxqpFC4P88gc3SalYnnzu3vcZjoqw2nfJWh29ZPus/9fK9TMWp3+yb1wUGX7s764If3OEDnrEzmoAAAAPoUgSLQ8rYvlYvf/elcWQPGD9Tzhhu4goGVtDztsqWHioSJ6A9lIZGMMnvUx4yyPsgqCU2Dg4OmWp0J5Zx6fHzcV0tt6EGb04qRig0Z//p8NM7B4ZXU63VfPen/juU+F+5bTE5AD9hkvtaX3T5xsDg5WRIAAECfIlAE5rn1q+UpFypuJ1QELi/L/Im9snioSJiIflG3zKGYQIVCIeeGiPPqb6O+7asLnSJvAxiHx1Gr1ZSRWW8VSHk5d37uueeMCxO/qO7wVYglFxw85tZhSQDexIf4v1AolGcUiNvF6nup6AYAAEiejABcxIeKqtntYpJ54E2yVCf20lyo+C9/If+m/yFMRD+5ukagmEBGjXHBHcfrY4qHyC+MGxgY8KlB0Mex5PPw3bt3q9Gojqnz10gXJJqD7rahWDy6qxdhog9hphN00aILhN8m4Aqa7XQDv2c2OQEAACBxqFAELqMblYovjdyql9bc4m63XvT1W05/V9dMn9EtlZe0euaMgCQZWMn8iT02oow9Zn/1wTHzO//pSPMrhInoLxVt3swFPYlktgm+7etOtzik6EUeWrVabeaMls8uI6Rwv8e49f4pdcA9xsmGzEd7XdX5/PPP+0VOIcpms7KNejnI723IrhVwBR200/XoBgQAAJBABIrAFbRDRTtgJs0S3oCfGVqt4uiH9d9u+0f623Xv0tmVqxf7lmawuPH7f6N7yl/WPS8+q9u/97eEjIg1Wp6GxJoJFyrK/OInj2p6cFKEiegfVCcmUKFwf0Ecp9rybn3ko2/lVx9VhPtTa07DERNwu8gsseWpr06sVqfHXKCYUzDWynxislgMJQQeHh5WpVIJNUjxlaLV6syLRsuPdt33rBdwBdbtPW5fnbLL389NRpm7BQAAgMQhUAQW4EPFV7bktteMOXalAZGvrL9Xj2/b55ZbtFw+dPTfN/e9+5pf88HirhN/7ELGZ3XL6ZcExMmK4VVCSFyo+C++frz8/3nHPTkB/cLqhJA4GWX3BJwnL6UyPmAtKVJmVBEql8t+EfgxNGS/vcS7+urEhxSMDxN9VeKEQlKtVv0i1OfGz2Wp4FM55BQDY2NjPojNGzUKLuRcc7n7WNnT7jh03O1/R+Mwj2k/6CSstiHvBwAAAOgO5lAEFnHTs+XygLXb7SVXSvuKxN/+2d/UQw/9YaAw8Ur8z/rkjk/rAx//P93P/g+a3PTh5u8C4sAMcB1KmP7X5/5zrvDyNwT0kbKQKIVCIefOkQrC69zg+h63XiJt52cibkHbYXBmjckeX+xOvgrS/R6/nvMKwAVQvxVmmOidP3/eZGTvU4hWrFjhdtHMiwpmxO/jitDu3bvN6cqpY0b2mNuy97k/ZuxyN/9/brufcPf7WtSPuY+4VW+DXgg0GvVxEgAAAMtHoAgswaWhop8bcdfDn9MT9+xVL7XDxXt+dcotf6f5e4EorRi+SgjX4b96WrnzXGiPPlG3tDxNnHpeuNSIMfWo55SMdLB+dnbWuGBnhwKy1i4agHVYBXmyWHx6XCEzfq2EXJk1ODjoFx0cW6Pbx8cKBdWr1QNaXmi8wa3lLwohyXawbdWoUgQAAEgYAkVgidqh4nM3byoXHv5TvTRyq8I0uemfvl616NusAmHLDGSpUIzASHVah//yaQF94eoagWLCGGUOCG9mM/sVuUYkj6FVOZhTwMpBp1IsFhc9FnRSBWkiaEnr23Y2Go28Qm4jmsvl/CLosdXPdRdqRWWb344q0loru0fLl3OBOmFVjz355JM+sPbbVpAr39xumNkpAAAAJAqBIrAM7/jNkyMP/t8mR/zch1HxVYu+zeoH/sWfNduhAmEZGB4WopF/7UXteZGp5ZB6FW3eTDlugrgB+7xiMsdaDOVj0PZ0nyLw/PPPq5OqNrvE8MtXQbrQdL2WzzbUeE4hm5mZMUaNIOFYR3wwl8lkKjZgS2nb3NXD35Zb25Fvp5xTIDXaaYYnUGAdh/bQAAAAWB5KTYAlWvkFm3PvqCfdh7F40+MrJH071Mfv26df/y//Sh/4xn8V0Eu0O43W+N/+mY6s3yQgxahOTBgXjow1i0wCfa8mnioe7W3v+C7YVdh5TIEr7ZoVguOKzkihsGNPsfj0EYWoXq+74CzzKQVm/2wp9xoYGFC1OhP0vDzUixd8qDc1NZVzAUokFVlDQ0O6cOHcM27Py2n5Roxp+MedsO0IYfBzdFar1aeNbF7LtzbK42Rrv/THkNzCAfTAkqqmAQAA+gEVisAS+DAxa3XMxPAqfB8s/vKDv+9uv8cci+ip7MohITp+HsX8D8oCUsuKMtwEmasqCR6ONFQPNZwIysocVEBRVQhe8hjGw6wA2r17txqN6piCnzNbt3WUlDLlqSn/xttXJ0ZyYWKtVnPr1T6jYFxWZEKtrOxOe9gBAqAQvPOd7/SLogJyx6iHwq5S9EGi+51rn5s6ftht3Kfc7bhR9tiVb/b4rsLOb9FGFwAAgEARWFScw8T5/vttH2zOsfjJHb9DsIieGKTlaeRoe4pUy5hjQoI0WxEGHQQuF4ufKykBisViScGr2UYKhfvzilYuo0Zo81x2oaosjG3Dndab0Er+W3MBbrCykc03escdd7h/s4FDHzVb+N5fUEjOnDnjtiP7Bwpuyu27tNAOgd++BwcHywo+L+mGsOd7PXHihMm47cul7GPL+LYNbpv8Ii1aAQBAvyNQBBaQlDBxvslN/7Q5xyLzK6LbMgO8ZESt8Mo3BaRWxr4oJIYLjQJXLLlgJRHViW1W5jEFlgkthLkS9/j3hxFsjhXcn9pohpc5BWSWEUpcuHDB5QHB5gU0IQaKzz33nA/HvqgItUIfH7CVFIz7G7K/G0aY0oUqV78dUZ0YIt/21B1nnlZAbn/8uNu2cgqBP04Zaw/4uUG1fCOti2kAAAD6FqPDwBUkMUxsa8+v+IF/8WdUK6IrMgNZKhRjYKQ63Wx9CqTSPXcyAJwQrYHfvALLTChZDikgN1C+Jw4VLS4MmuzlgP3DD9+viuq7OqzCsw2Z/3Wpd3YBmf+WoBci5MMIWV04ZtSo/a5i8H5ieHjYdtLCV3MVWk+ph3zwWa1W3e/J/K6Cc9tR/QkhNK22pxMKXs29tsOK1CXxYfVZY8airBYGAABIOgJF4DKSHCbO54NF3wb18W2RT+GDhBsgTIyNTZXvC0gdSzVJkriEZFwBWalULBbLSpBW68SSgvEVLWOK3ogbsD/Wi1DRD9K/+urAZhcCdRoI+DaVyzwWZIMeO3pececroerV6gFfIaoYmJiY6LSFr7f9gcLOngQ/Pkycmpra0Krm7OR5SUxL5bTwz51zqrNqbr9t7egkSF5Qs/K1Vhtr2MZhdcSWBQAA0McIFIFLpCVMnO/x+/ZRrYiOrBi+SoiHDVQoIpVod5osZpsCMxNKoE4Gyl3QtlPxkHNhzfFCYUfgdrWXag7SV6tjXQiB3CrOLGsdP/nkk75K0QeKQV8YN2dkux5g+HDFBZVrz8gejmMlVIehj78oYK8LFZ/qZjh9SZiYU3B+O+qkChMBjY6O+oXftgKfqPrw3YWKXd9nPvKRj/jj1P7Ow0T/tw1wARQAAOhrBIrAPGkME9uoVkQnsiuHhHjwbU+B9DElIREKhfv9/FE5BVMuFouJmj9xnpKCD5TnXfgyqngYMS7UdYHQ4U4CoVZotqFenZ1suOBMnYWJXnlycjLQttHJnJw+HNtV2PmtboVjY2NjPhjb7oKxr7mfPaZ46ij08dzftsuHf7t2dR5O+7Dnr6em9vl1ps7fg5Wttc8IoetSlaJx3z/ercC6He6fP/fjY+449ag6ZJoF60Wu7AMAAH2NQBFoSXOYOJ+vVnzoof9AtSKWhfkTAfRU3XLFf0IYZQoKyARvGxo5P4jcSXAlNQKvt17wYZcLcE66gftJX7G4lNafrcH5kULhQ2Mnpo67c2b7LfdzuvF3Ba4q8/MCure0R9WZDa11EThk9UGi+9786cqpY12osuspt8586PNb6twGWTMxF8g2t6HcUr+xvS35ajQX9px0YY+fp7TTULq5HSWtpXKazKtSLKsDnQbW7e3ruamvHfDHKXU05+/r3Hbalf0GAAAg0YwA9E2YON8tle/qk//lX+lnvvFfBSzm5i3vlhkYEKJ3cON9Gt/YQbdBII5WVtdq82au+o85Hxj44EUBudH+DUke7PeBkZ+HUMFUJotH1y7nGzpd3wE024e68+FyY14b4ozMercYcYP8Pi3Iqcvczz1eLB59twLavXu3qVVnfYiXV3eUZOyEtZkTV5rTsdWi0wdgoxk1trltO9/F338l1qr+/m7MD9iDddbm1pd9xj2nJ+daWdt5x3WTc7c1bnsabW1L3a7aPen2sbcroHltV7+l5XPPTeOjxeKfTCgiPtSuVCrbW4H2cnVt23r44Yf16quv+kDwKXVH2f2siYYyRxeaY3X+PmmaF3AYH0Z2a45UH1bvDVpFDQAAkCaMDqPvjUzakeqsPWYGTU59xLdA/diDv6+P/dlj+tgzHU2lgpTz1YmEiQB6qEyYmBT1fNAGJy5AKCW9csg9/tKuws6SgoUwI4XC/fluDNj3UDPgcc+VzLzrTq16yv1484A64KsUK5Xqb7nQIa/uyMsaHx7LPd/+87IurrgaOTF1fKR9IaJN4DW6d9xxh3Xhy0dbbUa7Fbp4bhsyo3Nr5PLrpUfbkwvEzPuFyH3mM5/xgXWxWp15zB1HujHXRs63QXXb6rjbH/25wpSZa9n7+nmD26Zybp/MvXFxcHf3SSv7WJEwEQAAoImWp+hrPkysrVDfhYnz+Raohf/5c7RAxRUNrFwhxEdlcKWAlCkLiWCUOaDAzIRSwA1sB26vaZTtYP2lkxuo/61Og+aJiQkNDg6W/KC/eiOnuRC5fetJpWaYfDWXC2JP2pS0cOzGdoTu8YG1G2rybYzL6i4ffud9q2Xftrl909x+mVNvHC8Wn35EAAAAaCJQRN9qh4ludKfb7XYS54Ub36WHHvpD/e26jQIutWLNNUJ8nFzVzUICIAYa9hkh9gqFQqchSqfz3MXFhOZVxixTfilzFfYLFwQccwP14+qCHgYYqfXZz37WB7GHehjEhsI9/kPd2o7QHT6wHh0dPdWqGi0ruU5S+QoAAHAxAkX0JcLEN/MtUHc9/Kd6fFs3OtMgTXzLU8TH6cEhAamSzRwXYs+osV8BGRfCFYvFVLS19X+HCzA6CEeDr8eUOem2jI+qSy4JMGihvERPPvmkveqq4UfcNp3Ido7ucU9QPRZPrX3yZIL3yeP+safltQsAAKBbCBTRdwgTF+ZboP72B39DQNuK4auE+JgauVFAqtjZE0ICmG0KqKF6yuaeykwoINPBelwONxB+UPF1sjVQX1YX+QBjcHAw9gGGn0/ULaYUE3/4h39oBweH9iatUrFVmbhXiK15oeK7laBKRR9U9+IYBQAAkAYEiug7tSEdJkxc2BP3fpR5FdHkqxPNwIAQD+VVa5hDEWlT0dbNZSHWCoX7Cwre7rRcLH6upBRxg8wlddb2tOfnoe4xjrsB8ThWbp3s5UD9k08+6QOM43ENMHxQMTi4InaBp69UdEMD+2MeRLf5StRHqExMhksqFcuKt/a2tZfKRAAAgMsjUERfGf6CPewWBWFR7XkVCRX728DKFUJ8nKA6EekTmyodLCQTOABzg7PjSiH3d3VQzVUP5cI2NyB+yD3O7YrPIP7xMKp+Lgkw4nKMse2gQjHlnhfdcMMNPoh+QPENftrb0CEhMebtk5vjWgnr53T1FyKwbQEAACyMQBF9w4eJxmpMWDI/r6IPFf923UahP61Yc40QH6Xr1gtIlYZ9RkiATCeVGml9jjsZdB5RSHw1pQ8Vo54jz7ennCwefXdYLQR9gOF+VyvAiLzq7vj8oGJgYMCvjxcVyEBPq6Y+85nP+OBnMg7bzCUq/nlsbUO9DIk7WL+2rAidO3fOLzp4/L3dtlr7ZGVwcMhXwvpgvax4OCmTGSsWj9LiFAAAYAkIFNEXCBOD86Hirof/VJObPiz0H9/yFPFRup5AESmTzRwXkiDQAL6RJtI6QOsHxt3fV1Qg2YDfF4x/DorFp8eiGMT38wX6cCqq9pS+6s4FZL7qbkMEAdllQ7BarebbiwYJ2ss9DtOaWsFPeXT03X6bebvm5nyMSnMd+ufPt/FVD7Xm4PShWknLF3lrZ9/u1z1+v30ECQZD2bY8/zjd75qY2yebYX9Z0WhvW++enJxM2Ty/AAAAvUOgiNQjTOyOT+74tB7ftk/oL0NUKMaGnz9xag0tT5EydvaEEHutKrflVnlNNeI5h1/XNAIEdC7UOhhVyOoH8V24tSGMYPGNIPHo9tack5G5JCALI1hcMATzgYoxZmKZgfSpVivS0LSrPDeNbt4+b72FNa/cReswxPnsfGvaT2h5+8ep1vdEbu3atf7xf1TLc6rVHjhU88L+zWFe7DB3bKrvcsfCtSFvWwAAAKlgBKTY1Z+3j7rFfqFrPvZnj+ljz8Ry6gt02Yo1q3X9XbcL8TDxtk3a+1M7BKRIWVvv3CAkRqFQGMvI7rQLtOx0by7KLmibcoO0fXGy4NaJXxeFJa6XI8sJ19zPzhnZkwrADZYv+j7P/fy8i0XHjMw292lOHbLNyi7jK+9iXZnqg7Kpqamc+zDv1u8ev1TnmhWry3mOd+/erWq1uuA+5X5mpdFsj5o5FId1+vDDD+vVV18tuO2m0K3tps02AyV71P2txShD6De2j8Z+9zduutL95j03E2FV9y3F8h6/8Rf1xGJ/be0Po/6Y5B7dNvf4ujXXrAunfZW98QH+EQJEAACAzhAoIrWu/oI94N6ZjgtdR6jYH66+eZ3WvJ0Wm3Gx/X3/k0rX5wSkhnUDx++5qyAAl9XrQLHtjYF8Hw418j6E8AGXmQuLLg26/OC8H5CvZOaqUH2Q4ucDLCVxoL4Vvvi/0QcZ+Yz72xutv9u8OSyb/7eX58Ik6/7+bKkf5167ZLsZzbS2G3dz221zu3lTSGpbVWiZuTbKlaRvP+iNy+2Xi2xbV9o3p+IU9gIAAKQBgSJSiTCx93ad+CP966d/VUivaze+UyuvXStEz7c73fBzHxeQKlaP6D13HhKAyworUAQAAAAAYCmYQxGpQ5gYjslN/1S//ODv6czQaiGdmD8xPkrX5QSkTt1SNQAAAAAAAJAQBIpIFcLEcP332z6ohx76D4SKKTQ4PCwzMCDEw8F33Scgda6uESgCAAAAAAAkBIEiUoMwMRov3PguQsUUGrz6KiEeStetV3nViIBUsZrS5s3MlwUAAAAAAJAQBIpIBcLEaBEqpg/tTuNjYv0mAaljRHUiAAAAAABAghAoIvEIE+OBUDFdhlbzPMZBedUaHSFQRBplVBIAAAAAAAASg0ARiUaYGC+EiumQHRpSduWQEL3xjdsEpJLRCQEAAAAAACAxCBSRWISJ8USomHxDI7Q7jQNfnXj05tsEpFBF99xJy1MAAAAAAIAEIVBEIq06WidMjDEfKn7s539PSCbmT4wH3+q0MrhSQAoRJgIAAAAAACQMgSISZ/jzdk9mMDMuxNpX1m/RJ3f8jpA8zJ8YPV+dOMHciUgrq6MCAAAAAABAohAoIlF8mGikCSERJjf9U0LFhBkcHmb+xBjwcyeWV40ISKW6pUIRAAAAAAAgYQgUkRiEicnkQ8XHt+0TkmHw6quEaPnqxCNUJyLN3ndXSQAAAAAAAEgUAkUkAmFisj1+3z5CxYS46i1rhWj56kQgxUoCAAAAAABA4hAoIvau+bwtECYmnw8Vj9y7V4i3oTXXCNGZWnMj1YlIN6sTAgAAAAAAQOIQKCLWhv/UjlrpsJAK//qDv6nJTR8W4mnFmtUyAwNCdHZt3S0g1TLmmAAAAAAAAJA4BIqILR8mGiM/8DgipMZvu1Dxb9dtFOJnxTDzJ0bpsXfcq/IqDndIuaHZZwQAAAAAAIDEIVBELBEmptfZlav1sQd/Xy+tuUWIl5XXvkWIRnnVGo1vvE9AqllNafPmigAAAAAAAJA4BIqIHcLE9Htp5FY99NAfEirGSGYgy/yJERrfuE2VwZUCUo7qRAAAAAAAgIQiUESsECb2Dx8q/vKDv68zQ6uF6A2t4XmIysTbNunI+k0CUo/5EwEAAAAAABKLQBGxsfILNiejSREm9o0XbnyX/vXP/oYQvZXXsttFwbc6PfguWp2iTzB/IgAAAAAAQGIRKCIWfJiYtTpmpJzQVyY3/VM9vm2fEK2h1VQoRsG3Oi2vIsxFH2D+RCCIoPtMWQAAAAAAdBmBIiJHmIjH79vngsUPC9EYHB5WduWQEC5anaLPUJ0ILFOxWKy48+OilsnKHhEAAAAAAF1GoIhIESai7bc/+Jv623UbhfANrblaCJdvdfrIpg8K6Bt1u+xQBIDUkNm7nIDQ37dYfHpcAAAAAAB0mREQEcJEXOqWynf1xBO/qFtOvySE57q7NrpQ8RohPBt+7l/Q6hT9ZWV1LS1PgeAKhULeJfO5he+VLReLxZIAAAAAAOgBAkVEgjARV3L79/7GhYq/pNUzZ4Teyw4N6cafpu1mmA5uvK85dyLQR0raeud2AQAAAAAAILFoeYrQESZiIS/c+C49vu3jQjiGRqhMDFPxptsIE9F/Gpb5EwEAAAAAABKOQBGhIkzEUjxx70d15N69Qu9d9Za1QjiYNxF9q6GSAAAAAAAAkGgEiggNYSKW419/8Df1lfX3Cr3F3Inh2X7fQ8ybiH5U0fvuKgkAAAAAAACJRqCIUBAmIohP7vi0Xlpzi9AbK9aslhkYEHrvkbt/ljAR/cnS7hQAAAAAACANCBTRcyOTdmSgoUnCRCzXSyO36pcf/H2hN4bXXSv03sGN9+nQO+4R0JeyZlIAAAAAAABIPAJF9JQPE2srdExGowICeOHGd+m3P/gbQvcNrV4t9NbUmnUa37hNQN9qVKlQBAAAAAAASAECRfQMYSK65Yl7P6rJTR8Wuse3O82uHBJ6p7xqjXZtfVBAHytr6+ayAAAAAAAAkHgEiugJwkR0229/8DeZT7GLrrqW+fx6qTI4pO33PcS8ieh3JQEAAAAAACAVCBTRdYSJ6IWzK1froYf+UGeGaNPZDVe9Za3QO7u2/DxhIlCzRwQAAAAAAIBUIFBE19WGdJgwEb3w0sitenzbx4XODA4P0+60hx65+2dVun69gL73vrtKAgAAAAAAQCoQKKKrhr9gD7tFQUCPMJ9i51atu1bojYMb79Ohd9wjALQ7BQAAAAAASBMCRXSNDxON1ZiAHmM+xc4MrblG6D4fJo5v3CYA8meYEwIAAAAAAEBqECiiKwgTESY/n+IvP/j7wvJlh4aaLU/RXUfWbyJMBOZrVJ8RAAAAAAAAUiMroEOEiYjCa1dfrzMrr9H7/sefCUs3vO46rVw7InTP1Jp1+sfv/SUBaLGa0ns2/VsBAAAAAAAgNahQREeGi/VHCRMRFT+f4lfW3yss3SoXKKJ7fJi4/b6HBOAiVCcCAAAAAACkDIEiArv6C/aAWZHZLyBCn9zxaZ0ZWi0sjnan3VVetUa7tj6oyuBKAZinbosCAAAAAABAqhAoIhAfJspqXEDEXhq5VR/7+d8TFkd1Yvf4MNFXJpZX0T4WuERZ77urJAAAAAAAAKQKgSKWjTARcfOV9Vt05N69wsKGbyBQ7AbCRGBBJQEAAAAAACB1CBSxLISJiKvH79unl9bcIlyeb3WaXTkkdIYwEVhEzR4RAAAAAAAAUodAEUtGmIg4O7tytT6589PC5a1ad63QGcJEYFEV2p0CAAAAAACkE4EiloQwEUngW58+vm2f8GZXvWWtEBxhIrAkRQEAAAAAACCVCBSxKMJEJIlvffq36zYKb1ixZjXtTjtAmAgskTEEigAAAAAAAClFoIgFESYiiT724O/rzNBqYc4w7U4DI0wElqyiLXccFQAAAAAAAFKJQBFXRJiIpHpp5FY9vu3jwpyh1YSrQUytWUeYCCwd1YkAAAAAAAApRqCIyxr+P+w+wkQk2RP3flRfWX+v+t1V166l3WkAhInAMtHuFAAAAAAAINUIFPEmw5+3e0xDhwQk3Cd3fLrvW5+uvJZAbLmOrN/UDBMrgysFYElodwoAAAAAAJByBIq4SDNMlCYEpEC/tz7NDGS16obrhaXzYeLYT+4gTASWh+pEAAAAAACAlCNQxOsIE5FG/dz6dOW1a4WlO7jxvmaYCGCZaHcKAAAAAACQegSKaCJMRJr99gd/U/2I6sSl82Hi+MZtArBstDsFAAAAAADoAwSK0Kr/vVYgTESavXDju/T4tn3qJ9mhIQ2tuUZY3N6f3EGYCARHdSIAAAAAAEAfIFDsc8N/akcz12QPC0i5I/fs1UtrblG/uOraEWFhlcEhbX7//6yJ9ZsEIKCaPSIAAAAAAACkHoFiH/NhojE65j4keUDqnV25Wp/c+Wn1i6tvvlG4svKqNdr8gYc1NcJ6AjpQ1vvuKgkAAAAAAACpR6DYpwgT0Y++sn6Ljty7V2m3Ys1qZVcOCZc3tWadtt/3kAsVOfwBHSoJAAAAAAAAfWFA6DuEiehnj9+3Tz/zwn/RLadfUloNr7tWuLwj6zdp/90fVGVwpQB0KKvHBAAAgJ4YHx/X1NSUH7dpjd3Ucm/8r8mp+yruBK9cLBanFKI3/s56Xh2PU9myG+qshP03AADQL4zQVwYPz44OrRskTERf+8A3/ov+t//0z5VWN295t8wA14tc6uDG+zS+cZsAdIHVlN5z52YBAAAgkHmBYc6FaaNGxt/WWGlUc2M2OUXjpIw9ODn5dE/nyh4bG1OlUskb2QPu07y6K5S/AQCAfkOg2EdWfsHmslbHTHQnpUBsPPHEL+qeF7+stFm17jqtfefbhTdUBof0yN0/q4n1mwSgSzIa0713MkADAACwBPPCQxcWNjZlZPKt4DCnmHJB36NPFZ/+hHpgrFDQGbda7FyY2CvW/Q0H3d9wUAAAoCsIFPsEYSJwsVsq39XkZ+7X6pkzSpPr7tqooTXXCHPKq9Zo15YHNTVyowB0U3WDtm4uCwAAAJfVChFzLkDcaWQKeqPyMDHcGNLhp4pHP6ouCilMbCNUBACgi7JC6hEmAm92duVqDdVnUlWlmB0a0sjb3ybMKV23Xru2PqgXrrlOALrI2qN6z6bfEwAAAC7iQ8SRkZHcu27/iX3f+973Jtw4zLgLE39Oc+MxSZzIffT223/i9AsvfPNZdYFfP+XvfW+DO6GcVDjcU2C2bdx4W/mFF75xQgAAoCMZIdUIE4Ere/y+fXppzS1Ki6tvWSfMeewd92r7fQ+pvIrpYoGuy2QOCwAAAK97+OGHVXBOTB134y/2pJUZVzrGYYxR5lPqkm984xvu5zXCqEyczz0lZp8AAEDHaHmaYoSJwOLuefFZPfHELykNbvypTcquHFI/8/MlHtyY16F33CMAPVHW1js3CAAAoM+150XMqLHPBYj7lbB2pstgrervLxY/V1KHHnjgAWMb9W8p/HEq9zeYtxeLxbIAAEBgA0IqESYCS/OV9Vv03277R/qZb/xXJdlV167t+zCR+RKBUJQEAOhIO4RQ98OHihssrwhAT7X34eemvrbPuCDRBVV90BbF5NQFKxoNzUQ0TmWM2SR/cRwAAAiMQDGFkhgm2ppt3pofzzRaX3PLun3TfRut//cyQ5fp2pt1p/QDc183fgvPzn2cWUmHX1zev/7gb+qe8pe1euaMkmrVDf09T2Dxptu096d2qDKYxGlJgCSpHhQAYFkuqWLKn5g6nu9Vq6BdhZ1+MZWRnagrc5RqHKC7xsbG/P683cj+gdufc0JiWFtbKwAA0BECxZSJW5jYDApn6mpMN2RnG82lml9rvB4M2nkBYRiMCyFNM3Q0zY81MPexDyfNULYZQs4t6QjcL14auVVPbNmrjz3zmJIoOzSkldf273ujR+7+WVqcAuEoaevmsgAAS7Z7924fPmx24cNTIYYPow2ZQ+537isU7v9Esfi5ogB0pHVhwIbTlVN/4EYK8gIAAOhDBIopEmWY6IPCxpmqbN2q8WMXIJ6rNwPEdtVhnPgAcymPqhk4rsjMLYezzQpH/3lzSeCYOo/ft0+7pv5It5x+SUkzNHKN+pFvcbr3J3eqdP16AQhBRhMCACxZO4Bwwd4XFc3cau53Z5/68K5de/94cvKIAATiLwz466mpMbcvP6r0zpMIAACwKALFlAgzTGycqzUDw7q7NU7XYhscdmquDWt97pMztTf9f7OqcVX29bAxs2qgWd2YGWa3SqpP7vy0nnjil5Q0q996i/pN6br1zRan5VW8nwdCUta9dzIYDQDL8Nxzz5kIw8Q207CNRwuFwjO0PwWWp92uuF6dOWBl9gsAAKDPkXykwMikHak1NCnT/TDRh2o+QKz9qCrrA8Tz9VSGh0H49VD3QeMlYePlgsbMMBWNSfCV9Vvc7V7d8+KXlRQr1qxWduWQ+gktToFIlAQAWDJf0VStTo+5dwY5RW+tn+/NLd8vAEsyr8LYtyseFQAAAAgUk64ZJq7QMRcmdu0Et366qoYLyeqna3OBGZblikHjUEbZ4bmgMbt6kJAxpj6549Oa/Mz9Wj1zRkkwvO5a9QtanAJRqh4U0GcKhUJOPUbFWHrVajWTUWZHjC7FzLttesRtcxUBWNAl7YpzAgAAQBOBYoJ1K0xsBmA/mp0LEE9VqUDsET93Y83d9KOqqppufq0dMmbWDFDJGBMvjdyqJ7bs1ceeeUxxlx0a0qobrlc/KN50W7PFaWVwpQCEzNqjes/msoCUc2FL3qhRcGdoO9UcQO79OfGugv9VmnJnf1MN1Y8Wi58rCqkwNFTXzLTJKUaMMdvc4qgAXBFhIgAAwJURKCZUp2FiO0SsvTpLG9MIzQ8Z23y7VB8sZtfMBYzMyRi+I/fs1UPPHo59leJV165V2lUGh3RwY54Wp0CU6jokIMVckDjqBo4fdWdmeRe5KAKj7kzcPYbsmAsYy+4sfa8LFktCos3ODrhIuj4Sp0sFra2l/+QR6ABhIgAAwMIyQuJ0Eib6dqbTXz+rC187rZm/P99szUmYGC8+4K39YLb5/Fw4cVbn/8o9Vy/8WNVXppvzWaL3zq5crce3fVxxd/XN65RmU2vWafMHHiZMBKJV1vvuKglIqQ8XCnvcwPEx92Fe8ZBzweKxBwo7DggAEBrCRAAAgMURKCbQrLGHlxMmNs7VVf3OBZ3/SkXTz/+YEDFhmlWMP6pq9uSFuYDRPY8EjL33xL0f1VfW36u48tWJ2ZVDSqvH3nFvM0wsrxoRgAhlNC4gpXxlYkN2wn0YuxcbKzPuw04BAHquFSauJUwEAABYGIFiwgx/wR7OrDCFpdz39WrEE2c0+51pQsSU8M/j5QLG2qszBIxd9vi2fYqr4ZtvVBqVV63R9vc9pP13f1AAIlfWvXceEZBCLkzMuYHjScWYCzsP+ccpAEBPfeMb3zBGjUdFmAgAALAgJmdLEB8mGquxhe7TDJtemVb1lRkCxD7RDhhrrXkYzVBG2dUDyr5lsDn/YmYl1w0E9ZX1W5pVive8+GXFSXZoSENrrlHa+KrE8Y33qTK4UgBioSQgpdzZ0R4b/4HjkUxzbkftEgCgJ8YKBZ25cOGAeydNVTgAAMAiSBoSYrEw0YdKvq2pnxuRasT+1myR6udg/Ma55vbgq1Rn3bZRP031YhCf3PFpxc3q9TcrTeZXJRImAnFSPSgghQqFwoiVHVMC2ObDLdD/GwB6wLc6rUgb3GsC89YCAAAsAYFiAiwUJhIkYjF+zsyq2zamnz+r8391WjN/d26uPep0Q1jcSyO36si9exUnQ6tXKy2KN93WnCuxdP16AYiVCW3dXBaQSnU/fUBOidHYLwBA1z333HOmNW8iFmXLAgAAfY9AMeau/oI9cLkwkSARQbxevfj351+vXqy+Ms3ci4t4/L59OjMUjxBv1brrlF05pKSrDA5p15YHtWvrg1QlArFEdSLSyyiTqLZ2Ria+kzoDQEL5VqdqNHxlYk5YTLlY/FxJAACg7xEoxpgPE2U1Pv9rBInoJl+9OHvSbU8nWtWLJ8/TGvUyzq5crSe2xKNKcfVbb1HS+arEDT/3cRVvvk0AYqlEdSLSqlAo5Nwir2QZKRTuzwsA0BXzWp1ywcbirEyGC80AAEATgWJMXS5MrP1w1gU/ZwgS0RPN6sVXZi5ujeq2Ocw5cs/eyKsUV6xZnejqxPZciVQlAjFXswwaIbWMGuNKoIyyDHoDQJd84xvfMO71wFcnMkftIlzo+tjk5OQRAQAAiEAxli4NExvn6s3WlDPfONcMfYBee701qtvmzn+l8nq42M9Btq9SfHzbxxWl4XXXKqkee8e9zJUIJIHVlN53V0lAapltSiB3BpYvFAoMfANAh3x14oULF3Lu9SBR7a+j4MLEiWLx6UcEAADQQqAYM/PDxNfbm54402xNCUTBb4cXhYsv/Fi1V2f6Mlx84t6P6qU10bQczQ4NadUN1ytp2lWJ++/+IFWJQBJkdUhAShUK9xeU3LmyXJhYHxMAoCPzqhNxeRX3Tr9kZba7MDEe834AAIDYGBBiY36YWD9d1czfn6ciEbFT+1G1eZPOa+Atg8pev0ID165Qv/jkzk/riSd+SWG75pZ1SpqDG7fp0DvuIUgEkqOse++kpRVSK6PsniRfDmWU2ekWhP4AEJCvTpyamsqZBFUnutetckaaasi+6D6bkrIV92V/K6sHisViWQAAAFdAoBgT7TCxXZVYfWVGQNy1w8XZgfPKrnXhogsY0x4ufmX9Fne7V/e8+GWFaeVb1iopStet1yN3f1BTIzcKQIJkLp67GUiTQqGQs7IFJVu+ULg/Xyx+riQAwLK9UZ1oFGO+QtAFh40jLjwsEfABAIA4IVCMgXaY2Jwr8YUfU5WIxGm3RfW32aELyq4e0MANQ8quSech5vFt+0KtUly17jplVw4p7iqDQzq4Md+sSgSQOFQnIuXq+XTM9pDxoWhJAIBlm5nxF27Hdi7dspXx52KHXIhYEQAAQAwRKEasHSbWXpnRzMnzApLOB+LtcNEMZZrh4uDNQ8oMp+dwE3aV4uq3RjNv43JMvG2THtnEPIlAYlGdiJQzyqRivqxWm779AgAsy+7du1WtTo+514Oc4uWUCxJ/y4WItLQGAACxl4bLdBPLh4m2asenv36WMBGp1A4XL5w4qwtTZ1R7dUaN6XRU4PoqxTCsWLM61tWJU2vWafv7HtLen9pBmAgkF9WJSLVCoZB3i5zSYcS3PRUAYFlqtZrJKLNDMWKlYy5MfDthIgAASAoqFCMy/H/YfY2z9XFanKJfNM7XNfP3c8H5XEvUFc22qEkVVpXi8LprFUe0NwVShOpEpJxRYyzm82Uti1HWV1uWBABYkvHxcU1NTY24D2Mzl66VPVgsPj0uAACABKFCMQLDn7d76i/NHJp+/ixhIvpS/UytGS6e/0pFM393TvXTNSVRr6sUs0NDWnXD9Yob3950w899nDARSAeqE9EHzE6lS75QKIwIALAkzz//vPu3TpgIAADQIQLFkPkwsfad6Qnf4tTWrIB+5vcB3xLVh+vn/+p04lqitqsUe2X1+psVJ6Xr1tPeFEgbqhORcoXCh8bcIoXhW4N5FAFgieLU7pQwEQAAJBmBYoiGn7J7Zl/48cTsdy4IwMV8ta6vWrzwtdOaeeHHzXAxCXpVpeirE4dWr1Yc+Pamj9z9s9p+30MqXb9eAFKjRHUi0s4os0cpZNJXdZk62WzWN9otK1ZsWUAfGhgY8PMV5hW9k4SJAAAgyQgUQ7Ly39f2TL9wZqL2o6oALMzvJ82WqH91utkSNc5Vi72qUhwauUbZldHPMfnYO+6lvSmQVlk9IiDFCoVCTvEYQO6F0ULh/rwQW9Vq1VqZZxQfZRerTAnoM2NjY35/zCv6anV/THi/AAAAEoxAMQTZ3z5TmD3544nG+boALJ2vWvQtUX3V4vTXz8a2avGTOz6tblv91lsUJd/edMPP/Qvtv/uDtDcF0mlC99zJwDJSLu1tQTOxmQ8MbzY6OuoXsakCt7JPFIvFioA+48JEvxhVxNw++FtuHywLAAAgwQgUe2zw0R+P2pn6YR+MAAiufqYW26rFl0Zu1eSmD6tbVq27LrLqxKk165rzJPr2puVVKZxyCkBL9aCAlEt7W1D39+0pFAq8WMfU+Pi4BgcHyy5EeEzRO06bRfSr8+fPm4zsfYrWSTf8NiEAAICEI1DspV8/NVr74ewxW7e80Qe6JK5Vi4/f1725FK++eZ3C1p4ncfMHHmaeRCD9JrR1c1lAirmgLe8WOaWbe49RHxNi64477rDuLfdBFypGVqnoHsAxK/OAgD5ljPH7QaQViq0K4bIAAAASbkDoDRcmmow9puj79AOp5asW/W32O9PKrh7Q4FuvUmZlNNdJ+CpFP5fiPS9+WZ1YsWa1BoeHFRYfJD72ji3NORJpbQr0hTLViegHRo0x/2/aGWV8FeYhIZZ8laJzavfu3WPVarXkYo09CmleTxeglIzJTBQnJ2PTdhUIm98Hp6amRky0F5hYqhMBAEBaECj2AmEiEKp21aK/DbxlUAM3rVR2TfiHt8e37dMTT/ySOjG87lqF5bF33KvxjfcRJAL9xOoxvYfqRKRboVDIaS646Qd5//dS+RJvTz75pF9MuHBjwocbmquW8hWmPXi/mC27f8psE4DbEcplv4i6OvFosXi0LAAAgBQgUOy28VM5UyNMBKJS+1G1eTNDGa1460plVg+GVrX4lfVbOqpSzA4NadUN16vXStet196f2sEciUD/Kes9d1LJhD5Qz/fXzA6+GlPjQuy1KhYr7lYSgJ6rVqt+EWWgaI3JFgUAAJASzKHYTT5MrBImAnHgqxZn/v58c67Fmb87p8Z0Q2HwVYpBrV5/s3rJB4nb3/eQtt/3EGEi0I8yBA7oD0aZ7k1snABGpq/+XgBYqtnZWSM1Ip0g3lp7VAAAAClBhWK3tMNEE2lvfgCX0W6H6udZHLhhhbsNqVcurVL8RvYqfTe7Uq9lBnTeZF+/33WNqn6idl631S80P+9ldaIPEg9u3KbS9ZG+lwYQrQndeyfzaCH1CoXCqBu+jbS9XQRGCoX788Xi50oCAFzEyGxSRPxcpsVisSIAAICUIFDsBsJEIBHqZ2rN2+x3pnvaDvX3tvzf9f3v/b3++9BbXIi4+M/fOntaH1nX/XkMy6vW6JG7f1bFm28TgH5XPSigDxg19vt/+41R9oBoowkAF6nX6z7Uy0X3qmD/TAAAAClCoNip8VMjLkycJEwEkqPdDtUbuH6FBt96VVeCxYGZc7plqihNTepPVl635O/70oo1+tIp6Wd0Qb90w5DWrejssfggcXzjNh1ZH9nFuADipGEP6r2bywL6gtmm/jRaKBRGqIQBgDesaLj3fYpsrMZlmY2SAAAAUoRAsUOm1jgsY/qtrRKQGvPbofpgMbsm2GFx5Znv6+4//jWtPPt9BfXfTs3qr8/V9PBNK7Vl9aCWqzI4pIMb8zr0jnsEAC1lvfeucQF9oFD40JiiGzh2I8f2iJHZo2iMSPUxtzwkAIDGx8c1NTU1Em3N+sCUAAAAUqT7vf76SOY3Th1wkWJBABLPt0Kdfv6szv/VadVenVnW93YjTGz7/mxD/+rF8/rs95f+GOaCxG3a8HMfJ0wEcAm7V0CfMMpEFeZ55WLx6TG3jGzw2P39OwUAaHr++ef9IqfoVKgaBwAAaUOgGJAPE63suACkSrsdqg8Wq9+5oMZ0Y8H7dzNMnO8/vDqt/3aquuB95geJ4xvvc593fx5GAIk2oa13lQT0gUKhkHOLvCJiWvMXWpmjik6+ULg/LwCAhoeH/WJEEbERXmACAADQK7Q8DeKTrxUIE4F088Hi7HemJXdbaJ7FXoSJbZ955YLuGs6+aU5FHyQ+9o4tzWpEQkQAV1CWqgcF9I8xRagh81jrQ99y9IAik/HdU0oCgD63YsVr7l8zEt119Pa0AAAAUoYKxeUaP5Uz2cxhAegbfo7FC187rZm/O6f66drrX1//5c/2LEz0ztWtHv3uhdc/L69ao/13f5CKRACLy2hcWzeXBfQJIxtxu9NisxKl1d6upIj4ORwLhUJkFTkAEBenTl3lF1EeD8sCAABIGSoUl8OHiVV7zL1T50060Id8sOhv2dUDuuaa07plalK99tfnavoTe7X++KferyPrNwkAlmBC9955RECfcAFaXrI5RcTKjF/y+UEXcOYVjRFj6tvcMsrWqwAQuRUrVqharY40m49GgwpFAACQOlQoLoOpNR51YWJOAPpa/UxNI1/7PzUwc05h+H//eCVhIoClKtPqFP3GqDGmaD0z/5NisVhyi4qiYjP7BQB97tw5/16tsUbRcCmmLQsAACBlCBSXKPMbpw644YqCAMDJff8LCsu15f+hgekLAoBF0eoUfaZQKOTcOXpk7U6t7FEXIJYv8/Uoq4TztD0FgGgZM3BKAAAAKUOguBSffK3gBgXGBQDOVTM/0FWzP1CYbp36SwHAImh1ij5UzytCxmSvMLd6pqhINahSBIAIWVul5SkAAEgdAsXF+HkTM5lHBQAtqy+8qLCt/t7LAoAFlGl1in5klNmn6JQnJycvO1dhq+1pSRExMlGuFwAAAABAChEoLsJU7STzJgKY75rz4QeKV53+kQDgyuxeWp2i38y1O9WoImIWCQytzFFFZ6RQuD8vAAAAAAC6hEBxAc15E010gxQA4mmwfl5hW1UhUARwBQ17UFvvKgnoM0aNcUWoIbNYVfCEu1UUmQzzvwMAAAAAuoZA8Ur+l1N55k0EEBezK68SAFxGWe+9a1xAXzLbFBErlYrFYnmh+7j/r5ho257uKRQKIwIAAAAAoAsIFC/Hz5soe1gAcBnV7CqFrUagCOBS1lbcEWm7gD5UKHxozC1yioyZWMq9GjKPKTouTKyPCQAAAACALiBQvIxMtT7OvIkAruTC0PUKW3WIQBHAJbJmP/Mmol8ZZfYoWs8s5U7FYrGkCNueuvW0UwAAAAAAdAGB4qV+/bUxayIfoAAQYz+6ZqPC9qPcPxAAvM7Pm3jvnUcE9KFCoZBzi7wiYqSJxdqdzmejrVLMu/XFnPAAAAAAgI4RKM7nW52azAEBwAIurLhetZDbnn7/9jsEAC1TzJuIPldQhBqqLzfMn1CkGpGuLwAAAABAOhAozmNq9jCtTgEsxcl1/1hhOX3jzbow8hYBgFOWqrsE9DEju0/RKReLnyst5xta1YwlRcTIRLm+AAAAAAApQaDYkvmNU/6Ndl4AsJjhH+rb//icalcZheGV7T+rTDYrAFDdhYnMm4g+VigU8m6RU0SsbKBWw1bmqKIzUijcnxcAAAAAAB0gUPTGT+Xc4MC4AGAhLkjMbPl3yu78lOp3fFkv3rdSvTZz7XU6lf9HWrNunYZHRpQdGBCAPmX1iP7h5ikBfcyoMaZIZSYUzIS7VRQRoyzTOgAAAAAAOkKg6GSq9XG3GBEAXM4N31TmA4eaQaJ5+7Ovf/nF+4Z0YW1vD6PP/8vffP3jFatWafUNN+iaa69tfgygjzTsQb3nzkMC+lihUHDn62aPImKlUqt96bK576sErW7skvzc+gMAAAAAIBgCxV9/bcyaTGQDEwBirB0k/sxjMuv+7k3/7Vue/uUvX9Oz1qflB/8nzVx7/Zu+PjA01KxW9FWLBItAXyjpvXeNC+h79YIiZSbUkUxRkWrsFwAAAAAAAfV3oDh+KmdMhvY/AC62SJA434W3ZPTV/0f3Q8XvfOjDeuUD/3jB+/h5FdvB4qrVq5lnEUinslZWdwmAjCK9CLBSLBY7qjB031+yfp+OiJHZJgAAAAAAAurrybh8q1NrMjkBgNeaI3GxEPFSZ2/J6kv/crV+6n87q6tONdSJ2qpV+u79i4eJ8/kgcejqq5u32fPndeHsWTXqdQFIvLJU3a7NmyObdw2Ii0KhkJNsXhExLg9UVxgXStqoLmjMFwr354vFz5UEAAAQI+Pj45qamvLt2d2tPjq3NDl3DjZiZNb4z+3cdFXt21KU/T9mbh7rSkP2Rbc8pebSuq8NlIO2sweAftW/geL4qZytWVqdApgLEu/6/EXzIy6Xr1T07U//wX++oJu/OqsgTv/ERv2PsX9+2TanS+VboPpbbWZGMxcuNANGAAlk3RtcU9uurZvLAuAGghrjzeGgiDRU79b8h34u1Ag7pGR829iSAAAAIjAvOMz54NCFhf62/sTUcbf0X/MubqhnFVhu/veb188lzes/eVdhp/9gyn2l7ALHE+5rU1LWB41TAgC8Sd8GiqZqj0U4JgEgDgbPK/OTf9xRkDifDxW//ovD+vttg3r70z/WurL7FbOLH2h+eJPVS4WHdG506VWJi/HzLPrbVddc06xY9AEjVYtAghjtIkwE5ou0XWe5W1V9bnCq4gauSu7DvCLgBtL2FAqFcf84BAAA0GOtADHnwsO8Dw9dcLjNjZKMzv3vXHDYQWDYLaPuMfhgszAXNjaDRn+u5EJFe8KqUXSjLFOcPwFAnwaKmd84tc/K5gSgP7kg0dx+TJnbS82Pu+2cZvXcNnc66oY+3/KK1bUvG63+oTvgtgoXayuk89dIZ661+v569/mQ+7+rvqpr1L1Asa09z6JtNFSdnqYdKpAIjb3aendJAJoKhft9VV1OEbEy4+oi9/MOmujat/o2Yn59TgiReWNwtbEz4wZX1QVzbdwapX5oaftGdUtjTzfWnxsbOO3O3I+7M+dn4t767o1tp5bzrQDnvjq3dOtivTrU7XUx/7lyQ/QbWm0LQ2L98bYr+1cAxih74IHCTrpiXWI2DtERempeBaIL6BoFFyDunKs8zChh/N+Qd7uzC0Kz+1ohY8kdWZ5xf0uRCsbl6/brd6NZTZo5Stva7nvjuarn3T4wGuQco3VOcbJ1TsH+0mXdPseae76a7yUWneqj/2r0xk/lWtWJOQHoLz0OEj1brav+98EuWrv6tk9p8Jp3qdd8teL0uXPNgBFAzDTsQb33rnEBeJ0bkJ10b0YLiogbkN7QzYGKQqEw4gJF9+Z6yfP/dFtpsnh0uxC61ht/94bf/oF6V6V60qr+0TQGi+31l5H93V4dE9wAyUTDhf5RD07u3r1b1Wp1dH47QDtX0ZNTSNx2+uhTxac/oQBaz9VaFyY86n4SoRriwLqBUnds/JMJoevmh4juGL2ndYyO6jwnLGX3mlHybfGZn3ph7e0jo8YBd169X13mnodJ99r9CYLFzs17rva1nqtu7ccnZezBycmnuzWNRN8K4f2Eey9h3r/Q/tR3gWLmf3ltwpoMJ7RAnzG3uSDx7s/3LEhsq7/8Y9nTMwpiwIWJ17hQMSy+UpF2qECMECYCb+LCt1wrfIuElT1aLD7d9eCiUNhxyAUE+xQR9yZxLW27wjXvzf8X1ftQyGZMZu8fT06mZtAm5PW36EBKt42NjalSqeTdAN4297vzmgsP4zAYf8w9ngeWc7wI+bkClopAsQfaxy5fidi6eCDtIeKVuHDRTjSUOUKodbEQXxNOtl6vqIQLaN5z9ZReb0vcVdb97INPFZ8+KATSuuBsc2t/6uXx9pRV/YErXSyRVT8ZP5Vzm+5hAegb5tYTym7//8qs/yt3xKuql3x1YuOVcwqqMfuDZqiYHbpeYTCZjFasXKmVV1+tbDarRq3WbI0KIAKEicBl3X77Owtz89lEJfNvXnjhhRPqsttv3zht3DicImNnXnjhGyUhFBEELMaF4Tvd/vPMCy98s6wUeMtb3uJWX+NrCmf9rXX7p1t/G4+4/b8nLT38NjHi3H777VvedfttB6anpyfc7/znmgsTc+62UvHgtlvd644XSwqn36hMtH8hwkTEjj3qjomEDR164/j1E/9sZnr637hjxLg7dm1RfI5bURiZa42q/e+6/fbR225/pzvP+uYLQpiv3/61+5/dsfFd5b/twbl72l1yrnq7esM9RWabO+/R377wjWeEZfHP0csvv+yfo8+7T29Ub11llPHnwr9/uXPhvgoUzT/8tUlxUgv0hxu+qcyWf6fMHf9VWnFBYbCvXZC9UFMnfKg4dN02hS07OKih4WENrljRnPGjXu1t+ApgHsJE4Io23r7Rn79HdbV7uVg8ulc94N6YlTfefnteEb038S0UXUDwb4VQ3HTTTaZem320FRaFxZ3RZbb1MhQLi78au16f3WvCbZ25thfBu6/myeVy+e9/7+X9blTt8FyI2KwCiPNAfM4FB6fd4Pizi95xZESz0v9LEbapBq6MQLET7SDx1e+9/Gvu0//YuuArJ1zqdvf6+wvuPG/Pxo23VdzrSN+GWw8/fL9+/OPGLret/DOFw19Q5c99/rM79/mesGQ33rjanauql2FiWzNUXOp5Bd6wdu1ak5lrc7pF4bjqSufCiZsRN7Bff21MvZunAkBcDP9QmQ8cUvZnHpNZ93cKU+PsrDpVO/s3qrpbVAaGhjTsBgLWrFvXXGay/VXIDoSOMBG4okKhkFeEA1V+Xhz1kJU5quiMFAr354VQ1Gr+gjOzU+HLSfUxJVw2O+PD0Y8rZG4A9ON+zlN1gQ8S/THtdOXUMSN7THMtj5PSGnDJ6/9MJuMHc5liBkgRHyT6Y+FzU1874NvQu/OXcfVva9Pl2CBrJnYVdn5r164dfXlcPHv2Gvf6Efr5j6+S/11hyfyFW9PTdky9aXN6Of684lPdOsfqB/45staO2pAv2HL770OX+3rfBIrGZA4IQHoNnpf5yT9SduenQg8SvUZlRqp2p13o9Mt/pKj5IHHFqlXNYPGaa69tfgygywgTgQUZNcYUoYZMr+f3mHC3yOYxzCgb2RyO/aQ110lU8+GZjDJ3K8H8QPb0dMavu7AGueZzv7fW0e9tBYnbXZB4ci5ITOxFzjk/p+1Cd/DPVaPR8M/VgvcDkAwEiV3Tt8Fi64Kq9QpfnrBq6er1ejPgU7hG0nDRW1hW+G5y0ZxD5i63L/VHoOirEw0ntUBambv+VNnCAWVuO6aoNF47r26JukrxUlQtAt2XGcgSJgILmHvjEklFV9tUsVgsq4fcz/dhYmSt1yyDLaEYHh72i8jWcyPh4U65XPaLKMLEFhPod19SkRjW3Jk9Vsst9L/RP1cAusUfw6ampra749dxgsSuaQaLDxR2PrXYBRppkc3O+EVE206d1ttL0LoYKKfwz1N8iLlDWJLZ2Vm3vmxs1lf6A8XxUzmqE4GUuuGbzYrEzF2fb1YoRqWb1YltcahSvBRVi0DnTMa4feeqg42f3jguAAtoDgJENnjlBs8OKQS291WQC+HKYGBhfp6fZR2H2hU9Zyo/ejThFYkA+lDrGLYhXRdDxIuVdrl1+60HCjtSP1ZtzLD7e20Uc0j6Dg33CYv6u79rdniLKnzl4sYl8MflarWaUzTnlFOti2AvkvpAMVPTHqoTgZSZN0+i/zhq9vSMui1uVYqXurRqMTswIAAL86H8qpE1R2Y3/YNxAViQUSbqllDPKATuDVpJEbY9des5yipQIFUuqejZLwBIkI985CP666mpfe4Y9jVxMUSvGV/56dugprlasVarufzUhnJOfSkbXUiWKNFXvlFJupjnn3/e/VvPKwJW9sXLfT3dgeL4qZy1zUlFAaSBnyfRtzeNaJ7Ey7HVuuz5qnohjlWKl2pXLa6+4Qatvv765se0RAXezO8XLnw/cu62W8cEYEGtgZW8ImKkiV63O53PDSg9pujkC4X78wLQkd27d5tWVSIVPQASpVWVuPb8uR8fa8j6Dg1UDIVnQ/qrFbNRtfcf4Rx3YRFXvnm+7elDwoIGBgbcejLbFL4rXhCQ6kAxU62PU50IpIN5+7Nz8yT69qYx0vjBBfVK3KsUL5UdHLyoanFgbtJgoO/5oP3q6649cvYnbhoTgEUZNcYVoYbqRxSuoiKV4cpgIKD2QHytOvtFqhIBJM28ymqqEqPTrlb8YtqqFZ988kkNDg76QDGKbhxGdOJYUJSVb/OM0vZ0YbVazf1rItqWs6XLfTW9gaKvTjSRt0oC0Kkbvtlsb5rZ8u8inSfxcprViT1odzpfEqoUL8cHKNdcd93r4SJVi+hXK6+5RlevXnPkzNtvGBOAJYrkCsy2crH4uZJCVCwW/UBLSRExMrxnAgLwYaIbiN/AQDyAJPItTs9WKvuprI4NH+z6UHFUKWNlw75Yr8lE+54iCeJQIejCxFrqtvlu8Rd9VKvVvKKpHC+33qe+SWoDxWZ1IoDk8u1Nf/KPmvMkxqW96aXsj6bVa0mrUrxUuyWqDxZpiYp+4rfza669VquGrz7yow3XjgnAkhQK9/tquZwi4gY8jioCViaS39tCSyhgmeaFiQzEA0gc36b5wrmzjzZkHxXipHmRSqHwodRUvA8PD1v37jiq89zRNM9R2YkYtDttMxllaXt6BefOnTNSI5LqRLPABa/pDBSpTgQS7fX2prcdU5w1zs4qDEmtUrzU/JaoV69d2wwXgTTy7X59he7A0NAUYSKwPCby9puZQ4rGhKJpB9VklP2UACwJYSKApKJNcyL4qrHfTcu8irlczi+ianvq1GntfxkxaXfa5BJnnqMryGZnoqq0tQ3Vn7jSf6YyUKQ6EUio4R/Gtr3ppRqVGanaUBh8leLMa88oTQavuqoZLo7ceCPzLSJVVq1Z0wwTM9nslG2Y7QKwZHNXEEfXftO9mS0Vi8WyIuB+byWqdlAteeYvARZHmAggqS45fuWFOPPzKh5IQ6jot7vBwUEfJk4pfD6c3SG8Sa1WM5n4rBu6pVyG33empzM592EULWErC00Dkr5AkepEIHl8e9O7/lTZf/JvYtve9FKN18INPNNSpXgpk8m8ab5FwkUkkW9x6tv6Dg0P+0+bYWJlw9rIqo2AZIr6KlkzoUhlioqOb6dDpQKwAMJEAEl1yfGL+cqSwYeK4w8Udv6Bks9aNZ5QNEa5aO5i/nhgrR2JUWWgex+SiaStZ5xFWUXqnpAF35emLlCkOhFImBu+2QwSM3d9PvZViW32fDW06sS2xuwPNP39LyjN2vMtEi4iaXyI6MNE39ZXhIlAYEaZKK/C9vtslPMY+irFkiJte2q4ghtYwAsvfM24wfinRJgIIEG4GCLZXOizN+mh4h133OH+zUZ14ZwLE2uE6PO8/PJfKi7tTttMhF1qYsxX2EYxv6S1ZuF5T9MVKFKdCCSHr0r8yT9S9mcea7Y6TZJmu9MI+CpFWz+nfnBpuLhq9WplBwYExIkPvH2Q6Nuc+mpbESYCgRUKhbwiHOQyzTyvGPm+a2UeU3RGaTcEXN5YoaDZ6eZFDwxKAkgMwsR0SHqoOK/taUnho/rtEmfPXuOCKhO3dULb00tkq1W/yCsC1toF591KVaBIdSKQDObWE3NVibcdU9LYal32dDSBog8T016leDk+XBy6+mqtvuEGKhcRCyZjXp8rsVWV6JVdmLiLMBEIxqgxpgg1VI9y/sL5Dik6DLgAl7F7925VVN9rZRM/l1UvnTvXvPCR8yAgJlph4lrCxHRwoeJYkudUXLFihbUyTysCVL9drFaruX9jFyjyPmSehx++X9OqR9KS1h1rSotdaJueQNFXJyqzTQDia/C8Mvd9pnlLWlViW+MHFxSlGRco9kuV4uXQFhVR8+1N19ywrj1XYlu5VZlYFoCAIn1TW15o0vkwtd68lRQRP+DCPDPAxarV6gajzKeEBc21tCNQBOKi1aaZMDE9/JyKB5IaKr7zne/0i8janrrzWzoMOGNjY/68Jq9mK9h4iWHVZGQirCK1xmQWvdA2PYFitVFwW15OAGLJ3HZM2cKBZnVikjXnT4zy9/dpleLlXC5cHFy5slk9BnSbD66vufba+e1N2wgTgQ4VCh8aU4Rvat3gzLhiJOK2p+55qI8JwOuMGn7wNicsqNXSrixCRSByu3fvNrPT+l3RpjltmqHih3ftSlzFnX+NyGQyZevePyt8bpCoEUm1V9zMzMy4oKoR1+0nR9vTOe55cv+aSArnFmt36qVmQiqX2u4TgPgZ/qEyW/6dzLq/U9I1506sNhQ1X6U4dO02ZYauF+a0w0V/82ruxXfmwoXmslGvCwjKB4lXXXONBoaGLvffhIlAFxhFPgf6om+aQlbS3IB8FCGrG2TI7FC0rVeB2Gi1ScsJzsCSgkIre4TxGSA6fs7XM9XqARc87Ve6VFwYVXHJUNm0QqmG7Gm9+SKGkYzMGr+0c7ecSddx3DRs43ChUDhRLBanlCBZN27TaNSOKoLXCPe6dJ8QaVC1BL7taV4RdmuJA99qv1qtjkZ03Jpyx5XyYndKR6D466+NUZ0IxI+vSszc/flmq9M0sD+Ktt1pm69SPP+dI7r6Hf9P4fJ8+NMOgOrVajNYnJ2eVm12VsBSLBIkeoSJQBe4wZCce2XLKyKtOSLKihHf9rRQ2BHlgHzePy9xWy9ARHJC0xIHrt1h1bfKsgSKQAT8vFuvvlrfZZRJ9Jyvvoot487RGjL+uOPbXJU7OS9pD9CreUxvjLrAcZP7HXnFsO3jEvl2tk+587X3J+l8bXh42FYq1aMRvUb489uRxeaGSzPf7rRSqeTjHLC79z/+wsZx9bEVbiyq1ZY2dFaLVyd6qQgUjUn2CyWQOn6uxK3/PvHtTefzrU7tTHwq3aqVv1T17N9o8Jp3CQvLDg42b0NXX92sVvThYtUFi1Qv4nKWECR6hIlA1zT2Ny9GjYyZUCxlihEOyPu2UGPq8zfzAN7gDgoTS7nfk08+qY985CPHz5079wk32P27AhAa31JyampqQ0L3PV95WGyo4Qazs8Vuhz7+2ORMtW7NefzmhYzb3Drz7TDzShb/XD/llu9WQkxMTPj1XqpVZyPqxFH3z/OE+tQb7U5jPU3QaL9f2Dg7O+svGNih8Fn3HvDoUu6Y/DkUf+M15k4EYsSHiGmYK/FSzXanMTP98h8Jy9NujernW/TzLq6+/nqtWr26GSKhv7XnSPRzchImAuGJaLL5Nn+1+6KTzkfBPa6SImz3456XjwsA5pxqyPzWUu/82c9+1s+l+KiV2ato5soC+tJzzz3nB6G/qARVVvtOEe5Ysd3dNjxVPLq3WPyTibAqyHzI6Cuv3e2xTaObm48hgcetzQ8UdiQqQB4YGPBVUEsKLbrMZJTp67anMW932ta+sLEv+QtDqtVqTtFc4ODeG3+utJQ7Jr5C0ShDKw0gDgbPy9z9eWVuO6a0sdW67On4BYq1s39DlWKH5lcv2kaj2R612RrVnWjVazUh3UzGaMVVqzTkQma/HSwBYSLQRYVCIe9eZXOKiIn5/BxuUOsZE1072JFC4f78Ut9UAkitU+5Y9NHlVgq0qoEmdu/ePeEGxsYysjtbc5n5ipTQqlJMyL9vPkuYekUpm88uFprzJjYavntbTvFXcceVx9zyUFzaT/pBfM3tsxNjY2MTc20hrV+fecWcnyvTnbM9nZRztqGhIXvhwgXfGjv0OdTdcdlXKH5UfSjiefmWpZ/nu3z++efdv/V8FDWAy3lvnOxAcfxUTrXo5lwB0HLDN5Xd+u+l4R8qjey5+AZL50/+/7T6jn8jkx0WOmMymYvmXvTtUOuzs5r14aJbEjCmh69GXLFyZbNa1T/vS0SYCHSZaV59Gl3LncbcYFacHXK3qKZ2MEbZTynmoSuAnjrpBqofWOLciZfVDhYVQYu5ggtY/q/27jY4ruu+8/z/3AZAUrBC0JTlGU9m1XQV1zND2YLk3arJi5Wa2tjjZGWpqRhTk3WtBepF9tXYkt8ktXFZoJw4marEpuaNtvwiainr2BXJBsSyrcTKhvDuG9fGFUHeUFuOnGHLTrRl6wEtUwABdPc9c06jm2qSeOiHe885997vp4xuioJFoh9u33t+5///a4kXzMKkj+OoWbdun2ZTxvX+Q7WqNkXHgsR056Kd7AZgIQsuSNyJbctpLJuQcbnbQvZPJOxg0Z6z/Yk55t2RhfmA5XLZtua1nys+2p4WecOcrfwLvd1pT2HnXU5MTKhW00sVqdYqGrhyONOBYtRsL5gfVgD4oz78TC6rEvvFr69LqOKt12TjZ8/Jofd9QpAs2x41OnRIJs2X1QsYe/MXCRizpVeNaIPEfVqa7oQwEUiYnY3hY2dyn5VxFsldsBfRp6r3LYu/RazZol7MA4Eyi/HSez/aeWOpvDfNf7ceS/tZs+C6JACC1p2beKQbegXLHFeeiEV9NkvnFN2qxYtzc3MnbaV1N7AtS5iORRLbjWCflcDZx9U8po1Wc8ueh1fELfNSjOy4hWUpmLZZz/I8amJI7XnZ3lxZKK3OOqOf52lxcbEAgeLCalm3vC5CAMU2/YaU7vyKyJF/lDzT602RZtgbKDdNoHjwvb9GlWLKrg0Yey1S3wkYm+b3tCAcY4aIPQ3CRCANflq59GhRmbhANX/PMz7bnhb1Yh7wyZxNrpij44pZfLeLra+Yr04lB+E+gGtduHBB2SDJnC+UJUy20vnBxe3Z0JnUq7SuVqs1c78QaiVollqfTk1NaRPSnvNxjqvCnyGYuO7Gg3KG2k0rJdG9UrBrkG61eUV5aNU+7FzT7Jb3bdlFCAA+qA+cl9Kv/2Huw0QrboQ3O/Faur0ml//pGYFbvRaph268UW686SaZ+Wf/XH7pPe+R6ZmZTivN0kTmxxRnkg1+D0xPy41Hj3aekxsOHyZMBAIUwBz070kGLG0vwPkKEXoX8wBSZGftmYWcx8xi8EnzdWRp6dnbv7n07Gnz/n9saVudMBHAtWxIYEKZsg2SJEDmuHbW/N3uWMpwmNjP/BwyMzOzYH6muyXMGam91qde5sYO4/jx4/auJn7MbndKKY6XX37Z3lUlWypZeC0naW1tzbal9VGdqJUqDdWVIrOBolJR6L3BgfyZXBf1K38q0Yef6fw673SzLfqt8ANFa/Pnz0nz0ksCv0qTk50w0YaKv3TzzSbQ+medYOuGX/olmTx4kJAxBbYK0c5EtI/xYfOYH37ve8cNEXt6YWLQLRGBLDIXh7PmblY8MVdqNbtALxmh/c56rNhZMwIgaY1eiGgCxGNLS+cesovuBIcABvXDH/7QBEj6ryU82hzbHjbHtYfzdkyz8xVnZ2fPd0PFEK8Tj5lAIsiAuZ8NwycnJ+1rY1m8aGctXBtLu33JHis+JZnT6ZRSGKXSprcKWq31UJttsxkofu71qnmEywLAnSP/2KlKjI59X4oiK2Fiz8arVCmGplfFeOBd75J3vfvdnZDxyPvedyVktJV0NgyzoRgG0wsQO5Wh5nE8fPN7OxWi9jGOkgtsCROBFCnPCx1aRVmbC7Ys/vRmzQBIRsO2MjZfV0JEAYAhzc3NSRw35yW8Foar3arE3LYqtGGY+fkuHjx0wx1a9JMSGBNIfDoLFXjNZtMGzz46hhSqA4d9vW5sRGXxuJlzRDxPjmhzrTnsZttMBorm4MjsRMChTovTX/uDztzEIslCu9N+rUsvyVbjbwTh64WMtpKu1y61v5qRoPEdtqpz6tChzuNiW8rax8o+ZgdNoGgfRxvaJowwEUid19kl9WEGzoegGzgsiyf22qtoLYeAFPQFiUsLVCICGEe73baL7Z+XsFzshomFuI762te+Ztbho3l7bJewHIlEf0kCNzk5ae98nZPPFuXc9sKFC7I9uz6TeJ7SZ45j8TkZUvYCxYXVsrmsLVRpMuDN5LpEd35lu8VpwehLWyLNWLLm8k+e6sxURPb0VzNeGzTaIO1dR450QjQbrtmwMW/tU+3sQ9sW1oapN9iWseZnttWctqpz2vzs9nEpbV90pIowEUhXtfrxefG4m175rfYbmVms8hmCzijV9hkCA5nWnSNGkAggEfNVsyQax3YMVFnCYcPEu7PUUj4Jdq6isRBaqKg7EwbCbln/9NNPSxRFK9rPPEoTUrWyVrE3Krv5IIPtTjtmCtSe1uPzVFqWIWUuUIya7QUBkL5ui1P1yy9KEcU2UMygeOs12fjZc4L8sEGjDdImTZBo23zacM2Gjb32qXZuoK1stIGjreK7NnS0QZ3/n0FdCQzt383+HW1oaP/Oh3s/x3vf22kLa8PUAzfc4CQ8vJaO49OEiUC6zNHAa6eROLxd5IOqmS9fQYQSHX1GAAxrdXtGYv7miAHww7bFMweTY1p0SJ3bChkm9thQ8dChQ2cCa39qwolSaBWs1yl11iq0j01zhWjpb48XzWazbH5ZkWxSkUR3Ss51nydbiVkR9+qjVJVnrrxBS8TuWCBltsVp9KHvdCoUi0g325mbn9hv0wSKB47eJdGB9wjyz84NHHR2YNxq2WHLNjjr/HO73d7+/e59//ftxwad/e1Ge8FlZC5d7O9f+eeMVFJuh4k31QRAarbnueiKeDLKfIhQ2DCiWr33WY+jHyq25RChCDCwF8wC+/1FXWAHkI76yoqtDHlAh1OduFrkMLHHtj+dm5s73Wpu3SLhhDcVW6W4tPStZQnU9PS0bjSaJlDUzjeudc+pH5Yce6eNZiYn3nVsV9tWP5vna5BXX/2BuVUVH8/TqN17svWK+tzrVfOTlgVAOkyAqD78zHaL04KGiZZe2z9MCZltebpWf1yAa9lwz1b+2daqnfaqN9zQ+bKVj/1ftgpyvy9bSdj//+n9t2wlpf1vDxN0+kaYCDgzL16pmmRaVBN/zPVm/JAA2JcWXWOBHUAafhFFKqDqRG2OdQ9yrNt24sQJ+3jcL35aeO4k+CrFWq1mZykui58uHDOht4VNQJbbnfbkvj3tpUs32m35PipmdSztp2QEmQoUPe7IBfJv+g0p/epjEn3gvBRd/Hr2w9TWpZekab4A7I0wEXBH+V0AswsVPucQjs0s2C2Lv7an9los6wsSQOrMQv+ZpaVzp6nmBZC0ubk5iePmvARSnWiOd48udYcIYrtt4ezsbKdiUzyer12jst0hJFwTExP2teSr7WlFcspzG80k5b497eam7ZCnfHTkbIxawZydQHFhtWwe3KIM4gTcuvnvO/MS7dzEotPrTZFmLHmwfvHxTrUigJ3pWD9MmAi4YRYzKuJxAUx18rjsL/CbRarHxJ9yAXZyAyPrhokLAgApaLfbttooiIozc161yPHuejbEmZyctDMlPythsB0mgp6D3Wq1tPkE/Z54oETldj5ft91pLnKUPBeYbW8UiW0FZlkcs9fHMqLsBIpbtucvgKTZeYm2MrHILU77xY3szk68Vrz1mmz87DkBcD0V6zONY0fPCgAnlMTz4lEs7SclH3wet3K/QxgYlQkTz7K4DiAtv/Vb99jqRBsOlMW/i3E4gVlwnn76aRsq1szngs9NYFfYMMbOwZZAnThxwtyWbLDhY+NfJeTHZhwmqFWRRPdKPuS2Pe3U1JS9q4h7Wqto5CA/M4GiUtEjAiA5dl7ir/zp9rxEdOhmW/Rb+QkUrY1Xn5F48zUB8A4bJr557OiCAHBiu9WS152l9VHbuYSmW2W5LJ6EvigFePKCCRMfFgBIyWuvTdpwIITW41pUdIa5iXuz8xTNkvsZCaP1qTlva89LoLpVnfZxWhEv8lHFd63tVrKZb3fak9tNjVtbW0qJ9hL8aj16q+FsBIq/u1oxL52yAEhGb17ise8L3qHXWpJHa/XHBcA2wkTAB7+dRrTEQewQT4r5eXxWWwa9KAV4YFvb3S8AkBIbuJiF37IJB7wHH+bvsLK4uJiXrg+psc/ZzTffbOcpPij+2Va5QYcxU1NT2jxW58Q9G9Tnru2prWhuNjfs8SI3mwDz2Pa0O+eyLB6CX3MsXx5nHEgmAsWIi1YgOUf+cbvFKfMSr5O36sSe1qWXaH0KCGEi4ItZxPA8u6U08nyIMHlrC2XZRam8tE8CxmUXQO+nUgdAmrqz0Crin1mDZgPFoL7yla/Yyjt7zrYs/lVCbhl5/Phxe1cTD0II6pN26dKN5nxd5a2iL3dtTz0e27VS0VgbQzIRKGqJ7hIAY1PHvr8dJk6/Ibhap93pelPyyrY+1e01AYqKMBHwY7vdqcyKJ93dl3XJEbubVIv2WR1g5814e06BUJj34aPm/eipRRuAoiiVNu1mnk+LZ8oEPmygGM709LTdePKoBCGqSKD62p4ui3u5C6o2N22xhMpblqJCfg2PwuecS631yPMTrfADxf/t9XnanQLjUx/8jkS/8qed2Ym4XvzaZckzGyau/+QpAYqIMBHwR0m8IF6pmuRS5LPq0lzQx7mcNwMM4eLS0rkFAYAUzc3NycZGZDfx+N7Io+NggrHsqNVqNihblgCqFJUo76H0XprNpg1fxwo5RpSr+Xzz8/MSx3HF/LIsbjjrmmJewyHMkU2MxzmXK+NuDgk+UFRR7kp0AeeUCRKjD35bsLs8Vyf2bL3xPWleekmAIiFMBHzzuju2bi6Wcjnnx/xcy+bOW2VU6ItSQMrMmmd0RgAgZSZkMbex93VRqhNHF1CVYtCVeDMznXF/PgJFyVN70M1NW9EcO5s32O2a4ipULOelS4oNfs3xvSIe5lya52zs91nYgeLCatm8rdn9Coxqcl2i//GsRMe+L9hdJ0xsxlIE6xcfp/UpCoMwEfCrWv34vIi/TiMqjJk1qTGLU8+KP7lrDwUMob64uJjLzQoAwnLwYBzCLDSqE8cQUJVi0JV4fY+Tjznh5e6Yhsxz3O5Um9dUzeEohtx0SVlbW1OeNouY5ywe+xoy7EBxK4ihw0A2Tb8hpV//Q1HvfVmwt7ixKUURb70ml//pGQHyjjAR8E9J5Gx37E7M4tdjkm9nxR+zwFn6vADFQ3UiACfsXLmNjagsntud5nEetWuhVClmoRLP35zwduaDKg/tTuszMzMrJl5ytsnRvIbvlBwolTbtz+Kjk099aelbyzKmoANFFfldhAAyy4aJv/pY5x5708226LeKEyhamz9/jtanyDXCRMC/7i7fivhj2516awnqgvn57A7uZfGnYp5n5216AM+oTgTgxIULF8yt90ILrVTEMW9Mnqvv+gVdiWeDV5fhVB+lJLpXMs511ZsJf5/18NquZL2a1OdmkaQ6+IQbKHbanXpdhACy6cg/dioTCRMHo9daUkS29SmQRyZMfJIwEQiB3wUwLWpBCsD8nD4rpeyixUMCFAfViQCcabVaKvIfcrCJIiHNZtNWKQbQPSPcSrxyuWzv7IZAH8HrbNY3yrXbbZdVqFdaZ05MTHTCRXEm29WkHjeLaK2SCezDDRRpdwoMTR37vpR+7Q86sxMxmKJVJ/Z0Wp++SutT5Es3TJwXAN4piR4Rv8YeNp8FS0tLy+Jxt3te2g4Bg9JaF+LYAsC/7UV6v4UWeZ9H7dLsbKcYyXegaEPqD0mgbOXWoUOHGm7DqStMmNjy2l54HHNzc7bdqf37l8WNK60zDxw4YCtLnc1RzEE1qf0ZPiUeJHUeG2ygSLtTYDjqA+cl+pU/FQyu0+50vSlFtWECxfZ6XYA8IEwEwlGtVivi7mL2OnYRokizfvzNmumoVKv3VAQogKIdWwD4Y8OBZrNpwwGfFVM6lvZTgkTYsGxyctJ3u3obUgdd3dVqtcxf0cvmHZOfR8HPmNzN1NSUvauII/2bDTxUlmZ27II9Dphju/27V8Sx7nlsIs9RmIEi7U6BoagPfkeiD1NtNix9qbhhYs9andanyD7CRCAsSuJ58Uip0hNSKNGS+JPpxRdgCNocW3y+1wAUiOtwYBdXKpCQDPO82ran58SvmZBn0J04ccLc+vm8VaIyW9zUbl9SSrSrqrerNhv4qSxtz0sGvfrqD8RXu9Mkz2PDDBRpdwoMrBMmfvDbguHFb16Womuvv0LrU2QaYSIQlu3dol4vxu2sHx9tkrzptj1dFk/s4kvWZ84Ag6DdKQBX1tfXVSTaa1tx2p0m7/jx4/YugM0p4a67e67knMli5w37mG1sRGXzS1ctW6/bbOC4sjSzbU8vXbpROZxzeZUkz2ODDBRpdwoMhjBxdHqzJdKMBbQ+RaatvNn4yUMCICBtr22Uirr4pUX5DFFnfD/vgAMrtDsF4MqBA23bmrIs/mitIjZRJMwGP1EU1c1zWxd/zOmyuk0C5rGS03beqEjGvPzyy/bO2bn4TtdbfZWltD3dw+bmprlVd4l7iZ7Hhhco0u4UGAhh4njiNzYE73j7x38sur0mQIas6FidlNtvd3XCCmAASvxuDIxFnZFiqom7C/hr2V3CrlosAV6o7dlAAJC6brWRXSh3VW20I6qy01Eqlcyt9tpNQ/kJNAbms5LTPDZeK4NHsbW1ZduduqrY23G2al9lqcPzpWxtaLSzceM4tsf1sjimJU50Hm54gSLtToF9qV/5U8LEMel15if2i7dek8v/ROtTZEYnTGwcO0KYCASkO4+lIp5okeWiVhCZn7vhuTozk7uEgQFRqQPAmXq9bu+8honSaWlIVXZKbGvIF8WvsgTMhlMHD8Z18bOZJ1PntPaxajabZXF3DbbXbFWddHC1h8xtaPQ7G7e0LAkKLlCk3Smwt06YeOz7gtF1wkTanV5n8+fPSfPSSwIEjjARCJSSeEG8UjUpsFjUY+KPyTNjWlAjt7RuviIA4IAJB+yd3+pE/4FXbnVbQy6LXzPdjYDB2tiItL+W/tmpfLtw4YK4nIm51wbGvranrsxmKfx1XEnaz24QSTScDytQpN0psCfCxGTEjU3BztYvPk7rU4SMMBEImvf2SYWuIDIXisvir+2pbRH1aQFya4KWpwCcsIvOZtXiFvHHVtBRlZ2SQOYoilJhz1GcmenkRD5ehyqSKEttT11W6tmODbuGvH1tT5fFDfMiafmu5h6Ih0rSK9LoYhNWoEi7U2BXhInJod3p7mh9ioDVTZh4ijARCFO1eo/dyVsWT8yFUo3WXHYF0GuV4ox5HVQEyJ+GbSssAOCIEt9hj2YTRYq01nZB3utjrHXrmASsVqvZcGpZPGyWM2FvJioUPYRUjcXFxT2rRqempmxl6Tlxw4S/pUy0PXVdSdrHzrx8UhIWVKCoInWfALiO+uB3CBMTQrvT/dnWp1uNvxEgIPVuZWJdAATJXMx5HVuQxoVSRtXEH3tRT5Uickd7XvQFUCztdtsed8riFVXZaTKBolnk99pW1lbhfUgyQIv2cY6fiU1yHtqd7tvO9Pjx4/auJo5kJfxttVr2Peej3Wljj5mXIwtshqLKTI9iwJVOmPjBbwuSQbvTwaxf/N8l3nxNgAAQJgKBszNYPF/M1dO4UMqibpXmsnhiXgeVLM0yAQaj3xIAcGQqju3CfVn8oSo7ZZOTk+ZWe53NawLNIxK46elpc2oZ+ZijaN6CUfBFT45Dqj3bnfb4aHuahfB3YmKic50kjumU2leHEyh+7nXCROAahInJo93pYOwcxbX64wJ4RpgIZILfsQWedi4HS4vysfDSY8LE9rwAORKJWhUAcGBubk42RLzOBKMqO30nTpwwt6Vl8ch/W939lctle2dfj84DbvP4BB0o2uBOaz3jclOn+fMGCqdctz0NPfydn5+3rWkr0rlOckorVdq3qnQUwQSKkc5GiSrgCmFi8mh3OpzWpZdk42fPCeAJYSKQEUqiR8SrqCboVxMPCy9dSvlp5wOkJhb9EwEAB6anp+2d10p/s1BcF7jguwo0+I4SfdVuPkLusu3CIoF69dUfiMtNnVr0s4NWLrtue2rCX6+jN/aztrZmQs/YS+g5aAg8rGACRS3RXQKgQ33gPGFiCmh3OrzLP31SmiZYBBwjTAQywlxoV8RjWy4tstxt84kue7HvuWqzkoXWQwAAhGZq6nVz2/Ya9LCJIn02KIuiyJyveQ1vZ7LQpt5xtds12sEWP126dKNyWEU5VKUbbU+vVipt2tDTee6V5nVyGIHiwuqseWTLAkDUL78o0YefESSPdqejWb/4eKcFKuAIYSKQIUriefFK1QQ7iFJpbzMg23qoIgAAYChra4fNbaks/pg1aF0XpK5UKtkTprr4FXyg6LrarU/QXTdarZa5ddeWVWs91EgF2p5us+HqxkZUFvetrM2xPE7t8Q8jUGzGtDsFrCP/KNGv/B+C5NHudHTx1muydpF5inCCMBHIkO1dzV7nizSWlpaYn7gD87gs+9z1rkR9WgAAwFDW1uxG3viweEWg6MLExIRtI/mKeNUqS+A8VLv1mw2xitP1TL5updtQLXq7QbCzDY6hzry8cOGCuGxNe7VSao9/EIGiUop2p8D0G1K68ysik+uC5NHudDzNxg+Yp4i0ESYCmdNpA+TtIls5vEjNJuUzbA269RAAACE6dOiQOb2hg1sRbFeY+Z6jqMqSAR7bnprrnJbryrJ9bW5uKiWxq7mBWqlo6GuKbhBcF3dBcDnQaw9b6fopcW8lzbEg/gPFhdWyua0IUGQ2TPzVxzr3SAftTse38eoz0l6vC5ACwkQgg8zFkasL2R3F0qY6cW9nxR9z8Vz6vAAAgIFtbGyYhVrluUJxoi5InQ3JzLK85wrFbHBd7dYnyFaaJlA0t+6Ks7TW35MRNJtNGwSP9P8dQXAjF2yoah4Du/m2Io5p0ak+7v4DxS1fZZ9AODqViYSJqaHdaTLsHMW3f/zHzFNE0hqEiUD2VKvVsvjdFFhfWvrWsmBX3dZEy+JPJcQ2UQAAhGq7Dab3uXaeq+aKYWtry9y2fT/WmThPs8FMFEV1H+38lSivGyivZdudxnFcEUeVzN12p3UZwexsp7jT2QZQ81zdKQF59dUfiKd2p3Z+4lAzL4flPVCMFNWJKDb14Wc6sxORHtqdJod5ikgYYSKQUUriBfFIi1oQ7Ms8TmfEH2XOHB4SAACQGcPOSsNojhy5bO98PtbmPE1lZuNXqVQytzrVkGQXQbXxz0K70x4bBB88GNfNL1fEjUp302sQLl26UXma7Zj6xlvvgaKWiPmJKCz1we9I9IHzgnTR7jRZzFNEQnphoquTSwCJ8j4D3VX7nKyzx1hvi1XmIvpeAQAAAymVOpuhqe4vgK2tm8xtyXd467m97uCmp6dti1gfgWJQrTSz0u60Z2Mjsm1PHT5v7aoEwvVz1aMcdKjxGyj+7mrF/JRlAQpI/fKLEn3w24J06c0W7U5TcPmnT0rz0ksCjIgwEciwavUee6FWFk+06GfTHDKfJ7bKwDxePmdNzoa0qxsAgJBtbXlveUp1oiNra51RMl4fb//zOgdXq9VkcnJyWTw8ZqG00pybm7PtTm0f0bI4ME67056Zmc7hzNkcRSVREJsZXT9XfbRW6QfvnisUOw8sUDzTb0j04W8I0qd/sSVIx/rFxyXefE2AIREmAhlnLtS87vxUqvSEYAjRkvhjd3X7aPUDAACGR6DoyIkTJ+wdj/cQtmeMeml7GspccDtOIBPtTntsEBxF0bLD+ZdBPFdTU1P2riIejFtVOgivgaJSiotLFM/kupR+9bFOqIj06UsEimmx8xTf/oc/EmAYOm6fIkwEsmt7LoVydSG7k/ri4qKPhYTMWlpaWhYHrW92o8zrJZBFGAAAgJB4DRRjyVbXwAMHDti2p546b/hvpWlbIqsMtTvtiePYPG/K4fPWnhfPtra2lBLtvFqyW1Wa+nHFX6C4sGovKisCFIz60HcIEx3RzbbozbYgPe31V2T9Jz47qSFLdByfbhx7z7IAyLB2RTxSHoOxLHM7u+Q6MyFc2AMAAIRiYWFBDlKhOJRyuWzvfMwHV5FEXtue2tfLxkZUNr901e1xJakRE0Vre2qfq2azWRb3uVciVaWD8BcotvwuRgA+qA+cl8h8wQ291hKkb/Pnz8nGz54TYC/bYeJNNQGQaeYC7RHxKBZ1RjCKmvhbtApmngkAACErlUp28xQzFIEd2KBmcnLSvkaddzzSIl4rFF9++WV75+rvoLXET0lCPMy/9Nr29MKFC+JrE66LdqeWx5anqiJAkXTmJj4jcEe/tSlw4/JPn5T2el2AnRAmAvlgLswq4rc1UmI7ZYum2/rGZ7vpyna7XAAAsJtSs2nvvC2EawJFBG5qasqEXeqcuDdTrd5TEU/ct9AsJT6DXYt22fbUWwDcarVsRauPzZTOrpW9BYoue/4C3vXmJsKdtvmoWm8K3Hn7x38s8eZrAvQjTATyQ0k8Lx6ZxYOzgpFpv9WdSjy/fgAAAEKyFUU2xK2LJ56rYUdy/Phxe1cT98zDFd0nHnhooZl4MDU9PW3nX7oawWC7o3xKPJmYmLDv64o4ZlbBnQXtfgLFhdWyuOv5C3jH3ET3CBPdi7dek7f/4Y9Et9cEsHSsHyZMBPLE+4ZAV7M3csksDCyLx8oDJerTAgAAgFBkLlDsa3u6LI6Zc1kvgaLrFpppBFMe2p7O+mh7Oj8/b8Pfirh/b9nANvGq0t34CRRbbcJEFIZ6//eZm+hBfGlL4F57/RVZ/0lirdaRYSrWZxrHjlJNBOREtfrxefHY7lSZ61DanY5Pi/LZMsNrqygAAABknwlsbNtTHxsNy55a+LusuEs1mHLY9nTGR9vTtbU125XFR/BcN9fKzsZbeAkUI+13kCngjJ2b+MHvCNyjQtGfrTe+J5dfZV5okdkw8c1jRxcEQG6Yi9gHxKNY2g5nbuSas52rO1CRlKhSBAAAwMgmJyftnav2mddwG1J5aHeaWjDluu1pJNGd4li73fZSyaocV+x6CRS1im4ToAA6YSKtTp3Tmy2RZizwZ8MEiluv05muiAgTgfzp7sStiD/mwvZby4KxdRcIlsUTO0/ER/shAABCZ4ODDY/dIKzI4zw/YFBPP/20RFG04mH+pK0UvFcc8tDuNLXAz3XbU925jHV33WGP4XEcl8X9cVzH0nbaKs59oMj8RBSEbXVqv+CeXmsJ/FurPy7t9bqgOAgTgbyKHxKP0rywLSItyufjadsPzQsAAAAwolKpZG69XCM4nc3XarVspZ2rENNWEKbeFcZt29OWswzKdfjbp+F68637QJH5iSgCWp16pZmfGIxLP/qCxJuvCfKPMBHILx9tW64WMY81WTVxtDN4B853dgMAACBfHLfP7DejlLpLHLAVb1rrGVtpJ26kPofPddtT82e5vI51OevyChPQOm8P5zxQZH4iioBWpx61NfMTA6LbayZUfJRQMecIE4H8qlarFfHYfstccS6bC9u6IDHm8Ww43Bm8k0q1ek9FAAAAgBG4bp/ZR2ntpgqtW/HmLEdxMYevXC7bOxtaOnnelKgHxIHurEtbuVoRt7RSpSVxzHmgyPxE5B2tTv0iTAxPvPWavP0Pf9QJF5E/hIlAvimJ58UrVROkIHJ+4dnH9W5hAAAA5MzExISX0QiuQirz8ynzZzmphhRHc/hs8Hbo0KGGw+dtxsVGxldf/YF4andqq1hzXqHI/EQUAK1O/Yppdxqk9vorsv4TpzOC4QBhIpBv1Wq1LI4umHdhd64yPzEFS0tLy+Kv7WlnIcbl/BkAAADkS6vV0uKh3aM4CqnMz2dunY2eqLuaw3fgwAEnsxq7nGxkvHTpRuVjTIivbj5uA0XmJyLnFK1O/dtoCcK09cb3TKjos8MakkSYCBSBn12WPaqTey15C73yTot6TPwxYWKLa0MAAK7GeQ8woBMnTpjbko+uGzakqkiKfuu37pFmc8O2O3WyAc9Fu9OePLY93dzctH+Sq2rSHpMnxufEA8ctT1VFgLwyQWL0wW8L/NHNtujNtiBcmz9/Ti6/+owg2wgTgWJQEn1GPIqlzS6UdJ0Vf5SS0ucFAAB02FaABz0HirHHudnAsOx7ZnJy0r5nlsUxE1LdKSlyXPHmpN1pT9/ztiJupFpROjc3J3Ec242SZXHOS6AuE+KQcp/UAs7Q6tQ/vUZ1YhZsdAPFQ+/7hCB7TJj4JGEikH/VatVcFGmvFWQmcHrkVPW+RwQp0eJZxbY9pQoVAAAAo5iamtLNZvOcEl0Rt1I9j3Vc8eas3WkfrSV+SklUkfT1KkqXJQXm9Wdu4/s6f4xbdR/tTi13geLC6oy0/C5KAKmZfkPU+78v8EuvNwXZYEPF0tR7ZOom9plkSTdMnBcAuackfsjDRdG1KoI8My8w+zqTBQEAAACGdPz4cVlZWamZX35JnGvblqQ1Sdj8/Lw0Go2KclTxpjxUeNp2teZ5WzIrufZ5S72tqxL1KUnpmmNyclK1mlvOFze16GfFE3ctT5tCmIjcojoxDASK2bJWf1y2XvcxPxujIEwEiobOIkhf9+IeAACgcEqlkg1znMzI24kWqUvGeWx7ap66dFqSbm5uKiVx6nP/upy2O+3x0Pa0XK1Wy5Iw+3M0m82yuN8Ia+cnFiBQlLgiQB6992WqEwOgN1sizViQLTZUbF56SRA2wkSgWKrVj88LM3TgRjnNmSYAAGBwPsOtIip1WiXymI/LBDpai3K+Wz2t0W6O2502PLQ77bDtas3zdk7csJ1R5iVhFy5cMLftirhX9/W8Wc4CRaXY5Yx8im79tsA/fbktyKa1H/+xtNfrgjBppZYIE4FiURK52hEL2JkmqezuBgAga7aiyHfVGOEWMmdmpvOy9dH+aibpjXG23Wkcd4qyyuKAORFfEk9su1pJoWXsbkwAfKckrNVqqUiie8UxH21q+zmsUKTlKXLIzk5878sC//TbW4Js0u01ufSjLxAqhmlF2nJaABRGtxVMRQBHzMX9A+Z1xwImAAAAhlar1Wz7zGXzy4a4lfjGuLW1NVtJ52qzndYq8tY200O72krS1xwTExN2E0hF3PL6vFluAsWFVRsmcpGI3GF2Yjj0RkuQXYSKQVrRsTrZOHbE9Uk5AL/mBXDLXCe25wUAAKAgbJiywYiBRGnRT4pjKuE5iu12O/H/5h4ai4uLXoMpx21PJclrDltN2mw2K+Ih89Ja+6jIvcJNoLjVpjoR+WOrE5mdGATmJ+YDoWJQCBOBglKiaXcK15Ty0CoIAADAl+3Za36LbyK/7XUTNT09rc1P5CMcK3c7vIxtbm7Otju1GUpZHDABrNdQynLc9jTRaw7H1aRXmBf68tLSkte1OieBYqRom4T8oToxHMxPzA9CxSAQJgIFZS6GK8JOafhhWxCxCRUAAL/oLueICcDsHY93Qsrlsr1bEfdtT412VRIwNTVl7yrihlaq5G1+Yk+W2546ribtMc9b5LwS91pOAkWtotsEyBlmJ4ZDrzcF+UGo6BVhIlBgSuJ5AfywO3wTWYwBACCrpqZa9gPR57UYAVeBxKJ/IjlhgymlVEO5C6Z6Eqt6a7cvmf+W/pQ4orX22u60J4ttT+3rLY7jsnjYjOu73amVfqC4sGo/jNhtilzptDqdfkMQBgLF/OmFiluNvxE4Uzdh4inCRKCYtlv1KNqdwhsl6tMCAECBtdsH7B3XYwWwtrZmbttlQWImJiZ0LLHDYOqK2XGr3jozNTeisjjKULToZ323zezJYtvTl1/uFBn52Ay5Yp63uniWfqDYJExE/qh/8aIgDLrZZn5iTtlQce3Hfyxbr3vffFME9W5lYl0AFFS7IoBfM9XqPRUBAADeJDUPDsHT5n+5Cq9PnDhhbr208ZxRSt0lY9ieqenseiyIdqc9Htqejh0Ab21t2WpS5zPgQ5h7aTloeRpXBMiT6TdE/csfCgKxwfzEvFurPy4bP3tOkBrCRACiJPqMAH6ZC/PS5wUAgIKamJiwC8avCHKv2bSdttQt4leuAkUPwVSP0nrsMNBWzrlsdxrUzn3zfrBtT139nWbGmXtpX2fm72sDyYq4pU2U531+opV6oGjeDcxPRK4wOzEstDsthss/fVIuv/qMIHGEiQB6O9HpKoIQVMbdMQwAAMbRKgtSZ4IvJd5nVuq65Iz7eXzb1BijI7oBVVkcBVQmlVoOoW1mv9nZzqWoq7DMvPfUfTKiV1/9gXjq7lM3z9uKBMBBhaKqCJAjtDsNi6ZCsTA2TKBIqJgowkQAHUriBQGC0Z4XAAAK6PLly2atX+rilSoLUtdqtcyivPcKxdzpzuPz0vZ01Nb97tudhlHl1q9bXVoXR9WlJgC+a9RNjJcu3ajUGIHkqJT7yttdpRsoLqyWxftuCyBZVCiGhQrFYrGh4vpPgjv3ySLCRAB9xpv5ASTItntyPo8EAIAQTE9Pm9voLfGLdVwHDhxo20qxsng1UZecscFUFEV17T6YN3lPVJHRFLrdaY/7tqetkTr0bG5uiofrZ61V9KwEIt1AsdWmdRLyxYaJU5cFYSBMLKbNnz8nv3jpt0W31wQjIUwEcEW1+vF58b6YAVylMuoObwAAsmxra8vctn3OtVMBzPUrhHb7gL0ri0ehtb1MShzHJk9UzneiK1F3ypBcz+MLsd1pj+u2p5GUhg5x5+fn7eurIu7fu43FxcWCBIpaESgiV9TMPwrCQbvT4mqvvyK/uPA7Em++JhgKYSKAq0QSOW/XAuzD7vDmdQkAKKiS1xlZkajDglT1hUg+q0F9BtepmpnpPKw+qvCGngXebXdaFTeCbHfa47q61Pw5Qz/ujYZ928TOu/toCauqNNVAUSnaJyFf1M1/LwgHFYrFFm+9Jpd+9KgJF+uCgRAmAriKueAtj3IhBaRNiXpg1LkmAABk1YkTJ+yd16DHnBtSHJKyer1u73w/znXJqVqtZufxLYuX99Jws8BbrZaKHLb7D7XdaY/j6tKh514ePBj7mJ9oguCSj7mgu0q3QpEPIeSMetebgoBsUaFYdDZU/MVLvyMbP3tOsCfCRAA7aFcECNOMUm02pwIACsVW6Bz0H/SUBalqNjub472umWvRr0jOmZ/RdTWeGna23gGtxdUGz5DbnfY4ri4dqiuKPT5vbERl8fDeDS0ITi9QXFgtC4N8kTdHaHkajLb50N0kUMS2yz99Ui6/+oxgRw3CRAA7URI9IkCYlOjoMwIAQMFsRZFov6HijO1iIUjN1taWCTJi37Mq65Jj09PT5m0UOZ85p0ygOGiXjd/6rXtkw2G7U/OaOyeBs9WlURQtuzoG2q4og35vtz1tRRwLMQhOL1BstalORL4wPzEoerMlQL8NEyjaFqjMVbwKYSKAHZkL3YqwAx1hq9D2FABQNFpru1jrdY6iUuo2QapMkOHzMTYZRb4rFMvlsr2z7yPXbU/NuWtroEzk0qUbHbfPDKtt5m5KpZK51a7C4IHbnrpuT9sVZBCcXqCoFYEi8uXAZUE49AbVibhe69JLhIrv6IWJXi9GAYRJSTwvQNjs7v2HBACAApmYmJDYb9ijtKYtfppK2y1PK+KVzvU6gW1POTk5acNE1z/nwG00TUBlv91VoLgServTHsfVpQM/X/bYrL28b0vLEpjUAkUTsbObBbmipt8QhEOvNwXYiZ2r+Nb/+x+LPleRMBHArrarvgZv7wL4okR9WgAAKBZbPfaieOS5ei7X5ufnZcN7mGhN5H6tYGpqSmtRzqu7Bqk6tK+DZrNZETfj4szjED8lGWHbnpoweFkcVZcG+Hz1q5sgOLj3KhWKALJpiwpF7M3OVVy7+Ljo9poUDGEigH04m9UBjGvgNkQAAORHyfe1HGu6KWluVyf6fnwbJqRw3QrUuePHj9u7mrhX3m8O6ebmplISO9zgmY12p/206CfFjfJ+1xvun69tSmRZApROoLiwOmN+4rIAQBra5mNlk0AR+9t643vyiwu/U6gWqDqOTxMmAtiLkojqRGSFiqT0KQEAoCBOnDhh7+riFxt6UrK+vm7ObfSd4pH2PKPTlb62p8vi3N4bOE1AZW7VXeJGZtqd9nhoe1rZ6xscP189OpZ2kJWl6QSKTXayAEiP3mwJMKheC9TLrz4jebcdJt6UuZ1nANzp7patCJARuvOyrbpuLwQAgBc2BImiqKH9hor7LrBjNP7msPXT/5cUhKe2p0pJdO9u/9K2z4zjuGJ+WRYHtOjvScZ4aHu6a8hvj8nm+SqLOC+eaywtfWtZApRSy9OYQBH5s3WDIAx6g+pEDG/DBIpv/fA/5rZasRsm1gQA9qAkXhAgW0yY2J4XAAAK4sCBA+bWbwiw1wI7RuNxDls/rVTpBSmIbttTH5uuK7ttiHPcPtNW+rlqHZo4h21PK7u1qX355ZftnfORIcrP63YgE5IC865wXQIKpE6v/gtBIJoEihhNr1rx4Ps+IYfMV14QJgIYnPJ+nm6uapciR7tNkYgZ7eEiuk9vl/dZAQCgAKIosiHAi52zJn86gUgRZu258k6QpMQnrbNXsTYqW112//331+O4XVeOK8yU6lx3Xde203H7zLp5D2eyxa1te9poNM3jpz8jTnTa1F53vbG1tWXet/pecUtrFQX7Pk0lUDRvirIAebN21BxFDolMXRb4RYUixmWrFbde/57c+IHPS3TgPZJlhIkABlWt3mMvksrinXr4mxmb41Fkc3NzqtXcelP87qav2FlOobb9AQAgSbaqamVlxVanfEm86nQIYENPQjzNYbvWStFC4lKpJHHcMsGUchRMdSil4/vkmkDRnFfbKtVZ5a7dqas5hImzbU/N47VsrkPs6zXt65AdNzDaQNoci2eUhzbFJvgP9rlLqeUpMxSRT3r1lwX+6Q1mKGJ8eZitqGP9MGEigEFFUnLVWmdX5mKstkSYmClm0cPOnnlM/GKWEwCgMOwi9uTkZF38dnTYcw4chuN6bt5uzAlVJqvVxmEr3cx5pPNwZpcOH+YpcNnuNM5soGhtzxx1Fqxd16b21Vd/YG7bFXHMPHHLIQf/yQeKC6uEicgt/fP/VuBZ234eem37gZzpzVbcfD1bXT9UrM80jh1ltyiAgdiZEJ7bVnbE0s7sDI+iMgua9s77YoQS9WkBAKAgHC+k72bXOXAYjuO5ebuxbRQzHTCNwla6mfPZZXEf0M/YDhv9v1EqbdpzWoftTrPd3ePAgQOOZ0BePbf90qUbzftW3SduaaXCnnuZfKDYapcFyKufHxf4pTepTkTybLXiev1xufSjRyXefE1CZ8PEN48dXRAAGJj7nZU7yPxFbRE9/fTTdhHG7mZfFr+uW5QBACCv3pmj6JWtpnpIMBZbcXr58uWyeTi9dwvRWvt+TXnhKaC/qsOGfR1sbERlcdTZUfk/dx9buVy2d/Y6xEUYfF1Vtq82xaHPOU0+UNSKCkXklv7Z8c4X/GF+ItLUuvRSpw3q2sXHgw0WCRMBjMJcHD0inpmLeKoTM2pqasq2PT0nfpmL/NLnBQCAArBzFI2aeEaHgPFduHBBQtjc122jWJcCuvHGS+bHd1/xa94/d/Z+/fLLL9s7Vx1jdCztpyTjbAh76NChho+2px7bFK+E/j5NPFBUyvtwWSBV+u/+J4FHTQJFpG/rje8FGSwSJgIYhbkoqojneS3bopogk/oWNX3P8qD1GgCgELpzFO3n7rL4NXPq1Mddt/zLlXa7bSuffG+KsvODfG8O8+Z97/vvzG1pWdyfy145d93a2jKvA+1qLmluOsO0Wi0bBjus2Gt3Qt+1tTVboe382Kcl7OpEK/kKRfNBI0COUaXoFxWKcCmkYHHz/z/XeHPlkzUBgCEpiefFsyLviM6D3qJmAFWmtF4DABRGs9m0HQJ8Ly6bDCT6jGAkc3NzEsfNeQlic19pSQqqL6BfEefa8/bPN+/nsvmHijiQh3anPSdOnJDua9dV29NP2V84nnfZY4P/4OecJhsoLqzaMJGWp8i9+Pv/i0kaDgk8aMcCuNYLFt/+8R9J89JL4tr6T5+S9X/6sxlzJXJeFj9WFgAY0PaOWBXArnJVE2Ta9PS0neXk/QLXXNi72tkNAIBXMzOdmo0QqlUqzDEeTSDViVa96Jv7PLXwV3YGn+O2t7lod9rjIQyetdfQLudd9slEZWmygWKTMBEFsXZU4v/7fxW4pzepUIQ/zcYP5O0fPSpv/fA/ysbPvpN61aL9718yf96m+bO6yoSKAIbTadniu4OIXcBgfmLG1Wo1ezG/LP53PM+yqAkAKAL72XvwYLwsXqqqrmLnGH9JMJSQqhO1xP9ZCs7XXFJb5dZsNo/0Kt8cyE270z4mDI5dhaQz2yP93M89zUplabKBomrT7hSFYduexv/Pb/qeI1MoerMlQAjirdfk8k+f6lQtdgK/17+XaLioW2ty+dVn5Bcv/Y60rq+IJFQEMDBz4fqAeJanljtF52ln97XMSypilhMAoBA2NiL72RtCC7zZavXjtB0fULfF5bFAqhOlyO1OezzOJTUBVWcWX0UcyOO1l/O2pzquRhK57oqitfLfDWYQCc9QVBUBiqMR//3/cFLH+rTAjbYWIDQ28FuvP94JF3/x0m935i1uNf5GWuv1Yf4znRDR/v/e/vEfm//Wp2XDBIq6vbbbtxMqAthXtVoti6ML173Eos4IcqFvZ7fXTXVK1APb7XwBAMi32dlOM7jHxL9O604+fwfzox/9yDxe8SMSRHUis8x7PM0lVaLVI+JGZkKpYbhue2reM1Xt4Tp6cXExE8/dhCTIXNjdJkAxNHSsTsoXj6y0vygrpb/7D6Ii9YQgVXqDdqcIW3v9lc6XnbloqdK0lG64xdzfINHUe0RNTF/1/TZE1O11ab390igVjjZUfEH+/CMn5d8/77sFDoAAmUWMhc4eVY9YwMgXezF/6tSphtJ62V5oiz9mMbM9b+7PCgAAOWY/e+fm5hqt5tay+N8odiSS2FbcfVawK9vq9PLly7N2A5T4p5ll/g47l7TRaPiYS1oWNxpZCaWGZTulmED4nElnK5I+5xsntOjMPG8JVyh6n88CONELE3v/3L7167VOpaJWtEBNU5NAEdliKwxtBaOdvbj58+c6VYf9X/b3bPg4RrvUGSmp8yZUZIYxgB3Y2Q++sYCRN4cPH9axKN9zeGyVhOs2RAAAeDE9PW2rqh6VAJi/x0PMMt5dt9XpERN6fFPCwCzzPnYuaRRFdmNcXXJIieS2ta2vGZiOaKWy05Y4uUBxYdWGiSxoIve0ik/3h4k9NlRUWk4SKqZHN2MBcB1CRQDXMQs9tnqsLH7Zc6Jc7pAtMrsQMzk5uSye254aFdquAQCKIKDPXkspKX2z21of17hw4YLqVnGWJQDMMr9eqVQyt9mpBhtCLtud9nicgemE1tpH5exIkgsUm4SJyL9OmPiFm2q7/fvmrX+2QqiYoi0qFIFdECoCuIqSyGc7yu7fQZYMzolyqDt/xvc8J/MSix8SAAAKIJDP3h5bgfcngqt88pOflLjZ/Iyt4pQw2K4SQVS2hsRW/JpIJJfBW5ZCqVHYtqfm/XVOciZrY0KSCxRVm92hyLX9wsQeQsX0UKEI7Gk7VHz6VysCoNC2d4z7n9kSS5v2Sjk1O9vZv+J9UVOJ+rQAAFAAfZ+9oaw1nby/eu+XBB12buLa2trtsegvSyCUSI1Z5tcLrOI3MXYGX943c+a07anJE+NMhaTJBYpaURWB3Bo0TOwhVExJrAXAnmYkis7LNz8awvB3AN60K+JffWnpW8uCXAqo5dAMc5wAAEVgP3uN1YCqFDvzFE2o+IgUXHdu4rGA5iZaVCfuYWJiohPASX5kagbfqPLb9rS0LBmSWKColNwmQA5prR8eJkzs6YWKeR3065rebAmAAWmpESoCxaUk8r6wYxaYFgS5ZttFaf8LVSqSElWKAIBCCLBK0Sx7qUeKHCragGNlZcWGiX8tgcxNtKhO3Fur1TLLtflqD2rWrwsxuz6HbU/r5r26IhmSXIWiqLIAOWMOxmfk94+elRHZULGtNKFiEtpUJwJDIVQECqlardqVprL4l+v5HTAvsnLZ3tmLX6+LmuYMsWJe94zfAADkXohVilLgUDHUMFGoTtzXiRMnzG1+Kvq6M/gK0SUvb21PVQarLRMMFIWWp8iVbpi4IOP611+vEyomgEARGB6hIlA4SuKHxLPu/I66INd6LYfM8+17VqYJE9vzAgBAAQRYpWgVLlQMOEykOnEAOWudqZWKCjO7Pm/PXSztpyRjkgkUF1YJE5EriYWJPYSKY9PNWACMwIaK3/h33gMGAK6ou8QzpUpPCArBtj01l5S+2yspJdG9AgBAAQRapWjZUHHBhIpfkpybm5uzYeLtIYaJxkWqEweTp9aZZh27UN1hms2mfe7y8DM3lpa+tSwZk0yg2BRazCA3Eg8TewgVx9NsC4BR6S/L4kcLO9cCKIpq9ePz4n9Ro764uFiI+R0QqdVqdofwsvjfIVypVu+pCAAABdBXpViXwJhF/odPVe/722q1WpYc+uQnPylxs/mQCRP/VsILE22nkKeoThxMt3Vm5tuedtud1qVAusfAzFdl6ozO8Uyo5WlMhSJyIbUwsYdQcWSalqfAeGJZIFQE8k1J5L3FcRZnQGA8gezuNi+96D4BAKAAbJXizMyMrVJ8UMLUqd47dere3IzfsI+5CUmPXF57+4nYbtgN08WlpXMLgoF0W2fWJdvXL4Vqd9qTn+cum3M8kwkUVXg7MoBhpR4m9hAqjoaWp8D4CBWB3OruAq+IZ7GoM4JC6e7uronnWU5K1APmfUDnHABAIQTUJWA3x8xyee3+6n1PZL1acX5+3rY4PWmrEs1a3ryEyW7wul8wlDy0zixau9OenDx3mezsk0igaC7ebhMgw5yFiT2EigB8IVQEcir2Piu1iO12cGWHcEOL9r072oSJLTrnAAAK48SJE7pbpeh1U89ebABngrjz1erHvZ+rDqtblXjsrcbq+UDnJV5hzsMeM+fhK4KhzMx09qJlNpQq8vVXTp67YI/de0mo5SkzFJFdzsPEHkLF4TBDEUgOoSKQO0pUAO0eVU1QSNPT0+aUNvK9w1YpKX1eAAAoCBt4mc/giyZUfFTCVlYSfflU9b7/koU2qN0gsfziyt/WTJD4XySALiD7uGjOw+gSMoK+St8sBjuFbHfaY5+7KIqWM7qununnLqlAkZ2gyCRvYWIPoeLAmKEIJIxQEcgNs+BREf87putLS0uFvaAtOntBf/BgvGx+6XtnfIW2pwCAIvnqV79qA5Gzko1ZYp02qCZYvHh/9d4vh9YK1bY2tefVL668YCsSTUinsjAD0lap3p3VSqdQBNBpYyRFbXfaE8exWSxWPHeOjR8oLqwSJiKTvIeJPYSKg4kJFIHEESoCuaAknhfPVDYWsZCijY3ILmh5r1IMof0vAAAudVuf2vl5dcmGsvn7PmRDOxMunq9W733AV7jYq0Y0AecjbzVWL9r2rBJ+ReIVJgh7lJED4wmk08bQGDeR6banK1l+7sYPFJu0O0X2mDDxySDCxB4bKm4euN18GtDvfCdUJwLpIVQEMm178cX/7ulY1GOCQpud7ewz9f46UKI+JQAAFIgNxczC+mp3nmLWVMxnd60vXFyoVu9JreNAN0CcqVY/Xj1Vvffsiysv2BDRto1dkIBnJO7ErJSdX1o6tyAYS7lctnd2PTZLVZ7m6Y/PScFltWWtlmxXlk7I2OLZzkZQICO6YeK8hOb2WqP1wvzJianN8+YtReVvH011IpCu7VBR5NR3mbsAZE67ktwUg5HZHZZsiio4u0A3NzfXaDW3lsXvzv6yXYhcWvrWsgAAUBB2Yd0EZedNMHbGBGRZ3TBqw8WKSOkRu+RuAsYVs+Jcj0W/aP7ZnGtqExpM1M33NfZq8WnPSVZWVsrb/9S262sz5r87a75uMQGiubfBoffz53HZlqxZDJCDY18vp06daiit7Ty+qmRGaUnQYVvWmvf3ZyQbbBicuYrYfuMHiipbuzdQbMGGiT2EijuLYwGQMkJFIJOURN4vnMzC1VkBZLtlVKPRfNQsZFbEH7NOGN0ntOEFABSMCdnkN3/zN89cvrxWVtmY/7efWbPyboPA6jvFLNsbzk3Y2Pueet/326rGGRMa9pW+vBMc5mir+mp3bmJdkIiJiQndbG6cM9dWWQkUM90yM0nd6w8T0OmsBIr1rG98HHs7hjmo3yZABgQfJvbYUHHrwEnan/ah5Snghg0Vv/GRJwRAJlSrVbv5KIQNSJlu2YLkhNJ2yC6iptUqDQCAkH3gAx+w8+AeFinMmlK576sIn/12XuaDhEnJOnHihGSo4s+8BuKnBB1Za3uqcrDpMYn6bi7UELzMhIk9vVBR9LIAgFNqnlARyAYl8UPimbkgqrGggX7NZtMudPmepWiuUdvzAgBAwdj2jbOzs7aC7X65unoPOaBFP7pkS1GRKPu+MaGUDaSWJRNKy4Kr2LanEj6tVZTpdqdWEoEibRkRNlvptxZ5X3Abmg0V/83XT+pYsnBATBcVioBjhIpANqi7xLNY2pyn4CpmEdPe+X5dKCXRvQIAQAF1Q8WLti2mZKRqB/szgcmZpaVzC4JUTE1N2U1x5yR8debXX822PTUxVyaCOq115rv7jBco/vZqWYCQmTBRr6mTcvZIZk+g2rd+bb7woWKbGYqAe4SKQMiq1Y/Pi3ifZZ75+Q9IXneHd1387/CudNsCAwBQON3PY0LFnCBMTN/x48ftXfDVn+a1kPkKt6Rlpe2pST2XTRic+ePxeIHihPdFDGB3OQgTewgVAfhhQ8WPLsoTFdqbA4FREj0gnmmJfbe1RLhCmO2iROKqAABQUE8//bRdZH+BUDHbCBPdsCF8FEV1HXarYFuJx/rwLgJve6qVysdzN16gqNtlAUKUozCxh1ARgCdVuXHqPKEiEI5qtVo2dxXxrsT8FuzoxIkT0n19eD0XV6I+LQAAFBihYrYRJroVx7EJ7FTIa6+0O91FFtqe5qHdqTVeoKhUWYDQ5DBM7LGhosRCNQAAt5TMEioCQZkXz7rtWuoC7KDbZq0RwC7hmWr1nooAAFBgNlScnZ21oeIdEnb1FfoQJro3M9NZ8gg29FH+RwoEq1wu2zsbtoaaB6zk5fp5rEBRKblNgJBoqeuWOpXHMLGndevXHhKtzwgAuESoCARDifbe7tT8LWoC7CGQXcLmkrX0eQEAoODsZh8TKvZmKtYFIdPmeXqYMNG9wGfx6VjavkcKBMse4w4dOtQIdMZkCOMgEjNehaIoFhURju0w8aT8pyN1ybnWia8vFClU1M1YAASAUBHwrlqtVsxdWfyyrXZow4499S3ILItfFfO+4XMLAFB4faHiHUqE1vVhWjXPz/3mXPuswJtAZ/GZa7BvLQt2deDAgYBnTJaWJSfGnKHofTED2FagMLGnaKEigED0QsXFj5UFgHNK4nnxjFY7GNTU1JTdYX9OvGvPCwAA6ISKJqxajUWdMp/RrCmFpRP2mueHsNejUGfxcQ22v4DbnuZq9uWYMxQJFBGAAoaJPYSKALywoWIcEyoCjlWr1bJ5A3pvdxqz+IQBHT9+3N7VxO9FvVIS3SsAAOAKm1ndfPPNC7YaTmiB6p0WXeuGiXWBV4GGUrQ7HYDdMKGUaoQWvuYtDB49UFxYnRXAtwKHiT2FCBVLY3ZnBpCGMqEi4FrL+/m3NhdDLHRgUAFd1Fe2A3kAANDzla98xbZAXbRzFWmB6s1qd17iaXOOHeLcvsKx56+Tk5P2uQipoox2pwOamJgw4WscQIeUK3IXBo++St8U5lDAL8LEK/IeKiryRCBUhIqAU1EAG/pUTYAhHD582FxEq/8snplg8zYBAABX6bZAvXho+l22BerDQrWiM1rkfLcqkXmJgQmnbf822p0O7sSJE+a2ZDdIhBLQN/IWBo++TK/bZQF8IUy8Du1PAXhCqAgUh70oC26eCMJWq9XsLu9l8XxRr3XrmAAAgB199atftdWKZ02IclKLflKQpm5V4rN30/kjTIG07e+h3ekQQqswzWP19+iBolJlAXwgTNwVoSIATwgVgQJQnXE7tGLC8JrNpt3l/Zj4oyKJPiTInLW1NXvn87ijzf847mEEE7xuAqPUxKpgT91qxfrNN/+zeWYrpsOEtTa0fT9ViWHrhVKBhOu0Ox1SQBWmtlPLo5Iz4zQSLAvgGmHivggVAXhCqAikLvK6OBlLm93qGMnsbKdbr89A0bx+9VviQblctnd18Ua/KBm23bbK94K2DmmGEgZkFoLNrX5FPDFhAa+bHWxFkU3p6+KB1v5eD1ljZyua1/DixOTUMbMof1oIFsfWbW96bGnp3MNs0MsGcw5inrbI6/mr2JeOiljjHVIoFabK/B3yWIU8cqColLpFAJcIEwdGqAjAE0JFIF0+FyfZGYuR9bUeWhY/tFIlL+8f+7NHUVT3tIBu/tg4022KA3jtcOzLqL4ZSs5pZl3tqlQqmVvt47hUJ+Qd3tNPP22DxRrB4ujs8cC2kaW9afbYcxDjonn+fK6v1hcXF9nUOaTuc7fquUNKLqsTrXEqFGcEcKdBmDgcGyrqWJ+WPJgqCYDMIFQEUmIWIZbF165+sxAiwBjsLm/zOnpQ/OwUrmutvQVrcRyb9UTlYzEoL2GYfe14mR2kRTOzKKM8htH2/f5ZwY6mp6dtxY/r4zEVPmO6NljUgcwmC1jDViZ1g8ST3XN4ZFBfl426uGfDzLsFIzHvOzl4MLbHfi/HK3MO+WheNxGMEyjOCuBGQ8eEiaNo3/r1Wm5CRQBZQqgIpKS7O9z5n8mOaozLLu6bhWS7MOJ6p25nIdlnezFPi1GreVmEsgvZZkGoJu4XhC4uLZ1bEGSWj40M3QVEwpZd1Go1G/Qum8fJWdWInQFNhU8yesHizMyR221YFsh8uZA0bDWbbW36zaVnTxMkZp89fzXncb1zqrq4Y8+Z7+cabDz/6l/doX3Mg7WzUvN8DjlaoLiwSnUiXNkOE794hBPyEeUiVCwpAZA5hIpACuzCRDdUdLE42uiGiTUBEvDVr37V3n3ZYesou4jwWd8LyR4Wozp/Vp4WoVwvCHVnXVEVkHH2vXfzzTdf7IaKdUlZ3hcQk9KdS3bGRRhl38vx9vOPBNlg2J6Tzs7eMW/eX0e656bLUkwNG5DbgHVx6dkj5nFZYEZivnTP4y66Oo/rnYOwOWV8fc/dHa42QJg/54ydlSo5Ntoq/e+uVpTS5wVIF2Figkp/9x/mVaSekAzSzVjaP14VAJnUkLY+Kf/+eY7lQIKq1WpZJF5Qoh6Q5DW2L7iis+yKRRrsxf3Kykq5+xq+T1IYp7E9w0ydCa06YG5uTprN5rz5G35GJd/1x753a3ahPq+LmSk/fp3XjVJRjWqmfLnmmHOX2I1vCQr1eBO63vtZibbnMhVJEO9l9955n0kljec0ML1zZTundYUAsTiuOW7Z85BEzmG3Z23b9vzREp8l6eg/FzCf2bcleR7Z9/wV4vp5tEDxc69XlUSLAqSHMDEFpR/+ZlWVTKiodLaqjNtaWn//pgDILEJFICUmWLSf6UkuqtcJEeFS3wJkWZJhF/XqoS/udX/uJN+/hXrvpvD4ZeJ1g/El/NrhdZOQ7iJ9EovzPCcBuPp9FlfN8vNdaWwCcaixPTdS2QDxRQIfWAmdw3LM8qDvGFWW8T536uarUbTnb8QKxTceUkp9WYCU6HZ8Sv7gpiVB4ib/7n+e1UrOZy1UbP1/bwiATCNUBAAAAICCuSZgrESibovNQn6oIaMNDyPzFYuy167fo/UkALxj1EBxwQSKjwiQAq3i0/KFm2qC1GQxVLQtT23rUwCZRqgIAAAAAAV3TbWwuY9nbdBowrwZvR02liU9tuKwYf6Muv3aDg7bb4mUlunUAQB7GylQVJ97Y9HcVgVIGGGiO1kLFQkUgdxoiJbT8onvUoUOAAAAALjODi0JzVe7u36lyvv/F6LV7ZDQKtl2hJ3WklLA9oQAkKQRA8U3z0u+h+vCA8JE97IUKrZf+YXo9aYAyAkl83L/d58UAAAAAAAAAMGLZBQ61bJzFBBhoh/NW/9sRWk5qbd3aYVtcrTDFYBAaanJNz/6gAAAAAAAAAAI3mgr9IpAEcnRWj9MmOiPDRXbSgcfKqrSaCNfAQSMUBEAAAAAAADIhOEDxYXVTMxbQzaYMPGM/P7RswK//vXX68GHipMlAZBDhIoAAAAAAABA8EapUCwLkIBumLggCEPgoaKi4ymQXzZU/Ma/e0gAAAAAAAAABGn4JfqmUKGIsREmBirkUPHQhADIM/1lWfzoIwIAAAAAAAAgOMMHirpdFmAMhImBCzVUjChRBHIvlgVCRQAAAAAAACA8w6/QK1UWYESEiRkRYKioJs3hKlICIOcIFQEAAAAAAIDgjBAo0vIUoyFMzJhQQ0UA+UeoCAAAAAAAAARl6NV5JXKLAEMiTMyo0ELFg8xRBAqDUBEAAAAAAAAIxgjlPooKRQyFMDHjAgoVVYmWp0ChECoCAAAAAAAAQRg+UNRSFmBAhIk50Q0Vzft/RTxSB0oCoGAIFQEAAAAAAADvRpmhWBZgAISJOWNCxdbWAb+h4iFangKFRKgIAAAAAAAAeDVcoLiwSrtTDMSEiU8SJubQ7bWGz1BRTVChCBQWoSIAAAAAAADgzbAVimUB9tENE+cF+eQzVCwpUZMjjH4FkA82VPzGR78sAAAAAAAAAJwabmW+KVQoYk+EiQXhM1S8YVIAFNpD8o2PPCEAAAAAAAAAnBkuUFRtAkXsijCxYHqhosiSOKQOMkcRgJonVAQAAAAAAADcGS5Q1KoswA60qCXCxAKyoeK/+dopHcuT4og6yBxFABahIgAAAAAAAODKsMPIqFDE9Wzby7fltKCw2rd+bd5VqKgOUKEIoIdQEQAAAAAAAHBh2ECxLEA/EybqNXVSzh5pCArNWahYUiZUpEoRQI8NFT+6KE9U2PQEAAAAAAAApGSoQFEpdYsAPYSJuIarUFFNTwoA9KnKjVPnCRUBAAAAAACAdAxboQhsI0zELmyoKLE8JilSNxAoAriGkllCRQAAAAAAACAdwwWKmpanEMJE7Kt169ceEq3PSEoIFAHsiFARAAAAAAAASMVwgaIiUCw8LXXdUqcIE7Gf1omvL6QWKjJHEcBuCBUBAAAAAACAxA0eKC6ssjBXdNth4kn5T0fqAgwgzVCROYoAdtULFRc/VhYAAAAAAAAAYxs8ULwsBIpFRpiIEaUVKqobpwQAdmVDxTgmVAQAAAAAAAASMHigOEG708IiTMSY0ggV1YEJcwRTAgB7KBMqAgAAAAAAAOMbboYiiocwEQlJPFS0cxQPTggA7INQEQAAAAAAABjT4IGibpcFxUKYiIQlHSrS9hTAgAgVAQAAAAAAgDEMHigqVRYUB2EiUpJkqBgdPiAAMCBCRQAAAAAAAGBEtDzF9QgTkbLEQkXb9vSGSQGAAREqAgAAAAAAACMYJlAsC/KPMBGO2FAxjtsPy5hoewpgSISKAAAAAAAAwJAGDhSVUrcI8o0wEY7Ft/75WR3r0zIG2p4CGAGhIgAAAAAAADAEWp6ip6G1OkWYCNfat369NlaoSNtTAKMhVAQAAAAAAAAGNHigqGl5mmMNHauT8sUjKwJ4MG6oSNtTACPaDhX//COzAgAAAAAAAGBXgweKSmYEeUSYiCCMEyp22p5GSgBgBGUpKUJFAAAAAAAAYA/DtDwlUMwfwkQEpRMqtuSUaNUY6v9YUhLNMEsRwMhmCBUBAAAAAACA3Q0WKC6sEibmD2EigtT+0NeWlJaTw4aKtD0FMCZCRQAAAAAAAGAXgwWKl6lOzBvdjk8TJiJUzVv/bGXYUFHdMNn5AoAxECoCAAAAAAAAOxgsUJyQsiA3tDJh4h/ctCRAwEYKFalSBDC+7VDxmY9WBQAAAAAAAEDHMDMUkQOdMPELN9UEyIBhQ8Xo8AFzowQAxjQjShblmx99QAAAAAAAAAAMGCjqdlmQeYSJyKJeqKhF6vt+c0lJdPSgAEAitNQIFQEAAAAAAIBBA0WlmKGYcYSJyDIbKraVHihUjI4cEgBIDKEiAAAAAAAAMHDLUwLFDNNaP0yYiMz711+vDxQqlpQo2/oUAJJCqAgAAAAAAICCG7BCkUAxq0yYeEZ+/+hZAfJgwFAxOkqVIoCE2VDxG//uIQEAAAAAAAAKaMAZigSKWdQNExcEyJMBQkV1oCTqhkkBgGTpL8viRx8RAAAAAAAAoGAGChSVUrcIMoUwEbk2QKgYvYcqRQApiGWBUBEAAAAAAABFM+gMRWQIYSIKYZ9Q0VYoMksRQCoIFQEAAAAAAFAwgwaKtDzNCMJEFMo+oWL0nhsEAFJBqAgAAAAAAIACYYZijhAmopD2CBXVZCTRuw8KAKSCUBEAAAAAAAAFMVigqKQsCBphIgptj1AxuukGc6MEAFJBqAgAAAAAAIACYIZiDhAmAnIlVBQtK1f9fklJdJQqRQApIlQEAAAAAABAzu0fKP72alkQLMJEoI8JFVtbB64LFTtVipPsnwCQIkJFAAAAAAAA5Bgr7BmmY/0YYSJwjdtrjZ1CxdL73iUAkCpCRQAAAAAAAOTU/oHiBPMTQ6S1flK+ePQhAXC9HUJFdcOkqMMHBABSZUPFb3z0ywIAAAAAAADkCBWKGdQJE3//6LwA2N0OoWLpvdPmqKcEAFL2kHzjI08IAAAAAAAAkBP7B4qqPSMIBmEiMIReqCiy1PnnkpLo5hsEANKn5gkVAQAAAAAAkBf7B4qxECgGgjARGIENFf/N107pWJ60/xgdOdhpfwoA6SNUBAAAAAAAQD4MUKGoCBQDoEUtESYCo2vf+rX5XqhY+uUbaX0KwBFCRQAAAAAAAGTfIDMUCRR9szPg3pbTAmAsV0LFkpLS+94lAOCGDRU/uihPVDinAgAAAAAAQCYNUKFIoOiVCRP1mjopZ480BMDYeqGiunFKoncfFABwpCo3Tp0nVAQAAAAAAEAW7R8oagJFbwgTgVTYUFG0PhPddIOoAxMCAE4omSVUBAAAAAAAQBbtGygqJYcF7hEmAqlqnfj6gjkCnon+JfMUAThEqAgAAAAAAIAMGmCGomLByzXCRMAJGyqqCXWGeYoAnCJUBAAAAAAAQMYMECjCKS113VKnCBMBNzqh4rsmz0TvOSQA4IwNFX9p6gVZ/FhZAAAAAAAAgMANEiiye96V7TDxpPynI3UB4IwNFaOjh85Ehw8IADhUljg+T6gIAAAAAACA0O0fKGoCRScIEwGveqGiOjAhAOAQoSIAAAAAAACCt3+gqAgUU0eYCAShdfufL6j33nBGJukGDcApQkUAAAAAAAAEjZanvhEmAkGJ//tnFqJ//q4zEikBAIcIFQEAAAAAABAsynB8IkwEgtQJFW8+RKgIwDVCRQAAAAAAAARp79Xy314tq0l9UZA8LRd1W90tf0iYCIQqeu7XF+L11udlv2MlACSrLlF0t8z824tyckEAAAAAAAAA3/auUGQJPR2EiUAmxL/2nQWZVJ8V+64FAHdspeJfS+P7x+T8ggAAAAAAAAC+7R0oHmR+YuIIE4Fsufcvz5o37oNCqAjALUJFAAAAAAAABGPvQLFJoJgowkQgm37j+RqhIgAP3gkV/3xOAAAAAAAAAF9oeerOqtbqfsJEIKMIFQH4sR0qSuN2QkUAAAAAAAD4snegKG0qFJOxqmN1t3zxyIoAyC4bKkb6DpMprgoAuFOWkiJUBAAAAAAAgDd7B4oxLU8TQJgI5Mmp51fMkfNu86uLAgDuzBAqAgAAAAAAwJdIkCbCRCCPOqFiRKgIwDVCRQAAAAAAAHixzwxFVRaMijARyLNTf1EnVATgwTuh4rl7BAAAAAAAAHCBCsV0aN2OHyRMBHKuEypu3WHe8ecFANzZDhW3tk7JeSoVAQAAAAAAkL59KhQFw9NamTDxD25aEgD5d2q5IZ94/m7zzj8rAODOjDlP+6asvjVPqAgAAAAAAIC07R0oaikLhrEdJn7hppoAKJZPPP+wxHJG7JETAFzR8gShIgAAAAAAANJGy9PkECYCRTf33QXR7fuFuYoAXCJUBAAAAAAAQMr2DBSVksOCgRAmAuj4xP+5JFF0txAqAnCpFyouVgUAAAAAAABI2j4VimpGsC8t+gxhIoArTv1FXaKtO8zBoSYA4IoNFWV9gVARAAAAAAAASaPl6Zg6YeLvHV0QAOh3arkhn/juaeYqAnAqlkcIFQEAAAAAAJA0AsUxECYC2JedqxjpO4QWqABcIVQEAAAAAABAwvYOFLWUBTsiTAQwsFPPr3TmKm63QKVaEUD6CBUBAAAAAACQICoUR0CYCGBodq6ibYEq8WeFUBGAC4SKAAAAAAAASAiB4pAIEwGM5Tf+6qxE0fuFFqgAXCBUBAAAAAAAQAL2DhQVLU/7ESYCSIStVvyN777fLPSfEaoVAaSNUBEAAAAAAABjokJxQISJABI3990FifQdQrUigLQRKgIAAAAAAGAMuweKCxTN9BAmAkjNqedXJNq6Q7Q+K1QrAkgToSIAAAAAAABGpHb9NwurM6qlV6XgCBMBOLP4kVmJ1TfNr44JAKQlkjNySJ2Rj/0lmxgAAAAAAAAwkN0rFC/LjBScjvVZwkQAzthqRWYrAkibrVRc01+Sc/coAQAAAAAAAAawe6BY8CUmrXVNvnj0YQEA1zqzFaP3y/ZsRYJFAGl4SJqbf0KoCAAAAAAAgEHsHigeLG6FYidM/P2jpwUAfDn1F/VOtaLoB2U7WASAhKl5QkUAAAAAAAAMYvdAsVnMQJEwEUBQfuP5mkTR3aKlJlQrAkgcoSIAAAAAAAD2FwmuIEwEECRbrfiJ756mDSqAdHRDxW//uhK9IAAAAAAAAMC1CBS7tKhFwkQAQaMNKoDUmFBxs/nX8uTyEUJFAAAAAAAAXGv3QLFIja+0vCBvy4MCAFlg26DaYDGWM+YAtioAkAStKvKuKUJFAAAAAAAAXGf3QDFul6UITJio19TdcvZIQwAgS+a+uyBR6Q7mKwJIjJJZQkUAAAAAAABcq9gtTwkTAWRd/3xFgkUASSBUBAAAAAAAwDWKGygSJgLIk6uCRX1eCBYBjKM/VDy/IAAAAAAAACi2PWYoqhnJKy0XCRMB5FInWHz+bonjuwkWAYzFhoo3Tv2tNL5/jFARAAAAAACg2PaqUMxnoGjDxDZhIoCcm/urZYJFAAkom+PIXxMqAgAAAAAAFFuxWp72wsQ/PFIXACgCgkUA4yNUBAAAAAAAKLjiBIqEiQCK7KpgUWpCsAhgOISKAAAAAAAABbbHDEXJD8JEANjWCRa/e1qi6P0EiwCGRKgIAAAAAABQULsHitosGuUBYSIAXO/UX9SvDhb1qhAuAtgfoSIAAAAAAEAB5bvlKWEiAOztSrBYusMcNB80v3NRCBYB7I1QEQAAAAAAoGB2b2z6u2/UlFIPSFYRJgLAaL7xkXlzDP2UKFWRfDXABpCsukTR3TLzby/KyQUBAAAAAABAfuWzQpEwEQBG9xvP1+QTz98tkb6jb84iVYsArkWlIgAAAAAAQEHsGigqJYcliwgTASAZp55fuTJnkXaoAHb2Tqj453MCAAAAAACAfNq1lZ363JvnzV1FsoQwEQDS9fSvVkRFD5hPj15LbFqiArDq0tb3i8y8IP/+aQEAAAAAAEC+5Knl6arW6n7CRABI0dxfLVO1CGAHZSmpvxZp3E6lIgAAAAAAQP7kpUJxVcfqbvnikRUBALhF1SKAdzSkre+mUhEAAAAAACBf8lChSJgIAD5dqVrcenenalFruyFFC5WLQBHNUKkIAAAAAACQP3tVKL5g7mYlbISJABCixY+VRdr3Saw+I7YVIlWLQNFsVyq+Z+YFOUmlIgAAAAAAQNbtHij+7psXzb8tS7gIEwEgC95piXqXEC4CRdIw7/aH5cjhGqEiAAAAAABAtmU1UNS6Hd8vf3DTkgAAsoNwESgeJacJFQEAAAAAALIti4Gi1ip+UL5wU00AANlFuAgUB6EiAAAAAABApmUtUCRMBIA8IlwE8o9QEQAAAAAAILOyFCgSJgJAEXTCRXVf50uufA4RMAJ5YENFdUNNTtG1HgAAAAAAIEt2DxQ/96aWgJgw8TRhIgAUzOJHZs3tXdIWGzBWur9LuAhkWSRnRG5YIFQEAAAAAADIjkwEilr0Gfm9owsCACiuxY+VJW5XzCfUveaTwd7PCOEikE2EigAAAAAAAJkSfKBImAgA2FGvNaqtYFRqtvu7BIxAVhAqAgAAAAAAZEbQgSJhIgBgIFdVL4oNF8vdf0PACISMUBEAAAAAACATgg0UCRMBACNj9iKQHYSKAAAAAAAAwdt5cXVBi2qtegsUCRMBAIl6pz3qbQSMQIAIFQEAAAAAAIK282Lqb6+W1aS+KB4QJgIAUrVYmZHWxCwBIxAYQkUAAAAAAIBgBRUoEiYCAJzrBYwSVUTpO80no/m1mun+W0JGwCVCRQAAAAAAgCAFEygSJgIAgmFbpE6o2yRWd5l/svMYy91/Q8AIpI1QEQAAAAAAIDhBBIqEiQCAoC1+rCztpq1itAFjf5tUi5ARSJoNFQ+pM/Kxv/Q20xsAAAAAAADv8B4oEiYCADKpv4pR67IJGWe7/4aAEUjGWZmc+qzc+y1CRQAAAAAAAM92XvT8HRMoTqQfKOpYn5UvHn1YAADIuv5ZjJF8SGiVCiRA12TywIOEigAAAAAAAH7tvMC5sDqrWvoFSZHWZoHo94+eFgAA8urakPHqSkaLoBHYF6EiAAAAAACAbzsvZP7uakUpfV5SQpgIACisXsho26W2bbiob2EmI7AfQkUAAAAAAACfnAeKhIkAAOxg8SOz0o7LokuzVDMCOzHnkKVDD8p9d2hRCwIAAAAAAAB3nAaKhIkAAAyhV82o9IxIdJf5ndvM1wxBIwpLy4q8vXW3PFBZJVQEAAAAAABwx1mgqEXOy++9+24BAADj6Q8ad69otAgbkT+EigAAAAAAAM65CRS1vKDX1N1y9khDAABAemzr1JYJGjszGqUstqpRiQka1UzfdxE0ItsIFQEAAAAAAJxKP1AkTAQAwD9b1SiT5StzGpU+LJ2wUZXNffma7yZwRPh6oeL88qoAAAAAAAAgVekGioSJAABkw7WVjUrdst1G1YaNV1U3WgSOCISuybv/xWk5WRMAAAAAAACkZ+cFwc+ZQFHGDBQJEwEAyIf+6sZSdEtf4DizQztVi8AR7sTxSZn7q2UBAAAAAABAaiZ2/N24XZYokpFpuUiYCABATpxatp/nK92vnfUqHLUqd9qo9lqqiszsUuVoETxifEpVze2yAAAAAAAAIDUTkjQbJrYJEwEAKJRTz6/s+z2LlbK0JmzYOHNdpSPBI0amygIAAAAAAIBU7RwoTpZWpK1laL0w8Q+P1AUAAKDfqeW6ua3v+T2d9qomXOwPHlvqiET6vzHnGeXO99gKSOn++nqEj0WzXQ0LAAAAAACAFO266KY+9+aq2AW9QREmAgAAl/rDR6u/3aqSw1cHkLYKUu12XkMImWVaPyafeP4hAQAAAAAAQGp2bXmqRT+mRD0igyBMBAAArm3PdrRf9YH/P7btqkzOdOY92grIOJrpVjxKpwrSho7bLVgHCSJ7CCR90npJAAAAAAAAkKo9F8DU5978W3N3+17fQ5gIAABy79pqyF4YOSmHOy1Ze1WR1wWSHeXB/hCCyaFpWZRPfPd+AQAAAAAAQKom9vqXesIEha34ESXqM3L9IpfWIsvSVg8SJgIAgFwbpRryWr1Q0uoFk5Zt1Wq9E0B2qyU7v/lOQHnV9wxUObmbvASXF6UUfVYAAAAAAACQusEWlH5ntSwT8bz59jvNAlZDYnlFovhZ+b33LAsAAAD86rRy7eoPK61eYGn1Kip7rlRW9r53h2rK/qBz+5vGCTOHsdN5qu7eL0m09WA36AUAAAAAAEDKaK0FAACA8fWHmld051XupNc2djfXBZli+2PUZbK5RJAIAAAAAAAAAAAAAAAAAAAAAAAAAAAAAAAAAAAAAAAAAAAAAAAAAAAAAAAAAAAAAAAAAAAAAAAAAAAAAAAAAAAAAAAAAAAAAAAAAAAAAAAAANjDfwUiLvEsd8FhzQAAAABJRU5ErkJggg==;" vertex="1" parent="1">
          <mxGeometry x="140" y="820" width="207.26" height="80.07" as="geometry" />
        </mxCell>
        <mxCell id="2dzBc5fqnoKYE4eSqqUL-8" value="" style="shape=image;verticalLabelPosition=bottom;labelBackgroundColor=default;verticalAlign=top;aspect=fixed;imageAspect=0;editableCssRules=.*;image=data:image/svg+xml,PHN2ZyB4bWxucz0iaHR0cDovL3d3dy53My5vcmcvMjAwMC9zdmciIHZpZXdCb3g9IjAgLTE0MS41NCAxNDc4LjIwMSAxNDc4LjIwMSIgaGVpZ2h0PSI4MDBweCIgd2lkdGg9IjgwMHB4Ij4mI3hhOyYjeGE7PGcgdHJhbnNmb3JtPSJtYXRyaXgoLjU2OSAwIDAgLjU2OSAxOTkuNDUxIC04Mi43MzUpIj4mI3hhOyYjeGE7PGxpbmVhckdyYWRpZW50IGdyYWRpZW50VHJhbnNmb3JtPSJtYXRyaXgoLjEyMzQgMCAwIC0uMTIzNCAxMTU4LjMzIDE1NTAuMjczKSIgeTI9IjE0MjAuMzMxIiB4Mj0iLTIwNjEuMjQ5IiB5MT0iOTIzLjU3MyIgeDE9Ii0yOTAxLjk1MiIgZ3JhZGllbnRVbml0cz0idXNlclNwYWNlT25Vc2UiIGlkPSJhIj4mI3hhOyYjeGE7PHN0b3Agc3RvcC1jb2xvcj0iIzkwOWNhOSIgb2Zmc2V0PSIwIi8+JiN4YTsmI3hhOzxzdG9wIHN0b3AtY29sb3I9IiNlZGVkZWUiIG9mZnNldD0iMSIvPiYjeGE7JiN4YTs8L2xpbmVhckdyYWRpZW50PiYjeGE7JiN4YTs8cGF0aCBkPSJNMTQxMC43NzMgODE0LjE5NWwtMjg2LjkgOTMuNjgzLTI0OS41OTkgMTEwLjE2MS02OS44MjkgMTguNDM1Yy0xNy43ODQgMTYuOTE2LTM2LjQzMSAzNC4wNDktNTYuNTk5IDUxLjM5Ny0yMi4xMTkgMTkuMDgyLTQyLjcyIDM2LjQzMy01OC41NTMgNDkuMDA4LTE3LjU2NCAxMy44OC00My41ODcgMzkuOTAyLTU2LjgxNCA1Ni4zOC0xOS43MzUgMjQuNzIxLTM1LjM0OCA1MC45Ni00Mi4wNzEgNzEuMTMtMTEuOTI4IDM2LjQzMy02LjA3IDczLjI5NyAxNi45MTYgMTA3LjM0NiAyOS40OTIgNDMuMzY5IDg4LjI2MSA4Ny42MDYgMTU2Ljc4NSAxMTcuNzQ5IDM0LjkxNiAxNS40IDkzLjY4MyAzNS4xMzIgMTM3LjkyIDQ2LjE5IDczLjUxMiAxOC42NTEgMjE1Ljc3MSAzOC44MTkgMjk0LjA1NCA0MS44NTcgMTUuODI4LjY1IDM3LjA4Mi42NSAzNy45NDcgMCAxLjczNy0xLjA4OCAxMy44ODEtMjQuMjg5IDI3Ljk3OS01My4xMjkgNDguMTQyLTk4LjIzOCA4Mi44MzgtMTkwLjQwMiAxMDEuNzAzLTI2OS4xMTkgMTEuMjc2LTQ3LjcwNiAyMC4xNjYtMTExLjI0NiAyNi4wMTktMTg2LjQ5MiAxLjUyMS0yMS4wMzYgMi4xNjktOTEuNTE0Ljg2OC0xMTUuMzctMS45NTMtMzkuMDMzLTUuNDIzLTcwLjY5Mi0xMC44NC0xMDEuNzAzLS44NjgtNC41NTUtMS4wODgtOC42NzYtLjY1Mi04Ljg5Mi44NjUtLjY1IDMuNDY3LTEuNTE3IDM4LjgxNS0xMS43MTJsLTcuMTUzLTE2LjkxMnYtLjAwNWguMDA0em0tNjUuNDkgMzguMzg2YzIuNjAyIDAgOS41MzkgNjYuNTczIDExLjI3MyAxMDguNjQ2LjQzNiA4Ljg5LjIxNiAxNC43NDUtLjIxNiAxNC43NDUtMS43MzMgMC0zNi42NDktMjAuNTk5LTYxLjU4My0zNi4yMTItMjEuNjg3LTEzLjY2My02Mi44ODgtNDAuOTg4LTY5LjM5My00Ni4xOTItMi4xNzMtMS41MTctMS45NTctMS43MzMgMTUuODI4LTcuODA3IDMwLjE0LTEwLjE5NCAxMDEuNzA2LTMzLjE4IDEwNC4wOTEtMzMuMTh6bS0xNDYuMTYxIDQ4LjE0M2MxLjk1MyAwIDYuOTM3IDIuODE2IDE4Ljg2NSAxMC4xOTEgNDQuNjcxIDI3Ljk3NCAxMDUuMzkzIDYxLjgwNSAxMzEuNDE1IDczLjA4MyA4LjAyMiAzLjQ2OSA4Ljg4NyAyLjE2Ni05LjU0MiAxNC43NDYtMzkuNDY4IDI2Ljg4OS04OC42OTcgNTMuMzQ0LTE0OC45ODMgODAuMDE4LTEwLjYyNCA0Ljc3MS0xOS41MTQgOC40NTYtMTkuNzMgOC40NTYtLjQzMiAwIC44NjUtNS40MTggMi41OTgtMTEuOTI1IDE0LjUzLTU0LjAwMSAyMi43NzItMTA4LjY0NyAyMy4yMDgtMTUyLjQ1Mi4yMTYtMjEuNjg3LjIxNi0yMS42ODcgMi4xNjktMjIuMzM0LS40MzYuMjE3LS4yMi4yMTcgMCAuMjE3em0tMzAuMTQyIDExLjQ5MmMxLjI5NyAxLjI5OS40MzIgNDkuODc3LTEuMzA0IDYzLjEwNC0zLjkwMyAzMS42NjItOS45NzUgNjEuMTUzLTE5Ljk0NyA5NC4zMzUtMi4zODYgOC4wMTgtNC41NTggMTQuNzQ1LTQuOTg3IDE1LjE3Ny0uODcyIDEuMDgzLTMwLjU4MS0yNy45NzUtNDAuMzM5LTM5LjI1MS0xNi45MTYtMTkuNTE4LTMwLjE0MS0zOS4wMzUtMzkuOS01OC4xMTctNC45ODgtOS43NTktMTIuNzkzLTI4Ljg0LTEyLjE0NC0yOS40OTIgMy40NjktMi4zODUgMTE3Ljc1My00Ni42MjIgMTE4LjYyMS00NS43NTZ6bS0xNDEuODI2IDU1LjczMWMuMjE2IDAgLjQzMiAwIC42NTIuMjE2LjQzMi40MzQgMS45NTMgMy45MDUgMy4yNTQgNy44MDcgNi45MzcgMTguODY3IDIyLjU0OCA0Ni42MjQgMzUuOTk3IDY0LjQwNyAxNC43NDYgMTkuNTE4IDM0LjA0OCA0MC4zMzQgNTAuMDkxIDUzLjk5NiA1LjIwNyA0LjMzNyA5Ljk3NSA4LjQ1NiAxMC42MjQgOS4xMDggMS4zMDQgMS4zMDIgMS43MzcgMS4wODMtMzMuNjEyIDE0LjUzLTQwLjk4MSAxNS42MTMtODUuNjU2IDMxLjIyNi0xMzYuODM1IDQ3LjcwNmE2ODI1LjQ3NCA2ODI1LjQ3NCAwIDAgMC0zNi42NDMgMTEuOTI4Yy0xLjk1NS42NTItMS4zMDMtLjQzNCA0LjMzNS05LjMyMyAyNS4zNzEtMzkuNjg2IDYzLjk3LTExNy41MzYgODUuNjU3LTE3Mi42MTggMy42ODctOS41NDIgNy4zNzMtMTkuMDgyIDguMDI1LTIxLjI1MS44NjgtMy4wMzggMS45NS00LjEyMSA0Ljc2OC01LjY0IDEuNTE4LS40MyAzLjAzOC0uODY2IDMuNjg3LS44NjZ6bS00My4zNjcgMTcuOTk5Yy42NDkuNDM2LTEwLjQxMSAyMy42MzctMjEuMjU0IDQ0Ljg4OS0yMS4wMzYgNDAuOTg1LTQ0LjAyMiA4MS4zMjMtNzQuODE1IDEzMC4zMzEtNS4yMDQgOC40NTYtMTAuMTkgMTYuMjY1LTEwLjg0MiAxNy4xMzItMS4wODMgMS41MTktMS41MTkgMS4wODMtNC45ODgtNS42MzgtNy4zNzMtMTQuNTMtMTMuNDQ3LTMzLjE4MS0xNi42OTktNTAuMzEzLTMuMjU0LTE2LjkxNi0yLjYwMi00Ni40MDYgMS4wODYtNjQuNjIxIDIuODE2LTEzLjQ0NCAyLjYwMi0xMy4yMjcgOS4xMDctMTYuNDgxIDI3Ljc1Ny0xNC4wOTUgMTE3LjUzNy01Ni4xNjYgMTE4LjQwNS01NS4yOTl6bTM3NC4wNzMgMTUuMTgydjkuMTA3YzAgNDguMzU5LTUuMjA0IDExNC43MTYtMTIuNzk3IDE2My4wNzctMS4zMDEgOC40NTYtMi4zODkgMTUuMzkzLTIuNjAyIDE1LjYxMyAwIDAtNi4yODgtMS43MzMtMTMuNjYxLTMuOTA1LTMyLjUyNy0xMC4xOTMtNjcuODc1LTI1LjE1Ni05OS43NTQtNDIuNzE4LTIxLjAzOC0xMS40OTQtNTEuNjEyLTMwLjM2My01MC43NDMtMzEuMjMxLjIxMy0uMjE1IDkuMzIzLTQuOTg2IDE5Ljk0Ny0xMC42MjUgNDIuNTA5LTIyLjExOCA4My4yNzQtNDUuOTcyIDExOC42MjItNjkuNjA5IDEzLjIyOS04Ljg5MiAzMy4xNzYtMjMuMjAyIDM3LjUxOC0yNy4xMDdsMy40Ny0yLjYwMnptLTUzNy44MDIgNjQuMTg1Yy44NjcgMCAuNjUgMS43MzUtLjY1MSA5LjU0Mi0uODY4IDUuNjQtMS45NTEgMTYuMDQ5LTIuMzgyIDIzLjIwMi0xLjczOSAzMS42NjIgMy40NjkgNTUuMDg0IDE5LjA4MiA4Ny4xNzcgNC4zMzcgOC44OTIgNy44MDkgMTYuMjY1IDcuNTg5IDE2LjQ4LTEuNTE5IDEuMzAzLTE0NS4wNzQgNDMuMzc1LTE5MC4xODMgNTUuNzM0LTEzLjQ0NCAzLjY4NS0yNS4xNTIgNi45MzktMjYuMDI0IDcuMTUzLTEuNTE1LjQzNi0xLjczMy4yMi0xLjA4My0zLjQ3IDQuOTg3LTMxLjg3NSAyOS4yNzYtNzMuNTEyIDYzLjEwNC0xMDguNjQ0IDIyLjU1NC0yMy40MTkgNDAuNTU0LTM3LjA4IDcxLjM0Ny01NC42NDggMjIuMTE5LTEyLjU3NSA1Ni4xNjUtMzEuNDM5IDU4Ljc2Ny0zMi4zMDkuMDAyLS4yMTcuMjE4LS4yMTcuNDM0LS4yMTd6bTMzOC4yOTUgNjAuNTAzYy4yMTYtLjIxNiA1LjQyIDIuNjA1IDExLjcwOCA2LjI5IDQ2LjQwOCAyNi44OTEgMTExLjAzIDUxLjgzIDE2Ni4xMDggNjQuNjIzbDQuOTkxIDEuMDg2LTYuOTQxIDMuODk5Yy0yOC44NCAxNi4wNDktMTIzLjYwNiA1NS41MTUtMjIwLjUzOCA5MS43MzItMTQuMDk4IDUuMjAyLTI3Ljk3NSAxMC40MDktMzAuNTgxIDExLjQ5Mi0yLjYwMiAxLjA4My00Ljk4OCAxLjczNS00Ljk4OCAxLjUxOSAwLS4yMiAzLjkwNi03LjgwOSA4Ljg5LTE3LjEzMiAyNy4xMDctNTAuNzQ0IDU0LjQzMy0xMTIuNTQ3IDY4LjMxMS0xNTUuNDg1IDEuNzM5LTQuMTIgMi44Mi03LjgwNSAzLjA0LTguMDI0em0tMzQuNDggMTEuMjc4Yy4yMi4yMjEtMS41MTcgNC43NzEtMy42ODcgOS45NzUtMTguODY1IDQ1Ljc1Ni00My41OSA5NS42MzYtNzUuMjQ5IDE1MS41ODMtOC4wMjIgMTQuMzE0LTE0Ljc0NiAyNS44MDgtMTQuOTY2IDI1LjgwOC0uMjEzIDAtNi43MjEtMy45MDYtMTQuNTI3LTguNjc2LTQ1Ljk3Ni0yOC4xOTItODYuNzQzLTYyLjg4OC0xMTMuNDE0LTk2LjUwMWwtMy45MDUtNC43NzEgMTkuNzMyLTUuNDIyYzcwLjY5Ni0xOS4yOTggMTMwLjc2Mi00MC4xMTYgMTkwLjQtNjUuNzA0IDguNDU5LTMuNDcxIDE1LjQtNi4yOTIgMTUuNjE2LTYuMjkyem0yMTQuMjUzIDc0LjgxNXMuMjE3LjIxNyAwIDBjLjIxNiA0Ljk4OC0xMC44NDQgNDkuNjYxLTE5Ljk1MyA4MS45NjktNy41ODkgMjcuMTA3LTE0LjA5OCA0OC4zNjEtMjYuMDIyIDg1Ljg3NC01LjIwNCAxNi40ODUtOS43NTUgMzAuMTQzLTkuOTc1IDMwLjE0My0uMjE2IDAtMS41MTctLjIxNi0yLjgxOC0uNjQ3LTY0LjQwNS0xMS43MTQtMTIyLjA4OS0yNy45NzctMTc2LjMwMy00OS42NjEtMTUuMTgyLTYuMDc0LTM2Ljg2Ni0xNS44MzMtMzguMTY3LTE2LjkxNi0uNDMyLS40MzggMTIuNTgtNi41MDYgMjkuMDYtMTMuNjYzIDk4LjY2OS00My4xNTQgMjAxLjAyNC05Mi4xNjQgMjM2LjE1My0xMTMuMTk2IDQuMTE5LTIuNjAzIDcuMzczLTMuOTAzIDguMDI1LTMuOTAzem0tNDk0LjY0NiAxNi45MTZjLjQzNC40MzItMjcuMTA3IDQwLjExOC02NS43MDkgOTQuMTE0LTEzLjQ0NCAxOC44NjctMjkuMDU3IDQwLjk4NS0zNC45MTEgNDkuMjI1LTUuODU2IDguMjQxLTE0Ljc0NiAyMS4yNTMtMTkuNzM0IDI5LjA2bC05LjExMiAxNC4wOTYtOS43NTktOC4yNGMtMTEuNDk0LTkuNTQ0LTMxLjQ0Mi0yOS45MjctNDAuMzMzLTQxLjIwNC0xOC42NTEtMjMuMjAxLTMxLjIyNi00Ny43MDYtMzYuMjE0LTcwLjA0LTIuMzg2LTEwLjQxMS0yLjM4Ni0xNS42MTgtLjIyLTE2LjI2NSAzLjI1Mi0uODY3IDYxLjE1My0xNC41MyAxMTUuMzctMjcuMTEgMzAuMTQzLTYuOTM3IDY1LjA1NC0xNS4xNzcgNzcuNjMyLTE4LjIxMyAxMi41NzktMy4wNDEgMjIuNzc0LTUuNDIzIDIyLjk5LTUuNDIzem0yNy43NTYgMTAuNjI2bDYuOTM3IDcuODA2YzMxLjIzMSAzNC45MTQgNjMuMTA4IDYwLjcyNCAxMDEuNzA4IDgzLjI3MiA2Ljk0MSAzLjkwNiAxMi4xNDQgNy4zNzMgMTEuNzA4IDcuNTk0LTEuNTE0IDEuMDgzLTEzNC4wMTYgNDguMTM2LTE5NS4zODUgNjkuMzg5LTM0LjQ3OCAxMi4xNDMtNjIuODg4IDIxLjkwMS02My4xMDIgMjEuOTAxLS4yMTYgMC0yLjE2OS0xLjI5OS00LjM0MS0yLjgxOGwtMy45MDEtMi44MiA2LjI4OC05LjEwNmMyMC4zODMtMjkuNDkzIDQ1Ljk3Ni02MS44MDMgMTAxLjcwNy0xMjkuMDI4bDM4LjM4MS00Ni4xOXptMTczLjA1MyAxMjMuODIyYy4yMTMtLjIxNSA5Ljc1NSAzLjI1MiAyMS40NjQgNy41OTQgMjguMTk1IDEwLjYyNCA1MC41MjcgMTcuMzQ1IDgwLjQ1NiAyNC45MzYgMzYuODY2IDkuMzI2IDkwLjIxMSAxOC40MzQgMTIxLjY1NyAyMS4wMzUgNC43NzEuNDMyIDcuMzczLjg2OCA2LjUwNSAxLjUxOS0xLjUyMS44NjgtMzMuMzk1IDExLjQ5NC01Ni44MTYgMTguODY3LTM3LjMwMiAxMS43MDgtMTUxLjE0OSA0NS4zMi0yNDMuOTYyIDcxLjk5NS0xNy4xMzIgNC45ODctMzEuODc5IDkuMTA4LTMyLjc0NiA5LjMyMy0yLjE2Ni40MzYtOS4zMjUtMS41MTktOS4zMjUtMi4zODYgMC0uNDMxIDUuMjA0LTcuMTUzIDExLjQ5NC0xNC41MjcgMzEuMjI1LTM3LjMgNjIuMjM4LTc4LjkzNSA4OC4wNDQtMTE4LjQwMyA3LjE1NC0xMC44NDYgMTMuMjI5LTE5LjczNiAxMy4yMjktMTkuOTUzem0tMzguMTcgMS4wODdjLjIxNi4yMTYtMTUuMTc5IDI0LjkzNi00Mi4wNjYgNjcuNDM5LTExLjQ5NiAxNy45OTktMjQuMjkxIDM4LjM4My0yOC44NDYgNDUuNTQtNC4zMzcgNi45MzktMTAuODQyIDE3Ljc4NC0xNC41MjcgMjMuODU0bC02LjI5IDExLjA2MS0zLjI1Mi0uODY4Yy03LjgwOS0yLjE2OS02Mi42NzItMjEuNDcxLTc3LjIwMi0yNy4zMjUtMTgtNy4xNTctMzYuNjQ5LTE1LjgyOS01MC41MjktMjMuMjAyLTE3LjM0Ni05LjMyNi0zOS4wMy0yMy4yMDYtMzcuMjk3LTIzLjYzNy40MzMtLjIxNiAzMC4xNDMtOC4yNDMgNjUuOTIyLTE3Ljk5OSA5NC45ODQtMjUuODA5IDE0Ny42NzgtNDAuNzcgMTgyLjE2MS01MS42MTIgNi4yOS0xLjk1MiAxMS43MS0zLjQ3MSAxMS45MjYtMy4yNTF6bTI2OS45ODUgNjMuMzE4aC4yMTZjLjg2OCAyLjE3MS0zNC4yNiA5OS43NTUtNDcuMDYgMTMwLjU0Ny0yLjgxNSA2LjkzOS0zLjg5NiA4LjY3Ny01LjQxNyA4LjQ1Ni0zLjY4Ny0uMjEzLTU0LjY0Ni03LjM3LTg1LjY2LTExLjkyNS01My45OTQtOC4yNC0xNDQuNjQxLTI0LjA3My0xNjcuNDA5LTI5LjI3NWwtNS4yMDQtMS4wODMgMzIuMzA3LTcuMzc4YzY5LjM5Ni0xNS42MTMgMTAyLjc5MS0yNC4wNjkgMTM2LjYxOS0zNC40NzggNDIuNzIyLTEzLjAxMSA4NS4wMTEtMjkuMjc2IDEyNy43MjktNDkuMjI1IDYuNzIyLTMuMDM3IDEyLjM2MS01LjQyMiAxMy44NzktNS42Mzl6IiBmaWxsPSJ1cmwoI2EpIi8+JiN4YTsmI3hhOzxsaW5lYXJHcmFkaWVudCBncmFkaWVudFRyYW5zZm9ybT0ibWF0cml4KC4xMjM0IDAgMCAtLjEyMzQgMTE1OC4zMyAxNTUwLjI3MykiIHkyPSIxMDI4OC44MSIgeDI9Ii0yMjA2LjI0OSIgeTE9IjEwMjg4LjgxIiB4MT0iLTI4ODIuNyIgZ3JhZGllbnRVbml0cz0idXNlclNwYWNlT25Vc2UiIGlkPSJiIj4mI3hhOyYjeGE7PHN0b3Agc3RvcC1jb2xvcj0iIzkzOWZhYiIgb2Zmc2V0PSIwIi8+JiN4YTsmI3hhOzxzdG9wIHN0b3AtY29sb3I9IiNkY2RlZTEiIG9mZnNldD0iMSIvPiYjeGE7JiN4YTs8L2xpbmVhckdyYWRpZW50PiYjeGE7JiN4YTs8cGF0aCBkPSJNMTExNC45ODMgMTQ1LjQxNGMtNC43NzEtLjY0Ny04MS43NTcgMjcuMTEtMTMxLjQxNSA0Ny4yNzUtNjcuMDEgMjcuMzI3LTExOS4wNTIgNTMuMzUxLTE1MS4xNDggNzUuODk5LTExLjkyNSA4LjQ2MS0yNi44OTEgMjMuNDIyLTI5LjI3MyAyOS4yNzYtLjg2NyAyLjE2OS0xLjMwMyA0Ljc3MS0xLjMwMyA3LjM3M2wyOS4wNiAyNy41NDEgNjkuMTc1IDIyLjExOSAxNjQuNTk0IDI5LjQ5MyAxODguMjI4IDMyLjMxMiAxLjk1My0xNi4yNjRjLS42NDkgMC0xLjA4NS0uMjE2LTEuNzMtLjIxNmwtMjQuNzI4LTMuOTA1LTQuOTg0LTguODljLTI1LjU5LTQ1LjEwNy01My43ODEtMTAxLjA1Ni03MC4yNjEtMTM4Ljc4OS0xMi43OTMtMjkuMjc2LTI0LjkzOC02My4xMDItMzEuNjYyLTg3LjM5MS0zLjY4Ny0xNC43NDYtNC4xMTktMTUuNjEzLTYuNTAxLTE1LjgyOXYtLjAwNWgtLjAwNXptLTMuNDc0IDExLjA2M2guMjIzYy4yMTMuMjE0IDEuMDgxIDYuMjkgMS45NSAxMy40NDIgMy42ODMgMzAuMzY0IDEwLjQxMSA1OS42MzUgMjEuMDM1IDkxLjI5NyA4LjAyMiAyMy44NTUgOC4wMjIgMjIuNTU1LTEuMzAxIDE5LjczNC0yMi4xMTktNi4wNy0xMjEuMjIxLTIzLjIwMi0xOTMtMzMuMTc3LTExLjQ5NC0xLjUxOS0yMS4yNTMtMy4wMzYtMjEuMjUzLTMuMjUyLS44NjctLjg2NyA1MS44MjctMjguNDEgNzUuMDMxLTM5LjI1IDI5LjcwOS0xMy42NjUgMTExLjI0Ni00Ny43MTEgMTE3LjMxNS00OC43OTR6bS0yMDkuMDQ3IDk3LjE1bDguNDYxIDIuODE2YzQ1Ljk3IDE1LjYxNiAxNjEuNTUxIDM3LjczNiAyMjUuMzEgNDIuOTQgNy4xNTQuNjUxIDEzLjIyOSAxLjMwMyAxMy40NDIgMS4zMDMuMjE2LjIxNi01Ljg1MiAzLjQ2OS0xMy42NjEgNy4xNTQtMzAuNzkgMTUuMzk3LTY0LjYyMSAzNC4yNjQtODguMDQyIDQ4Ljc5NC02LjkzNyA0LjMzNS0xMy4yMjkgNy44MDctMTQuMDk0IDcuODA3LS44NjggMC01LjQyLS44NjgtMTAuMTkxLTEuNTE5bC04LjY3NC0xLjMwMy0yMS42ODMtMjEuMjUzYy0zOC4xNjctMzcuMDgtNjguMDk0LTY1LjcwNC03OS41ODgtNzYuNTQ5bC0xMS4yOC0xMC4xOXptLTguNjcxIDYuNzIxbDMwLjU3NiAzOC4xNjhjMTYuNjk2IDIxLjAzNSAzMy42MTEgNDEuNjM1IDM3LjMwMSA0Ni4xODcgMy42ODMgNC41NTcgNi43MjEgOC4yNDUgNi41MDUgOC40NjEtLjg2OC42NS00NC4yMzYtNy44MDktNjcuMjI2LTEzLjAxMS0yMy42MzctNS40MjMtMzMuMzk1LTguMDI1LTQ3LjkyNC0xMi41NzdsLTExLjkyOC0zLjkwNXYtMy4wMzhjLjIxNi0xNC41MyAxOC42NTEtMzYuMjE0IDQ5Ljg3Ny01OC4zMzFsMi44MTktMS45NTR6bTI1OS43OTEgNTIuMDQ2Yy44NjkgMCAxLjk1IDEuOTUxIDQuNTUyIDcuODA2IDcuMzczIDE2LjI2MyAzMC4zNjQgNjAuMDcgMzUuOTk3IDY4LjUyNiAxLjc0IDIuODIyIDQuNzcxIDMuMDM4LTI1LjgwMi0xLjk1LTczLjUxMi0xMS45My05Ny4xNTItMTUuODI5LTk3LjE1Mi0xNi4yNjMgMC0uMjE2IDIuMTY5LTEuNzM1IDQuOTg4LTMuMjU0IDIyLjc3MS0xMi41NzUgNDUuNzU2LTI4LjYyNCA2Ni4xNDItNDUuNzU2IDQuOTg4LTQuMTIxIDkuNTQyLTguMDI0IDEwLjQwNy04LjY3Ni4yMTYtLjQzMy42NTItLjY0OS44NjgtLjQzM3oiIGZpbGw9InVybCgjYikiLz4mI3hhOyYjeGE7PHJhZGlhbEdyYWRpZW50IGdyYWRpZW50VW5pdHM9InVzZXJTcGFjZU9uVXNlIiBncmFkaWVudFRyYW5zZm9ybT0ibWF0cml4KC0uMTE4NSAtLjAxNzggLS4wMzYgLjIzNyAtMTk4Ljk1NSAtMTMxNC40MTUpIiByPSI4OTguMTIiIGN5PSI3Mjc3LjcwNSIgY3g9Ii0xNDIxNy40NDgiIGlkPSJjIj4mI3hhOyYjeGE7PHN0b3Agc3RvcC1jb2xvcj0iI2VlMzUyYyIgb2Zmc2V0PSIwIi8+JiN4YTsmI3hhOzxzdG9wIHN0b3AtY29sb3I9IiNhOTFkMjIiIG9mZnNldD0iMSIvPiYjeGE7JiN4YTs8L3JhZGlhbEdyYWRpZW50PiYjeGE7JiN4YTs8cGF0aCBkPSJNODA0LjY2IDI5NC44MjhzLTQuNzY4IDcuNTkzLS4yMTUgMTguODdjMi44MjIgNi45MzcgMTEuMDYxIDE1LjM5MyAyMC4zODQgMjQuMDY5IDAgMCA5Ni41IDk0LjExNCAxMDguMjExIDEwNy41NjEgNTMuMzQ0IDYxLjU4NSA3Ni41NDkgMTIyLjMwNSA3OC43MTggMjA2LjAxMiAxLjMwMSA1My43OC04Ljg5NCAxMDEuMDU0LTM0LjI2NCAxNTUuOTE5LTQ1LjEwNiA5OC40NTMtMTQwLjMwNyAyMDcuMDk4LTI4Ny4xMTcgMzI3LjY3bDIxLjQ3Mi03LjE1N2MxMy44NzgtMTAuNDExIDMyLjc0NS0yMS40NjcgNzYuOTgyLTQ1Ljc1NiAxMDIuMTM3LTU1Ljk1MiAyMTcuMDcxLTEwNy4zNDYgMzU4LjAyOC0xNjAuMjU4IDIwMi45NzEtNzYuMzM1IDUzNi43MTUtMTY1LjY4MSA3MjYuNjc2LTE5NC43MzZsMTkuNzM3LTMuMDM4LTMuMDM4LTQuNzcxYy0xNy4zNDUtMjYuODkxLTI5LjI3Ni00My41ODctNDMuNTktNjEuMzY5LTQxLjYzMy01MS42MTItOTIuMTU3LTkzLjQ2My0xNTMuOTY0LTEyOC4xNjEtODUuMDA3LTQ3LjQ4OS0xOTQuOTU2LTg0LjU3MS0zMzQuMTczLTExMi4xMTItMjYuMjM5LTUuMjA3LTgzLjkyMy0xNS4xODEtMTMwLjc2My0yMi4zMzctOTkuMzIxLTE1LjM5My0xNjMuNTEtMjYuMDIxLTIzNC4yMDMtMzguMTY1LTI1LjM3LTQuMzM5LTYzLjMyMy0xMC44NDMtODguNDc4LTE2LjI2My0xMy4wMTEtMi44MjItMzcuOTQ3LTguNjc2LTU3LjQ2NC0xNS4zOTgtMTUuNjEzLTYuMDc1LTM4LjE2OC0xMi4xNDctNDIuOTM5LTMwLjU4em01NS45NTIgNTQuMjE2Yy4yMTQtLjIxNCAzLjY4MyAxLjA4MyA4LjI0IDIuNjAyIDguMjQgMi44MTYgMTguODY1IDYuMDcgMzEuNDQ2IDkuNTQyYTE1OTkuNDcgMTU5OS40NyAwIDAgMCAyOC42MjQgNy41ODljMTMuMDExIDMuMjUxIDIzLjg1MiA2LjI4OCAyNC4wNjggNi4yODggMS41MjEgMS41MTkgMjMuNDI0IDcxLjU1OCAzMC43OTcgOTguNDQ5IDIuODE1IDEwLjE5NSA0Ljk4OCAxOC44NjcgNC43NzEgMTguODY3LS4yMjMuMjItMi42MDUtMy40NjktNS40MjMtOC40NTYtMjUuMzczLTQ0LjY3My02NS40OTEtODkuOTk1LTExMS44OTktMTI2LjQyOC02LjA2OS00LjMzMy0xMC42MjQtOC4yMzctMTAuNjI0LTguNDUzem0xMDYuNjkyIDI5LjQ5MmMxLjA4NSAwIDUuODU2LjY1MSAxMS43MDggMS45NTEgMzYuODY2IDguMjQgMTAzLjAwOCAyMC44MTggMTQ1LjI5MyAyNy45NzUgNy4xNTcgMS4wODMgMTIuNzk3IDIuMzg3IDEyLjc5NyAyLjgxOCAwIC40MzYtMi42MDUgMS45NTEtNS44NTkgMy42ODgtNy4xNTMgMy42ODUtMzUuOTk3IDIwLjgxNS00NS41MzYgMjcuMzIyLTI0LjA3MyAxNi4wNDctNDUuNzU2IDMzLjM5NS02MS4zNzEgNDkuMDA4LTYuMjg4IDYuMjktMTEuNzEyIDExLjQ5NC0xMS43MTIgMTEuNDk0cy0xLjI5Ny0zLjY4NS0yLjM4Ni04LjI0MmMtNy44MDItMzAuMTQzLTI0LjA2OS03NC44MTYtMzguODE1LTEwNi4yNTgtMi4zODYtNC45ODYtNC4zMzktOS41NDEtNC4zMzktOS45NzMgMCAuNDMzIDAgLjIxNy4yMi4yMTd6bTE4Ny43OTUgMzUuNzgxYzEuMzAxLjQzMiAzLjQ3IDcuODA2IDcuODA2IDI0LjA2OSA4LjAyNSAzMS40NDYgMTEuNzEyIDY2LjU3NiAxMC40MTEgOTkuMzIxLS40MzYgOS4xMDgtLjg2OCAxNy41NjQtMS4zMDQgMTguNjUxbC0uNjQ5IDIuMTY2LTExLjI3Ni0zLjY4NWMtMjMuMjA0LTcuMzczLTYwLjkzNS0xOC40MzUtOTMuMjQ1LTI3LjU0MS0xOC40MzYtNC45ODgtMzMuMzk1LTkuNTQyLTMzLjM5NS05Ljk3NSAwLTEuMzAzIDI2Ljg5MS0yOC4xOTIgMzguMzgzLTM4LjM4MyAyMS44OTgtMTkuMzAzIDgxLjMxNi02NS4yNzUgODMuMjY5LTY0LjYyM3ptMTQuOTYzIDIuMTY2Yy42NTItLjY0NyA4OS43NzkgMTQuNzQ2IDEzMC4zMzEgMjIuNTU0IDMwLjE0NSA1Ljg1NCA3My45NDggMTQuOTYzIDc2LjU0OSAxNi4wNDkgMS4zMDEuNDMyLTMuMjU0IDMuMDM0LTE3Ljc4NCA5LjUzOS01Ny4yNDggMjUuODA4LTk5Ljc1NCA0OS4wMDgtMTQyLjAzNiA3Ny4yMDItMTEuMDYgNy4zNzMtMjAuMzg2IDEzLjQ0NC0yMC42MDIgMTMuNDQ0LS4yMTYgMC0uNDMzLTYuMjg3LS40MzMtMTMuODc4IDAtNDEuMjAxLTguMjQxLTgyLjgzOC0yMy40MjQtMTE3Ljk2OC0xLjUxNy0zLjQ3LTIuODE4LTYuNzIyLTIuNjAxLTYuOTQyem0yMzAuNTE2IDQ1LjU0MmMuNjUyLjY1LTIuMTY5IDE4LjIxNy00Ljc3MSAyOC42MjQtNy44MDYgMzIuMzEyLTI4Ljg0IDgwLjI0LTU0LjY0MyAxMjUuMzQzLTQuNTU4IDguMDI0LTguNjc3IDE0LjUzLTkuMTE0IDE0Ljc0Ni0uNDI5LjIxNi02LjI4NS0zLjAzOC0xMy4wMDktNi45NDEtMjUuMTU0LTE0Ljc0Ni01My43NzgtMjguNjI0LTg1LjAwNy00MS42MzctOC42NzEtMy42ODUtMTYuMjYzLTYuNzIzLTE2LjQ4LTcuMTUzLTEuNTIxLTEuMzAzIDY4LjMwOC00Ny40OTMgMTA1LjE3NC02OS42MTIgMjkuMjc2LTE3Ljc4MSA3Ni45ODItNDQuMjM5IDc3Ljg1LTQzLjM3em0xNi40OCAyLjYwMWMxLjk1MyAwIDQxLjQyMSAxMC44NDQgNjIuMDE5IDE2LjkxNiA1MC45NjMgMTUuMTgxIDEwOS41MTIgMzYuNjQ4IDE0Ny42NzkgNTMuOTk2bDE1LjgyOCA3LjE1OS0xMS4wNTYgMi42Yy05My4yNDUgMjEuNDY3LTE3My4wNDkgNDYuMTkyLTI1MC4wMzQgNzcuNDE4LTYuMjg5IDIuNjAyLTExLjkyOCA0Ljc3MS0xMi4zNTcgNC43NzEtLjQzNiAwIDEuNzMzLTQuOTg3IDQuNTUyLTExLjA2MSAyMy4yMDQtNDkuMjI1IDM4LjE2Ny0xMDAuNjIgNDEuODUtMTQ0LjQyNy4yMjEtNC4xMjEuODY3LTcuMzcyIDEuNTE5LTcuMzcyem0tMzkyLjkzOCA5MC4yMTNjLjY0OS0uNjUyIDMwLjc5MyA2LjUwNiA0Ny4wNTcgMTEuMDU2IDI0LjcyMSA2Ljk0MiA3Ny4xOTggMjQuNTA1IDc3LjE5OCAyNS44MDggMCAuMjE2LTUuODUzIDUuMjA0LTEyLjc5IDExLjI3OC0yOC40MDggMjMuNjM3LTU1LjczNCA0OC41NzItODguNDgxIDgwLjIzNC05Ljc1OSA5LjMyOC0xNy45OTcgMTYuOTE3LTE4LjQyOSAxNi45MTctLjQzNiAwLS42NDktMS4zMDQtLjQzNi0zLjAzOCA0Ljk4Ny0zNi40MzMgMy45MDYtODMuMjcyLTMuMDM0LTEzMC43NjMtLjY1My02LjA3NC0xLjMwMi0xMS4yNzYtMS4wODUtMTEuNDkyem02MzMuNDMzLjY1MmMuNDI5LjQzMS0xMy44ODEgMjIuOTg0LTIyLjk4OCAzNS43NzctMTMuMDA5IDE4LjY0OS0zMi4wOTggNDMuMzc1LTc1LjI1MiA5Ny41ODgtMjIuNzY1IDI4LjYyMi00OC4zNTggNjAuOTM2LTU2LjgxMiA3MS43NzgtOC42NzggMTAuODQyLTE1LjgzMSAxOS45NDgtMTYuMDUxIDE5Ljk0OC0uMjE2IDAtMy4wMzEtMy45MDEtNi4wNjktOC42NzEtMjQuMjg5LTM2LjQzMy01My4zNDktNjguMzExLTg3LjgyOS05Ni45MzUtNi41MDUtNS40MjMtMTMuNjU4LTExLjI3OC0xNi4wNDQtMTMuMDEzLTIuMzg2LTEuNzM0LTQuMzM5LTMuNDY5LTQuMzM5LTMuNjg1IDAtLjY0OSAzNi44NjItMTYuNDgzIDY0Ljg0MS0yNy43NTcgNDkuMDEtMTkuOTUyIDExNS43OTQtNDMuODA1IDE2NS44OTItNTkuMjAzIDI2LjI0LTguMjM5IDU0LjIxNS0xNi4yNjMgNTQuNjUxLTE1LjgyN3ptMTYuNjk2IDQuMzM0Yy44NjUtLjIxNSA2LjA3MiAyLjM4NyAxMi4zNjEgNi4wNyA1Mi42OTcgMzAuMTQzIDEwNC4zMDUgNjguOTYyIDE0NS4wNzcgMTA4Ljg2NCAxMS40OTIgMTEuMjc4IDM5LjkgNDAuNzcgMzkuNDY0IDQwLjk4NiAwIDAtOS45NzUuODY3LTIxLjY4MyAxLjczMy05MS4yOTYgNi45NDItMjA4LjE3OCAyNi4yMzktMzIwLjUxMSA1My4zNDUtNy41ODkgMS43MzMtMTQuMzEgMy4yNTItMTQuNzQ2IDMuMjUyLS40MjkgMCA4LjAyNS04LjQ1NiAxOC42NTMtMTguNjQ3IDY1LjkyMi02My41MzggOTYuMDY3LTEwMy42NTYgMTMxLjYyOC0xNzUuMjIgNC45ODYtMTAuNjIzIDkuMzI1LTE5LjczMSA5Ljc1Ny0yMC4zODMtLjIxNiAwLS4yMTYgMCAwIDB6bS00ODIuOTM2IDQ5LjQ0NmMzLjAzOC42NDcgMzEuMjI5IDEzLjg4IDUyLjQ4IDI0LjUwMyAxOS41MTcgOS43NTUgNDguNzk0IDI1LjM3MiA1MC4zMTEgMjYuNjcxLjIxNi4yMTYtMTAuMTk1IDUuNjM4LTIyLjk4NCAxMS45MjgtNDAuNzcyIDIwLjM4NC03NS42ODQgMzkuNjgyLTExMi4xMTggNjEuODAyLTEwLjQwOCA2LjI5LTE5LjA4MiAxMS40OTctMTkuMjk4IDExLjQ5Ny0uODY4IDAtLjY1Mi0uODcyIDUuMjA0LTExLjQ5NyAxOS41MTgtMzUuNTYxIDM1LjEyOS03OC4wNjUgNDQuMDIzLTExOS40ODYuODY0LTMuMjUyIDEuNzMzLTUuNDE4IDIuMzgyLTUuNDE4em0tMjguMTkyIDUuMjAyYy42NTIuNjUyLTYuNzIxIDI3LjMyMy0xMS4yNzMgNDEuODUzLTguODk0IDI3LjU0MS0yMy44NTYgNjIuMDItMzguMzgzIDg4LjA0My0zLjQ3NCA2LjA2OS04LjY3NyAxNC45NjEtMTEuNDk2IDE5Ljk0OGwtNS40MiA4LjY3NC0xMi4xNDQtMTEuNzA3Yy0xNC4wOTQtMTMuNjYzLTI1LjU5LTIyLjEyLTQwLjMzMy0yOS43MTItNS44NTktMy4wMzMtMTAuNDExLTUuNjM4LTEwLjQxMS02LjA2OSAwLTEuNzM1IDM3LjA4Mi0zNS4zNDcgNjUuNDktNTkuNjM1IDIwLjM4My0xNy41NjYgNjMuMzIxLTUyLjA0NSA2My45Ny01MS4zOTV6bTE3Mi40MDQgNzAuOTEzbDEwLjYyNyA2LjkzN2MyNC4yODIgMTUuODMzIDUyLjkwNiAzNi44NjYgNzQuODEzIDU1LjI5OCAxMi4zNTcgMTAuMTkgMzYuMjEgMzEuNjYyIDQwLjk4NSAzNi44NjZsMi41OTggMi44MjItMTcuNTYxIDQuOTg2Yy05OS4zMjEgMjcuNTM4LTE3Ni4wODcgNTIuMDQzLTI2NS42NDkgODUuMDA3LTkuOTc1IDMuNjg1LTE4LjQzMyA2LjcyMS0xOS4wODUgNi43MjEtMS4yOTcgMC0yLjM4NSAxLjA4MyAxOS45NTQtMTkuNTE5IDU3LjI1MS01Mi42OTEgMTA3Ljk5Mi0xMTAuODEyIDE0NS43MjYtMTY3LjQxMWw3LjU5Mi0xMS43MDd6bS00NS4zMjQgMTEuMjc2Yy40MzIuNDMyLTI5LjI3NiA0Mi4yODQtNDcuMDYgNjUuOTIyLTIxLjI1MSAyOC4xOTItNTguOTg1IDc1LjQ2NS04NS4wMDcgMTA2LjI1Ni0xMC44NCAxMi43OTctMjAuMTYzIDIzLjQyMi0yMC41OTkgMjMuNjQtLjY1Mi4yMTYtLjg2OC0zLjAzNi0uODY4LTguMDI0IDAtMjYuMjQyLTYuNzIxLTU0LjIxNi0xOC40MzMtNzguMDY4LTQuOTg4LTkuOTc1LTUuODU2LTEyLjM2MS00Ljc2OC0xMy40NDQgNC4xMTktMy42ODggNjcuMjIzLTM5LjY4NiAxMDcuMTIzLTYxLjE1MyAyNi44OS0xNC4zMTIgNjguOTU2LTM1LjU2MyA2OS42MTItMzUuMTI5em0tMjc0LjEwNyA2Ny4yMjVjLjY1MiAwIDUuNjQgMi42IDExLjI3OSA1LjYzOCAxMy44NzggNy41ODkgMjYuMjM5IDE2LjA0NiAzNy4yOTggMjUuMTU2LjQzMi40MzItNS4yMDQgNC45ODgtMTIuNTc3IDEwLjQwNi0yMC42MDIgMTQuNzQ2LTUxLjgyOCAzOC4zODUtNzAuMDQxIDUyLjkxNS0xOS4wODggMTUuMTgtMTkuNzM0IDE1LjYxMy0xNy41NjggMTIuMzYxIDE0LjMxNC0yMS45MDMgMjEuNDY3LTM0LjI2NCAyOS4wNi01MC4wOTMgNi43MjEtMTQuMDk0IDEzLjQ0Mi0zMC43OTMgMTguMjEzLTQ1LjMyMyAxLjczNC02LjI4OSAzLjkwNC0xMS4wNiA0LjMzNi0xMS4wNnptNzMuMDgzIDU3LjI0OGMxLjA4MS0uMjE0IDIuMzg2IDEuNzM1IDguMjM4IDEwLjQxMSAxMi4zNjEgMTguNDI5IDIxLjkwMyA0My4xNTQgMjQuMjkyIDYzLjEwNGwuNDI5IDQuMzM5LTI5LjcwNSAxMS40OTRjLTUzLjEzMyAyMC41OTktMTAyLjEzOSA0MC45ODUtMTM1LjMyMiA1Ni4xNjItOS4zMjIgNC4zMzktMjUuNTg3IDEyLjE0NC0zNi4yMTEgMTcuMzUyLTEwLjYyNyA1LjQxOC0xOS4zMDEgOS41MzktMTkuMzAxIDkuMzIzczYuNzIxLTUuMjA0IDE0Ljk2MS0xMS4yNzhjNjQuODQ0LTQ3LjA1NSAxMjEuMDA3LTk4LjY2OSAxNjMuMDc2LTE1MC4yNzkgNC41NTUtNS40MjMgOC42NzctMTAuNDExIDkuMTA3LTEwLjYyN2wuNDM2LS4wMDF6bS0zMy42MTIgOC4yNDJjLjg2OC44NjctMjMuODUzIDI4Ljg0LTQwLjc2OCA0NS45NzEtNDEuODUzIDQyLjcyMy04My4yNzMgNzYuMTItMTM0LjY2OSAxMDguNjQ5LTYuNTA1IDQuMTE5LTEyLjM1OSA3LjgwNC0xMy4wMTEgOC4yNC0xLjUxOS44NjcuNDMyLTEuMzAzIDIyLjk4Ni0yNS44MDggMTQuMzE0LTE1LjM5NyAyNS4xNTUtMjguNDA4IDM3LjUxNi00NC40NTMgOC4yNC0xMC42MjQgOS43NTktMTIuMTQzIDIxLjY4OC0yMC42MDQgMzEuODc4LTIyLjk4NyAxMDUuMzktNzIuODY0IDEwNi4yNTgtNzEuOTk1eiIgZmlsbD0idXJsKCNjKSIvPiYjeGE7JiN4YTs8L2c+JiN4YTsmI3hhOzxwYXRoIGQ9Ik0yNjUuNzQ3IDkwMC4xMDJjLTIuMjc2IDAtNC41NTMuMjE3LTYuODA5LjIxNy00NS45NzUgMi40NS03Ni45ODMgMjIuNjgzLTk1LjExMyA2Mi4xOTUtMTUuNTA2IDM1LjczNS0xMy44MTMgODIuNDQ2LjE3NCAxMTguNCAxNi4yNjUgMzUuMTMxIDQyLjU0NyA1My42NzIgODYuNDE2IDYwLjY3NSA5LjI4MiAxLjUyIDE1LjUwNiA2LjYxNiAzMy40ODMgMjcuNjA2bDIyLjEyIDI1LjkxNWg0MC4xMThsLTI2LjY3Ni0yNi44OTJjLTE0Ljc0Ni0xNC43NDUtMjYuNjczLTI3LjU4NC0yNi42NzMtMjguNzEyIDAtMS4xMjcgNS42NDEtMy41OTkgMTIuNDY5LTUuNjggMjIuNTEtNi44MTIgNDEuMjAzLTI0LjIwMiA1NC4yNzktNTAuODU0IDEwLjU4My0yMS40MDIgMTIuMTAyLTI4LjAxOCAxMy42MTktNTQuNjQ2IDMuOTY5LTc5LjI2LTM3LjgyLTEyOC44MTMtMTA3LjQwOS0xMjguMjQ3bC4wMDIuMDIzem0zNS4xNzMgMjA3LjI3Yy0xOS41MTcgOS40NTMtNDcuODU3IDExLjM0LTY2LjM1NiA0LjU1My0xOS4xMjctNy4wMjUtMzcuNjQ2LTI2Ljg4OS00NS45NzUtNDkuMzc3LTkuMjU5LTI0LjU5MS03LjkzNy02OS45NTYgMi42NDYtOTAuMzg2IDE3LjAyMy0zMi41MjggMzkuNTM0LTQ3LjQ5IDcyLjQzLTQ3LjQ5IDQ4Ljc5MiAwIDc2LjU0OSAyOS44ODQgODAuMTcxIDg2LjA0OCAyLjg2MyA0Ni44ODUtMTIuODM4IDgyLjA1OC00Mi44OTUgOTYuNjMybC0uMDIxLjAyem02OTMuMDI1LTEzOS41NjhjLTE2LjgyOCAwLTI5LjcwOSA2LjgxMS0zOC4zODUgMjAuMjMxbC02LjgwOSAxMC42Mjd2LTI3LjYyOGgtMjkuMTIzdjE2NS42NzhoMjkuMTA0di01Mi45NTZjMC00OC40MjQuNjA0LTU0LjA4NCA3LjM3MS02Ny4zMzUgOS4zMjYtMTguMTcyIDI1LjM3MS0yNy4yMzQgNDAuODc5LTIyLjg5N2wxMC40MDggMy4wMzZ2LTI4LjcxMmgtMTMuNDQ1di0uMDQ0em0tMTcxLjA5OC0xLjUxOWMtNS43MDUgMC0xMS43NTYuNzYtMTcuNzgxIDIuMDg0LTM4Ljk3MSAxMC4xOS02MC45MzggNDcuNDg5LTU5LjU5NCA4NS44NzMgMCAzMi4xMzkgNi4yNDQgNDguMjA2IDIxLjc1MiA2NS4wNTcgMzEuNzcgMjYuMDY1IDYwLjUwMiAyOC4xNDYgOTkuMjc1IDE0LjE2MSA2LjYxNS0yLjgxOSAxMy44MTQtNi4wNzIgMTMuODE0LTYuMDcydi0yNi4wNjVsLTEzLjgxNCA3LjE1NmMtMzEuMzc5IDEzLjY2MS01NS4wMTYgMTMuNjYxLTczLjk0OS0yLjQzLTEyLjA3Ni0xMi4yOTYtMTcuMzkxLTI3LjA0Mi0xOS44NC00My44NjhoMTE3LjQyNnYtMjIuMzM5YzAtNDUuNTM5LTI3LjQxLTc0LjI5NC02Ny4zMTMtNzMuNTU3aC4wMjR6bS00Ny40OTIgNzIuNjQ3czQuMzM4LTI4LjQwNyAyMC40MjgtMzkuNTU0YzcuNzQ0LTUuNDY2IDE2LjYzMy04LjExIDI1LjMyOC04LjExIDguNzE5IDAgMTcuNDE0IDIuODE4IDI0LjU5MiA4LjMwNiAxNC43NDggMTEuMzQxIDE3LjIxOSAzOS4xNDMgMTcuMjE5IDM5LjE0M2gtODcuNTY2di4yMTVoLS4wMDF6bS03MDIuMTExLTI5Ljg4MWMtMzEuNTczLTE5LjEyOC00NS41ODItMzIuOTIxLTQzLjg2OS00OS4xODUgNC45LTQ0Ljk5NyA2MC41MDMtMzguNzczIDkxLjI5NS0yMS43NDlsLjIxOS0zMC4yNzJzLTE3LjAyNC03LjM3My00MS40MjEtNy43NjRjLTM3LjQyOS0uNTY0LTYxLjYzIDExLjcwOS03Mi45NyAzNi42OTEtMTYuNjU2IDM2Ljg2NS0xLjkwOCA2NC42NjUgNTEuMzk2IDk1LjY3NyAyOS45MjUgMTcuNDEyIDQzLjE1MiAzMi41MjggNDMuMTUyIDQ5LjAwOCAwIDM0LjA0Ny00MS4wNSA0NS45MzEtODMuNDAxIDI0LjU3LTguNzE2LTQuMzM3LTE2LjA5LTcuOTU5LTE2LjQ4LTcuOTU5LTEuNTE5IDkuNjUxLS43MzYgMzIuNzQ1LS43MzYgMzIuNzQ1czEzLjAxMiA1LjQ2NiAzMi41MjcgOS4yMzZjNDguNCA5LjY1IDkyLjQ0NS0xMy4wNTQgOTYuNjA4LTQ5LjkxOSAzLjYyMi0zNC42MDktOC44OTMtNTIuNzYxLTU2LjMxOC04MS4xMDRsLS4wMDIuMDI1em0xMTc4LjQ1NC00My4xNTVjLTUuNjgyIDAtMTEuNzExLjc4LTE4IDIuMTAzLTM4LjkyNCAxMC4xOTItNjAuODUgNDcuNDkyLTU5LjM1NCA4NS44NzYgMCAzMi4wOTUgNi4yMjUgNDguMDExIDIxLjcyOSA2NC44MzggMzEuNzcxIDI2LjA4OSA2MC41MDQgMjguMTkxIDk5LjQ3MyAxNC4xODQgNi41OTItMi44MTggMTMuNzctNi4wMjYgMTMuNzctNi4wMjZ2LTI2LjEwOWwtMTMuNzkxIDcuMTk3Yy0zMS40NDMgMTMuNjE5LTU1LjA4MiAxMy42MTktNzMuOTQ3LTIuNDcxLTEyLjE0NS0xMi4yNzQtMTcuNDE0LTI2Ljg0Ny0xOS44NjUtNDMuODcxaDExNy4yMzJ2LTIyLjMzNmMwLTQ1LjMyMS0yNy40MTItNzQuMDk5LTY3LjMxMy03My4zMzlsLjA2Ni0uMDQ2em0tNDcuNDkyIDcyLjY0NnM0LjM4MS0yOC4zNjUgMjAuNDQ5LTM5LjcyOWM3LjcyMS01LjQ4NSAxNi42MTEtOC4xMzIgMjUuMzA3LTguMTMyIDguNjc0IDAgMTcuNDE0IDIuODE5IDI0LjU5NCA4LjMyNyAxNC43NDYgMTEuMzQyIDE3LjIxOSAzOS4zMzggMTcuMjE5IDM5LjMzOGgtODcuNTQ1bC0uMDI0LjE5NnptLTUzMy44MDktMjkuMTIzYy0zMS41NzMtMTkuMDgzLTQ1LjU0LTMyLjkyLTQzLjg0OC00OS4xODUgNC45LTQ1LjAyIDYwLjUwNC0zOC43NzMgOTEuMjk2LTIxLjc0OWwuMjE4LTMwLjI3MnMtMTcuMDI0LTcuMzc0LTQxLjQyMS03LjcyMmMtMzcuNDI5LS41NjMtNjEuNjMgMTEuNzExLTcyLjk5MSAzNi42OTItMTYuNjMzIDM2Ljg2NC0xLjY5MiA2NC42NjYgNTEuNDM3IDk1LjY3NyAyOS44ODQgMTcuMzkzIDQzLjExMSAzMi4zMTIgNDMuMTExIDQ4Ljc5MiAwIDM0LjA0Ny00MS4wMjkgNDYuMTI2LTgzLjM4MSAyNC41NjktOC42NzQtNC4zMzctMTYuMDQ2LTcuOTE2LTE2LjQ4LTcuOTE2LTEuNTE5IDkuNjQ5LS43MzYgMzIuNzQ2LS43MzYgMzIuNzQ2czEyLjg1OCA1LjI3IDMyLjMxIDkuMjM3YzQ4LjQ0NSA5LjY3MiA5Mi41MS0xMy4wMTIgOTYuNjUzLTQ5Ljg3NyAzLjYtMzQuNDM3LTguODkxLTUyLjU4Ny01Ni4xNjctODAuOTUydi0uMDR6bTc1Mi40MjEtNDIuMDA1Yy0xNi44MjggMC0yOS44NTkgNi44MjktMzguMzgzIDIwLjI1NGwtNi44MTEgMTAuNTgydi0yNy41ODNoLTI5LjEyM1YxMTM2LjNoMjkuMTAydi01Mi45NTRjMC00OC40MDMuNTg0LTU0LjA4NSA3LjM3NS02Ny4zMTMgOS4zMjQtMTguMTUgMjUuMzY5LTI3LjIzNSA0MC44NzUtMjIuODc4bDEwLjQwOCAzLjAzNXYtMjguNzc1aC0xMy40NDN6bS05ODQuMDIxIDQxLjA1VjkwMi45NDFoLTI5LjM2MXYyMzMuNzI4aDEyMy40Nzh2LTI3LjYwNGgtOTQuMTE2di0xMDAuNjAxem02NzkuMDE1IDMyLjg5NmwtMjQuMjAxIDYyLjk3NS0yMy4yNy02My4zMjItMjMuNjM3LTcwLjE3M2gtMzAuMDU1YzE5LjQ3NSA1NS4yMTIgNDAuNjU4IDExMS4zNzYgNjIuMDIgMTY1LjgyOSA5LjI2LjIxNiAxOC41NDEgMCAyNy43OTkgMGwzMi42ODItODIuMDU4IDMzLjI4Ny04My43NWgtMjguNzMycy0xMi42ODggMzMuMjY2LTI1LjkxNCA3MC41MjFsLjAyMS0uMDIyek01MDYuNDU1IDgzOS4yNTFjNC43MjggMCA4LjY3NC0xLjUxNiAxMS45MjctNC43NjkgMy4yMDgtMy4yMTEgNC45LTYuOTg0IDQuOS0xMS43MTEgMC00LjcyOC0xLjY5Mi04LjY3NS00LjktMTEuNzExLTMuMjUzLTMuMDM1LTcuMDA1LTQuNTU1LTExLjcxMS00LjU1NS00Ljc2OSAwLTguNzE3IDEuNTItMTEuOTI3IDQuNzI4LTMuMjUyIDMuMjExLTQuNzI3IDcuMTU4LTQuNzI3IDExLjcxMiAwIDQuNzcxIDEuNTE5IDguNzE2IDQuNzI3IDExLjcxMSAzLjAzNyAzLjAzNCA2Ljk4NCA0LjU1MyAxMS43MTEgNC41NTN2LjA0MnptLTEwLjQwOC0yNi44ODljMi44MTgtMi44MTggNi4yNDUtNC4xMjEgMTAuNjI1LTQuMTIxIDQuMTIxIDAgNy41NDggMS4zMDMgMTAuNDExIDQuMTIxIDIuODE5IDIuODE5IDQuMzM3IDYuMjQ1IDQuMzM3IDEwLjQwOSAwIDQuMTYzLTEuNTE4IDcuNzY0LTQuMzM3IDEwLjU4Mi0yLjg2MiAyLjgxNy02LjI5IDQuMTYzLTEwLjQxMSA0LjE2My00LjE4NSAwLTcuNTktMS4zMDEtMTAuNDA4LTQuMTYzLTIuODE5LTIuODE4LTQuMzM3LTYuNDE5LTQuMzM3LTEwLjU4MiAwLTQuMTY0IDEuMzAxLTcuNTg5IDQuMTItMTAuNDA5em03LjAwMyAxMS45MjhoMS45MDhjMS4zNDYgMCAyLjY2OCAxLjMgMy43OTUgMy43NzNsMi4yNzkgNS4xMTZoMy41NzdsLTIuODE4LTUuNjgzYy0xLjE0OS0yLjI3NS0yLjI3Ni0zLjU5OC0zLjYtMy45NjkgMS42Ny0uMzkgMi45OTItLjk1MyAzLjk0Ny0yLjA4Mi45NTItLjk3NCAxLjMtMi4yOTggMS4zLTMuNzk1IDAtMS43MzQtLjU0Mi0zLjAzNC0xLjY5LTMuOTg5LTEuMzAyLTEuMDg0LTMuMzg0LTEuNjY5LTYuMDc0LTEuNjY5aC02LjAyNnYyMS4xODdoMy4wMzV2LTguODkxbC4zNjcuMDAyem0wLTkuODQ2aDIuNjQ3YzEuOTA4IDAgMy4yNTMuMzkgMy45OS45NTMuNzE2LjU2NC45MTEgMS4zMDMuOTExIDIuNjQ2IDAgMi40NS0xLjUyIDMuNjAxLTQuMzM3IDMuNjAxaC0zLjI1MnYtNy4yaC4wNDF6bS00ODUuMDE4IDcuOTU4YzAtNy4zNzMtLjIxNi0xMi44NTgtLjM5LTE2LjA5aC4xNzRjLjc1OCAzLjgxNCAxLjY5MSA2LjY1NyAyLjQ1IDguNTQzbDI4LjE5IDYyLjk3NWg0LjcyOGwyOC4xOS02My41MzhjLjc2MS0xLjczMyAxLjUyLTQuMzM3IDIuNDUyLTcuOTU5aC4yMTZjLS41NjMgNi4yOS0uNzU4IDExLjc1NC0uNzU4IDE2LjExMnY1NS41ODFoOS42NDh2LTgyLjYyMmgtMTIuMUw1NC45MTkgODUyLjg3Yy0uOTU1IDIuMjc2LTIuMjc4IDUuNjgzLTMuOTY5IDEwLjE5M2gtLjM5MmMtLjU2My0yLjIzNC0xLjg4Ni01LjYzOS0zLjc3Mi05LjgwM2wtMjUuMzMtNTguMDUzSDguNTk4djgyLjYyMWg5LjI4MXYtNTUuMzg1bC4xNTMtLjA0MXptOTYuMDQ1LjE1NGg4LjMyOXY1MS40NThoLTguMzI5di01MS40NTh6bTQuMTY0LTE4Ljg2OGMxLjczNiAwIDMuMjEtLjU4NyA0LjMzNy0xLjczNCAxLjE1LTEuMTI5IDEuOTEtMi42MDMgMS45MS00LjMzNyAwLTEuNjkyLS41NjUtMy4yMTEtMS44ODctNC4zMzctMS4xNzEtMS4xNS0yLjY2OC0xLjczNy00LjM4MS0xLjczNy0xLjY5IDAtMy4yMDguNTg3LTQuMzM4IDEuNzM3LTEuMTQ2IDEuMTI2LTEuOTA3IDIuNjQ1LTEuOTA3IDQuMzM3IDAgMS44ODcuNTg2IDMuMjA4IDEuOTA3IDQuMzM3IDEuMzA0IDEuMTQ3IDIuNjQ3IDEuNzM0IDQuMzM4IDEuNzM0aC4wMjF6bTYzLjU0IDcxLjQ1NXYtOS4wNjZjLTQuNTU1IDMuNDA1LTkuNDU2IDUuMDk4LTE0LjUzIDUuMDk4LTYuMDcgMC0xMC45OTUtMi4wODEtMTQuNTk1LTYuMDctMy41NzctMy45NDctNS40ODUtOS40MzYtNS40ODUtMTYuMjY2IDAtNy4xNTYgMS45MDgtMTIuODQgNS44NTQtMTcuMTc3IDMuNzk1LTQuMTYzIDguNzE5LTYuMjQ1IDE0Ljc0OC02LjI0NSA0LjkyMiAwIDkuNjQ3IDEuNTIgMTQuMDA5IDQuNTU3di05LjY1Yy0zLjk2OC0yLjA4Mi04LjUtMy4wMzctMTMuNjE5LTMuMDM3LTkuNDU2IDAtMTYuODI3IDMuMDM3LTIyLjMzNSA4Ljg5NC01LjQ2NiA1Ljg1NC04LjI4NSAxMy44MTMtOC4yODUgMjMuNDIgMCA4LjU0MyAyLjQ1IDE1LjcyMiA3LjU0OCAyMS4yMDkgNS4zMTIgNS42MzcgMTIuMTAyIDguNSAyMC40MjggOC41IDYuNDM4LS4xNzggMTEuNzA3LTEuNTIzIDE2LjI2Mi00LjE2N3ptMjMuODMxLTI3LjQzM2MwLTYuNzg4IDEuNTE4LTEyLjI3MyA0LjMzNy0xNi4wNDkgMi42NDctMy40MDMgNS44NTUtNS4xMTYgOS42NS01LjExNiAzLjIxIDAgNS40ODYuNTg1IDcuMTU1IDEuOTA4di05Ljg0NmMtMS4zLS41NjMtMy4xODctLjc1OC01LjYzNy0uNzU4LTMuNDA1IDAtNi40MzkgMS4xNDYtOS4xMDcgMy4yNTMtMi44MTkgMi4yMzEtNS4wNzQgNS42MzgtNi4zOTcgOS45NzVoLS4yMTZ2LTEyLjA4aC05LjQzM3Y1OC45ODVoOS40NTRWODQ3LjcxaC4xOTR6bTU0LjI3OSAzMS40NDNjOC44OTIgMCAxNi4wNDgtMi44NjMgMjEuMzYtOC41NDMgNS4yOS01LjY0MSA3LjkzNi0xMy4yMjkgNy45MzYtMjIuNjg2IDAtOS42NDctMi40MjctMTcuMDIxLTcuMzcyLTIyLjUxLTQuOS01LjQ4My0xMS43MTEtOC4xMzItMjAuNjAzLTguMTMycy0xNi4wNDggMi42NDctMjEuMzYgNy43NjRjLTUuNjgxIDUuNjQxLTguNjc0IDEzLjU5OS04LjY3NCAyMy44MTMgMCA4Ljg5MSAyLjQyOSAxNi4yNjUgNy41NDggMjEuNzUxIDUuMjkgNS42OCAxMi4yOTUgOC41MjEgMjEuMTY1IDguNTIxdi4wMjJ6bS0xMy40NDUtNDguMDU1YzMuNi0zLjc5NSA4LjMyOS01LjY4MyAxNC4xODItNS42ODMgNi4wNzQgMCAxMC42MjcgMS44ODggMTQuMDEgNS42ODMgMy40MDQgMy45NjkgNS4wOTcgOS42MyA1LjA5NyAxNy4xOTcgMCA3LjE5OC0xLjUxOSAxMi44NTktNC43MjkgMTYuNjU0LTMuMjA4IDMuOTY5LTcuOTM2IDYuMDcxLTE0LjE4MyA2LjA3MS02LjA3MSAwLTEwLjc3Ny0yLjEwNC0xNC4zNzctNi4wNzEtMy41NzctMy45OS01LjI5MS05LjQ1Ni01LjI5MS0xNi42NTQtLjM2OC03LjE1NiAxLjUxOS0xMy4wMSA1LjI5MS0xNy4xOTd6bTg0LjE0MSA0Mi45MTZjMy41OTktMy4yMDggNS41MDktNy4xNTUgNS41MDktMTIuMTAyIDAtNC4zMzctMS41Mi03LjkzNi00LjMzOC0xMC43NzctMi4zLTIuMjc1LTUuODU0LTQuMzM3LTEwLjk5NC02LjQxOS00LjU1Ni0xLjkwNi03LjM3NC0zLjYtOC44OTMtNC45MjMtMS41MTctMS41MTctMi40NS0zLjQwMi0yLjQ1LTYuMDcxIDAtMi40NS45NTUtNC4zMzcgMi44MjEtNS44NTUgMS45MDgtMS41MTYgNC4zMzctMi4yNTMgNy41OS0yLjI1MyA1LjA5NiAwIDkuNDU0IDEuMzQzIDEzLjQ0MyA0LjE4NXYtOS40NTZjLTMuODE2LTEuOTA2LTcuOTU4LTIuODE3LTEyLjY4Ni0yLjgxNy02LjA3MSAwLTExLjE4OSAxLjY3MS0xNC45NjQgNC44OTktMy45NjkgMy4yMTItNS44NTQgNy4zNzUtNS44NTQgMTIuMjc0IDAgNC4zMzcgMS4zIDcuOTM4IDMuNzcxIDEwLjU4MiAyLjA4MiAyLjI1NiA1LjY0MSA0LjU1NiAxMC41ODMgNi42MTQgNC43MjkgMi4wODMgNy45MzggMy45NjggOS42NSA1LjQ4NSAxLjY5MSAxLjUyIDIuNDUgMy40MDUgMi40NSA1LjY0MSAwIDUuNTA2LTMuNzcyIDguMzQ5LTExLjE0NiA4LjM0OS01LjY4MiAwLTEwLjc3Ni0xLjg2Ni0xNS4zMzMtNS42Mzh2MTAuMTg5YzQuMTIxIDIuNDc1IDkuMDY2IDMuNjAxIDE0LjUzIDMuNjAxIDcuMDA1LS4zNjggMTIuNDktMi4wODEgMTYuMjY0LTUuNDg2bC4wNDctLjAyMnptNDUuMDE5LTU2LjczYy04Ljg5MyAwLTE2LjA0OCAyLjY0Ny0yMS4zNjEgNy43NjQtNS42MzggNS42NDEtOC42NzQgMTMuNTk5LTguNjc0IDIzLjgxMyAwIDguODkxIDIuNDUyIDE2LjI2NSA3LjU0NyAyMS43NTEgNS4zMTMgNS42OCAxMi4yOTUgOC41MjEgMjEuMTg3IDguNTIxIDkuMTA3IDAgMTYuMDQ4LTIuODYxIDIxLjM2LTguNTQ1IDUuMzEzLTUuNjM3IDcuOTU4LTEzLjIyNyA3Ljk1OC0yMi42ODMgMC05LjY1LTIuNDcyLTE3LjAyMi03LjM3NC0yMi41MDktNS4xMTUtNS40ODctMTEuOTI3LTguMTMzLTIwLjYwMS04LjEzM2wtLjA0Mi4wMjF6bTE4LjM0NSAzMS4wMTJjMCA3LjE5OC0xLjUxOCAxMi44NTktNC43MjcgMTYuNjU0LTMuMjEgMy45NjktNy45MzggNi4wNzEtMTQuMTg0IDYuMDcxLTYuMDc0IDAtMTAuNzc4LTIuMTA0LTE0LjM3OS02LjA3MS0zLjU3Ny0zLjk5LTUuMjktOS40NTYtNS4yOS0xNi42NTQgMC03LjU5IDEuODg4LTEzLjQ0NCA1LjY4My0xNy4zOTMgMy41NzYtMy43NzMgOC4zMDYtNS42ODIgMTQuMTgyLTUuNjgyIDUuODU0IDAgMTAuNTYxIDEuOTA3IDEzLjk2NCA1LjY4MiAzLjAzNyA0LjE2MyA0LjcyOSA5LjgyNCA0LjcyOSAxNy4zOTNoLjAyMnptMjUuNTQ3IDI5LjUxM2g5LjQzM3YtNTEuMDY4aDEzLjgxM3YtNy45MzhINDI4Ljkzdi05LjEwOGMwLTguMjgyIDMuMjA4LTEyLjQ0NiA5Ljg0NS0xMi40NDYgMi4yMzQgMCA0LjUxMS41NjMgNi4yMDMgMS41MTh2LTguNTIxYy0xLjY5Mi0uNzU5LTMuOTY5LS45MzItNi44MTItLjkzMi01LjA5NSAwLTkuMjU4IDEuNTE5LTEyLjY2NCA0LjcyNy0zLjk2OSAzLjc3My02LjA3MSA4LjY3NC02LjA3MSAxNS4zMTJ2OS42NzJoLTkuOTc4djcuOTM2aDkuOTc4djUwLjg3NmwuMDY3LS4wMjh6bTM4Ljc1LTE2LjA5MWMwIDExLjUzOCA1LjA5OCAxNy40MTQgMTUuNTA2IDE3LjQxNCAzLjc3NCAwIDYuNjE0LS42MDYgOC44OTEtMS45NTF2LTguMTFjLTEuNzM0IDEuMzAyLTMuNzk1IDEuOTEtNi4wNzEgMS45MS0zLjIwOCAwLTUuNDY0LS43NjItNi43ODgtMi40NzUtMS4zNDUtMS42ODktMi4xMDMtNC41NTQtMi4xMDMtOC41MDF2LTMzLjI4NmgxNC45NjF2LTcuOTM4aC0xNC45NjF2LTE3LjM5Yy0zLjI1MyAxLjEyNy02LjQ0IDIuMDgyLTkuNDU2IDMuMDM0djE0LjM1NWgtMTAuMTkydjcuOTM4aDEwLjE5MnYzNC45NzlsLjAyMS4wMjF6bTEwMTQuODggMTA4LjczYy0zLjIwOS0zLjAzNC03LjAwNC00LjU1My0xMS43MDktNC41NTMtNC43NyAwLTguNzE5IDEuNTE5LTExLjkyOCA0Ljc3MS0zLjIwOSAzLjE4OC00LjcyOSA3LjE1NS00LjcyOSAxMS43MTEgMCA0LjcyOCAxLjUyIDguNjc1IDQuNzA1IDExLjcwOSAzLjIxMSAzLjAzNiA3LjE1NiA0LjU1NiAxMS45MjggNC41NTYgNC43MDUgMCA4LjY3NC0xLjUyIDExLjkyOC00LjcyOSAzLjE4OC0zLjI1MyA0Ljg3OS03LjAwNCA0Ljg3OS0xMS43MDktLjE3NC00Ljc3MS0xLjg4Ny04LjcxOS01LjA5Ni0xMS43NTRsLjAyMi0uMDAyem0tMS41MTcgMjIuMzM4Yy0yLjgyIDIuODE4LTYuMjQ2IDQuMTE5LTEwLjQxIDQuMTE5LTQuMTE5IDAtNy41NDUtMS4zMDEtMTAuNDA4LTQuMTE5LTIuODE4LTIuODYzLTQuMzM4LTYuNDQxLTQuMzM4LTEwLjYyNyAwLTQuMTIxIDEuMzAxLTcuNTQ1IDQuMTY0LTEwLjQwOCAyLjgxOC0yLjgxNyA2LjIyNS00LjEyMSAxMC41ODItNC4xMjEgNC4xMjEgMCA3LjU0OSAxLjMwNCAxMC40MSA0LjEyMSAyLjgxOCAyLjg2MyA0LjMzNiA2LjI4NyA0LjMzNiAxMC40MDggMCA0LjM4Mi0xLjMwMSA3Ljc2NC00LjMzNiAxMC42Mjd6bS04LjUwMi05LjY1MWMxLjY5MS0uMzkgMy4wMzctMS4xNDkgMy45NjktMi4wODEuOTU1LS45NzcgMS4zMDMtMi4zMDEgMS4zMDMtMy44MTUgMC0xLjY5Mi0uNTQzLTMuMDM3LTEuNjkxLTMuOTY5LTEuMzAxLTEuMDg1LTMuNDA0LTEuNjcxLTYuMDctMS42NzFoLTYuMDI5djIxLjE2NGgzLjAzN3YtOC44OTFoMS44ODVjMS4zMDMgMCAyLjYwNCAxLjMgMy43NzMgMy43NzNsMi4yNTQgNS4wOTZoMy42MDJsLTIuODE4LTUuNjgzYy0uOTc3LTIuNDcyLTIuMTA1LTMuNjAxLTMuMjUyLTMuOTdsLjAzNy4wNDd6bS0yLjA4Mi0xLjkwN2gtMy4yNTJ2LTcuMTU1aDIuNjY4YzEuODg3IDAgMy4yMDkuMzQ1IDMuOTY5LjkzMi43NTguNTYzLjkzMiAxLjMwMS45MzIgMi42NDYgMCAyLjQ1LTEuNTE4IDMuNTc5LTQuMzM2IDMuNTc5bC4wMTktLjAwMnpNOTMzLjQ0MyA4MTYuMzUzaDIuNjQ2di0yMS4xODdoNy4wMDJ2LTIuNjQ2aC0xNi42NTJ2Mi42NDZoNy4wMDZ2MjEuMTg3aC0uMDAyem0xNi4wNDctMTUuOTE3YzAtMi4wNjIgMC0zLjc1My0uMTUyLTQuNzA1LjE3NCAxLjEyNi41NjQgMS44ODcuNzM4IDIuNDVsOC4xMzMgMTguMTcyaDEuMzAxbDguMTUyLTE4LjM0N2MuMjE5LS41NjMuMzkzLTEuMzAxLjc2LTIuMjc1LS4xNzQgMS44ODctLjE3NCAzLjQwMS0uMTc0IDQuNTUzdjE2LjA0OGgyLjgyVjc5Mi41MmgtMy40MDZsLTcuMzcxIDE2LjQzOGMtLjE3NC41ODctLjc2MiAxLjczNC0xLjEyOSAzLjAzN2gtLjIxN2MtLjE1Mi0uNzYxLS41NDEtMS41MTktMS4wODQtMi44MThsLTcuMzczLTE2LjY1NWgtMy44MTZ2MjMuODU0aDIuNjY2di0xNS45MTdsLjE1Mi0uMDIzeiIgZmlsbD0iIzIzMUYxRiIvPiYjeGE7JiN4YTs8L3N2Zz4=;" vertex="1" parent="1">
          <mxGeometry x="270" y="1080" width="260" height="260" as="geometry" />
        </mxCell>
      </root>
    </mxGraphModel>
  </diagram>
</mxfile>
